<?xml version="1.0" standalone="no"?>
<!DOCTYPE svg PUBLIC "-//W3C//DTD SVG 1.1//EN" "http://www.w3.org/Graphics/SVG/1.1/DTD/svg11.dtd" >
<svg>
<metadata>
Created by FontForge 20090622 at Thu Jun  8 11:35:02 2017
 By deploy user
&#194;&#169; 2015 Apple Inc. All rights reserved.
</metadata>
<defs>
<font id="SFUIText-Semibold" horiz-adv-x="0" >
  <font-face 
    font-family="SF UI Text"
    font-weight="600"
    font-stretch="normal"
    units-per-em="2048"
    panose-1="0 0 7 0 0 0 0 0 0 0"
    ascent="1638"
    descent="-410"
    x-height="1094"
    cap-height="1443"
    bbox="-616 -571 2756 2209"
    underline-thickness="50"
    underline-position="-25"
    unicode-range="U+0020-U+FB02"
  />
<missing-glyph horiz-adv-x="1293" 
d="M120 0v1365h1053v-1365h-1053zM501 313q0 -47 33.5 -77t86.5 -30q55 0 88.5 29.5t33.5 77.5q0 49 -33.5 78.5t-88.5 29.5q-54 0 -87 -30t-33 -78zM339 888h169q1 59 34.5 94.5t90.5 35.5q54 0 87 -30t33 -80q0 -38 -20.5 -65.5t-82.5 -72.5q-69 -48 -96 -100t-22 -121
l1 -18h166v15q0 48 19 76t88 77q73 52 103 102t30 116q0 113 -81 181.5t-215 68.5q-143 0 -225.5 -76t-78.5 -203z" />
    <glyph glyph-name=".notdef" horiz-adv-x="1293" 
d="M120 0v1365h1053v-1365h-1053zM501 313q0 -47 33.5 -77t86.5 -30q55 0 88.5 29.5t33.5 77.5q0 49 -33.5 78.5t-88.5 29.5q-54 0 -87 -30t-33 -78zM339 888h169q1 59 34.5 94.5t90.5 35.5q54 0 87 -30t33 -80q0 -38 -20.5 -65.5t-82.5 -72.5q-69 -48 -96 -100t-22 -121
l1 -18h166v15q0 48 19 76t88 77q73 52 103 102t30 116q0 113 -81 181.5t-215 68.5q-143 0 -225.5 -76t-78.5 -203z" />
    <glyph glyph-name=".null" 
 />
    <glyph glyph-name="nonmarkingreturn" 
 />
    <glyph glyph-name="space" unicode=" " horiz-adv-x="546" 
 />
    <glyph glyph-name="exclam" unicode="!" horiz-adv-x="696" 
d="M209 1444h277l-23 -967h-231zM182 133q0 73 45 116.5t121 43.5t121 -43.5t45 -116.5q0 -72 -45 -115.5t-121 -43.5t-121 43.5t-45 115.5z" />
    <glyph glyph-name="quotedbl" unicode="&#x22;" horiz-adv-x="972" 
d="M379 857h-217v586h217v-586zM810 857h-217v586h217v-586z" />
    <glyph glyph-name="numbersign" unicode="#" horiz-adv-x="1337" 
d="M1232 873h-213l-59 -286h211l-37 -194h-212l-79 -393h-194l80 393h-260l-80 -393h-193l80 393h-210l39 194h210l58 286h-209l37 192h210l77 378h192l-76 -378h260l77 378h194l-78 -378h212zM558 886l-63 -312h278l65 312h-280z" />
    <glyph glyph-name="dollar" unicode="$" horiz-adv-x="1383" 
d="M765 -136h-138v129q-223 13 -352.5 124t-130.5 288h244q7 -84 71 -140t168 -67v426l-96 23q-174 43 -265 143t-91 250q0 177 120 287t332 128v138h138v-138q200 -18 321 -129t125 -280h-239q-2 77 -59.5 133t-147.5 68v-405l99 -21q190 -44 282.5 -142.5t92.5 -256.5
q0 -186 -124 -297.5t-350 -130.5v-130zM995 396q0 80 -56 129.5t-174 72.5v-402q110 7 170 59.5t60 140.5zM422 1061q0 -72 52.5 -120.5t152.5 -69.5v377q-89 -5 -147 -58t-58 -129z" />
    <glyph glyph-name="percent" unicode="%" horiz-adv-x="1668" 
d="M1271 139q57 0 91.5 52t34.5 139q0 89 -33.5 140t-92.5 51q-58 0 -92.5 -51.5t-34.5 -139.5t34.5 -139.5t92.5 -51.5zM1271 -30q-146 0 -236.5 100t-90.5 260t90.5 259.5t236.5 99.5q145 0 235.5 -99.5t90.5 -259.5q0 -161 -90.5 -260.5t-235.5 -99.5zM398 754
q-146 0 -237 100t-91 260t91 259.5t237 99.5t236 -99.5t90 -259.5t-90.5 -260t-235.5 -100zM457 0h-246l547 754l460 689h245l-556 -764zM398 923q57 0 91.5 52t34.5 140q0 89 -33.5 139.5t-92.5 50.5t-93 -51t-34 -139t34.5 -140t92.5 -52z" />
    <glyph glyph-name="ampersand" unicode="&#x26;" horiz-adv-x="1500" 
d="M1183 0l-119 127q-85 -73 -204 -113.5t-251 -40.5q-225 0 -362 111.5t-137 295.5q0 125 67 220t208 171q4 2 29.5 16t31.5 17q-98 102 -139 178t-41 155q0 144 112.5 238.5t282.5 94.5q171 0 281 -92.5t110 -237.5q0 -111 -72 -201.5t-228 -173.5l307 -325q57 106 57 309
v54h217v-66q0 -286 -121 -460l261 -277h-290zM524 641q-175 -93 -175 -241q0 -104 78.5 -168.5t206.5 -64.5q86 0 165.5 30t128.5 81l-359 385q-19 -7 -45 -22zM630 891q111 56 158.5 110t47.5 123q0 74 -48.5 120t-125.5 46q-76 0 -124.5 -46.5t-48.5 -119.5
q0 -53 31.5 -105t109.5 -128z" />
    <glyph glyph-name="quotesingle" unicode="'" horiz-adv-x="540" 
d="M379 857h-217v586h217v-586z" />
    <glyph glyph-name="parenleft" unicode="(" horiz-adv-x="775" 
d="M667 -277h-230q-129 162 -200 391.5t-71 485.5t66 454.5t214 387.5h224q-109 -126 -178.5 -362.5t-69.5 -478.5q0 -234 58.5 -444t186.5 -434z" />
    <glyph glyph-name="parenright" unicode=")" horiz-adv-x="775" 
d="M108 -277q128 224 186.5 434t58.5 444q0 243 -69.5 479t-178.5 362h225q148 -189 213.5 -387t65.5 -455q0 -256 -70.5 -485t-199.5 -392h-231z" />
    <glyph glyph-name="asterisk" unicode="*" horiz-adv-x="1037" 
d="M631 1064l256 -112l-84 -148l-226 161l26 -275h-169l26 275l-226 -161l-84 148l257 112l-257 116l84 150l227 -170l-27 283h169l-27 -283l227 170l84 -150z" />
    <glyph glyph-name="plus" unicode="+" horiz-adv-x="1383" 
d="M800 474v-419h-216v419h-421v218h421v418h216v-418h420v-218h-420z" />
    <glyph glyph-name="comma" unicode="," horiz-adv-x="688" 
d="M331 -381h-203l85 612h257z" />
    <glyph glyph-name="hyphen" unicode="-" horiz-adv-x="983" 
d="M820 465h-657v233h657v-233z" />
    <glyph glyph-name="period" unicode="." horiz-adv-x="674" 
d="M337 -21q-70 0 -115 45t-45 113q0 69 45 113.5t115 44.5q71 0 115.5 -44.5t44.5 -113.5q0 -68 -44.5 -113t-115.5 -45z" />
    <glyph glyph-name="slash" unicode="/" horiz-adv-x="750" 
d="M274 -302h-225l423 1745h229z" />
    <glyph glyph-name="zero" unicode="0" horiz-adv-x="1361" 
d="M681 -36q-260 0 -405.5 200t-145.5 559q0 357 146.5 556.5t404.5 199.5t404 -200t146 -558q0 -357 -145.5 -557t-404.5 -200zM681 178q138 0 213.5 140.5t75.5 404.5q0 262 -76 401.5t-213 139.5t-213.5 -140t-76.5 -401q0 -264 76 -404.5t214 -140.5z" />
    <glyph glyph-name="one" unicode="1" horiz-adv-x="1016" 
d="M499 0v1183h-17l-359 -252v248l377 264h257v-1443h-258z" />
    <glyph glyph-name="two" unicode="2" horiz-adv-x="1289" 
d="M137 1021q0 202 140.5 330t362.5 128q214 0 352.5 -117t138.5 -298q0 -116 -70 -229.5t-254 -295.5l-302 -303v-17h648v-219h-1002v179l481 492q148 150 197 225.5t49 151.5q0 95 -69.5 157t-176.5 62q-113 0 -183 -68t-70 -178v-4h-242v4z" />
    <glyph glyph-name="three" unicode="3" horiz-adv-x="1339" 
d="M482 640v200h176q110 0 179 60.5t69 157.5q0 96 -67.5 153.5t-180.5 57.5q-112 0 -181.5 -59t-76.5 -161h-241q10 199 146 314.5t361 115.5q210 0 349.5 -109.5t139.5 -275.5q0 -127 -70.5 -217t-190.5 -115v-17q148 -17 233.5 -111t85.5 -238q0 -186 -155.5 -309
t-390.5 -123q-233 0 -379.5 119t-156.5 317h247q8 -100 87 -159.5t204 -59.5q124 0 202.5 64.5t78.5 166.5q0 106 -77 167t-210 61h-181z" />
    <glyph glyph-name="four" unicode="4" horiz-adv-x="1377" 
d="M820 0v269h-705v230q176 324 588 944h364v-956h195v-218h-195v-269h-247zM354 496v-15h470v752h-14q-234 -346 -456 -737z" />
    <glyph glyph-name="five" unicode="5" horiz-adv-x="1326" 
d="M671 -36q-223 0 -366 122t-152 314h242q12 -99 89 -160t189 -61q127 0 205.5 78.5t78.5 207.5t-78.5 209.5t-203.5 80.5q-88 0 -156.5 -37t-108.5 -105h-234l75 830h869v-218h-669l-35 -405h17q100 135 305 135t336.5 -136t131.5 -348q0 -226 -147.5 -366.5
t-387.5 -140.5z" />
    <glyph glyph-name="six" unicode="6" horiz-adv-x="1366" 
d="M703 -35q-159 0 -281 73t-194 212q-102 180 -102 456q0 364 154.5 568.5t430.5 204.5q197 0 336.5 -107.5t171.5 -285.5h-258q-24 82 -91.5 129.5t-160.5 47.5q-158 0 -247 -139.5t-89 -387.5h17q51 103 149 159.5t225 56.5q206 0 340.5 -136t134.5 -344
q0 -223 -150.5 -365t-385.5 -142zM700 180q122 0 204 81.5t82 202.5q0 124 -80 203.5t-204 79.5t-205 -79t-81 -200q0 -123 81.5 -205.5t202.5 -82.5z" />
    <glyph glyph-name="seven" unicode="7" horiz-adv-x="1213" 
d="M210 0l629 1209v17h-726v217h984v-220l-617 -1223h-270z" />
    <glyph glyph-name="eight" unicode="8" horiz-adv-x="1380" 
d="M689 -36q-248 0 -403.5 117.5t-155.5 304.5q0 137 85 237.5t227 130.5v17q-115 28 -184.5 114.5t-69.5 202.5q0 171 141 281t361 110t360.5 -110t140.5 -281q0 -116 -68.5 -202t-184.5 -115v-17q141 -26 226.5 -126.5t85.5 -240.5q0 -188 -155.5 -305.5t-405.5 -117.5z
M690 165q130 0 211.5 67.5t81.5 175.5t-81.5 175.5t-211.5 67.5q-131 0 -212.5 -67.5t-81.5 -175.5t81.5 -175.5t212.5 -67.5zM690 849q110 0 178.5 59.5t68.5 154.5q0 97 -68.5 157.5t-178.5 60.5q-111 0 -179.5 -60.5t-68.5 -157.5q0 -95 69 -154.5t179 -59.5z" />
    <glyph glyph-name="nine" unicode="9" horiz-adv-x="1366" 
d="M655 -35q-198 0 -337 107.5t-171 285.5h257q25 -82 92.5 -129.5t160.5 -47.5q158 0 247 139.5t89 387.5h-9h-5h-3q-51 -103 -149 -159.5t-225 -56.5q-206 0 -340.5 136t-134.5 344q0 222 150.5 364.5t385.5 142.5q158 0 280 -73t195 -212q102 -181 102 -456
q0 -364 -155 -568.5t-430 -204.5zM664 697q124 0 205 79t81 200q0 122 -82 205t-203 83t-203 -81.5t-82 -202.5q0 -124 80 -203.5t204 -79.5z" />
    <glyph glyph-name="colon" unicode=":" horiz-adv-x="674" 
d="M337 -21q-70 0 -115 45t-45 113q0 69 45 113.5t115 44.5q71 0 115.5 -44.5t44.5 -113.5q0 -68 -44.5 -113t-115.5 -45zM337 729q-70 0 -115 44.5t-45 112.5q0 69 45 113.5t115 44.5q71 0 115.5 -44.5t44.5 -113.5q0 -68 -44.5 -112.5t-115.5 -44.5z" />
    <glyph glyph-name="semicolon" unicode=";" horiz-adv-x="674" 
d="M331 -381h-203l85 612h257zM337 729q-70 0 -115 44.5t-45 112.5q0 69 45 113.5t115 44.5q71 0 115.5 -44.5t44.5 -113.5q0 -68 -44.5 -112.5t-115.5 -44.5z" />
    <glyph glyph-name="less" unicode="&#x3c;" horiz-adv-x="1383" 
d="M1155 252v-260l-927 501v201l927 501v-260l-676 -333v-17z" />
    <glyph glyph-name="equal" unicode="=" horiz-adv-x="1383" 
d="M1216 251h-1049v219h1049v-219zM1216 697h-1049v219h1049v-219z" />
    <glyph glyph-name="greater" unicode="&#x3e;" horiz-adv-x="1383" 
d="M228 252l676 333v17l-676 333v260l927 -501v-201l-927 -501v260z" />
    <glyph glyph-name="question" unicode="?" horiz-adv-x="1108" 
d="M78 1046q6 183 128.5 296t339.5 113q204 0 330.5 -106t126.5 -273q0 -215 -212 -341q-98 -58 -133 -105.5t-35 -121.5v-57h-232l-1 68q-7 111 37.5 185t149.5 136q94 57 130 105.5t36 121.5q0 79 -58 129t-152 50q-96 0 -155 -54t-65 -146h-235zM518 -26
q-75 0 -120.5 43.5t-45.5 115.5q0 73 45.5 116.5t120.5 43.5q76 0 121 -43.5t45 -116.5q0 -72 -45 -115.5t-121 -43.5z" />
    <glyph glyph-name="at" unicode="@" horiz-adv-x="1892" 
d="M937 851q-87 0 -136 -65.5t-49 -181.5q0 -115 49 -181t135 -66q89 0 141 66.5t52 180.5t-51.5 180.5t-140.5 66.5zM971 1445q177 0 327 -54.5t255 -151t164 -234.5t59 -301q0 -241 -104.5 -382t-282.5 -141q-91 0 -154 44t-77 117h-18q-64 -156 -243 -156
q-156 0 -251.5 116.5t-95.5 306.5q0 182 95 296.5t246 114.5q80 0 142 -37.5t91 -104.5h18v121h183v-551q0 -53 26.5 -82.5t75.5 -29.5q83 0 132 97t49 261q0 271 -177.5 436.5t-468.5 165.5t-476 -193.5t-185 -497.5q0 -310 188.5 -493.5t508.5 -183.5q197 0 295 39v-150
q-133 -40 -305 -40q-257 0 -451 102.5t-299 291.5t-105 439q0 245 105.5 435t296 295t436.5 105z" />
    <glyph glyph-name="A" unicode="A" horiz-adv-x="1456" 
d="M1109 0l-122 369h-531l-124 -369h-261l512 1443h290l513 -1443h-277zM714 1168l-198 -595h411l-196 595h-17z" />
    <glyph glyph-name="B" unicode="B" horiz-adv-x="1393" 
d="M795 0h-617v1443h603q205 0 322 -96.5t117 -263.5q0 -114 -74 -203t-183 -106v-18q146 -14 237 -109.5t91 -236.5q0 -190 -132.5 -300t-363.5 -110zM436 1238v-402h249q137 0 208.5 51.5t71.5 149.5q0 95 -65 148t-182 53h-282zM436 205h300q143 0 217 57.5t74 167.5
q0 108 -76.5 164t-224.5 56h-290v-445z" />
    <glyph glyph-name="C" unicode="C" horiz-adv-x="1499" 
d="M780 -36q-307 0 -485 203.5t-178 553.5q0 352 177.5 555t484.5 203q246 0 417 -144.5t194 -370.5h-254q-27 130 -124 207.5t-233 77.5q-184 0 -291 -141.5t-107 -385.5t107 -386t292 -142q137 0 234 71.5t123 192.5h254q-26 -222 -194 -358t-417 -136z" />
    <glyph glyph-name="D" unicode="D" horiz-adv-x="1514" 
d="M178 1443h541q322 0 500.5 -187.5t178.5 -527.5q0 -347 -177.5 -537.5t-501.5 -190.5h-541v1443zM436 1220v-997h249q216 0 333 130t117 371q0 236 -118.5 366t-331.5 130h-249z" />
    <glyph glyph-name="E" unicode="E" horiz-adv-x="1254" 
d="M1112 223v-223h-934v1443h934v-223h-676v-383h639v-210h-639v-404h676z" />
    <glyph glyph-name="F" unicode="F" horiz-adv-x="1205" 
d="M436 0h-258v1443h920v-223h-662v-420h605v-215h-605v-585z" />
    <glyph glyph-name="G" unicode="G" horiz-adv-x="1547" 
d="M1426 578q0 -281 -171 -447.5t-460 -166.5q-314 0 -496 203.5t-182 554.5q0 346 183 551.5t491 205.5q250 0 419 -132t204 -353h-257q-39 123 -133.5 189t-232.5 66q-189 0 -299.5 -141t-110.5 -384q0 -246 112.5 -388t305.5 -142q165 0 268 92t106 241l1 30h-347v202
h599v-181z" />
    <glyph glyph-name="H" unicode="H" horiz-adv-x="1573" 
d="M1395 0h-257v623h-702v-623h-258v1443h258v-597h702v597h257v-1443z" />
    <glyph glyph-name="I" unicode="I" horiz-adv-x="614" 
d="M436 0h-258v1443h258v-1443z" />
    <glyph glyph-name="J" unicode="J" horiz-adv-x="1184" 
d="M79 393h252q1 -89 58 -143t149 -54q102 0 156 60.5t54 176.5v1010h258v-1012q0 -222 -123 -344.5t-342 -122.5q-208 0 -335 117t-127 312z" />
    <glyph glyph-name="K" unicode="K" horiz-adv-x="1415" 
d="M436 0h-258v1443h258v-664h17l569 664h296l-545 -629l588 -814h-315l-456 637l-154 -177v-460z" />
    <glyph glyph-name="L" unicode="L" horiz-adv-x="1198" 
d="M1098 226v-226h-920v1443h258v-1217h662z" />
    <glyph glyph-name="M" unicode="M" horiz-adv-x="1846" 
d="M418 0h-240v1443h302l434 -1051h18l434 1051h302v-1443h-240v1015h-14l-399 -959h-184l-399 959h-14v-1015z" />
    <glyph glyph-name="N" unicode="N" horiz-adv-x="1554" 
d="M427 0h-249v1443h224l708 -981h17v981h248v-1443h-223l-708 982h-17v-982z" />
    <glyph glyph-name="O" unicode="O" horiz-adv-x="1599" 
d="M801 1479q314 0 497.5 -204t183.5 -553t-183 -553.5t-498 -204.5q-317 0 -500.5 204t-183.5 554q0 349 184.5 553t499.5 204zM801 1250q-193 0 -306.5 -143t-113.5 -385q0 -243 112.5 -386t307.5 -143q192 0 304.5 143.5t112.5 385.5t-112.5 385t-304.5 143z" />
    <glyph glyph-name="P" unicode="P" horiz-adv-x="1351" 
d="M178 1443h582q216 0 350.5 -135t134.5 -353q0 -214 -138.5 -348t-357.5 -134h-313v-473h-258v1443zM436 1227v-540h255q139 0 215.5 70t76.5 198q0 132 -75.5 202t-215.5 70h-256z" />
    <glyph glyph-name="Q" unicode="Q" horiz-adv-x="1599" 
d="M1424 -149h-259l-110 153q-117 -40 -254 -40q-317 0 -500.5 203t-183.5 554q0 350 184.5 554t499.5 204q313 0 497 -204t184 -554q0 -201 -61.5 -356.5t-176.5 -247.5zM801 193q62 0 122 17l-173 246h248l91 -114q129 120 129 379q0 243 -113 386t-304 143
q-193 0 -306.5 -142.5t-113.5 -386.5q0 -243 113.5 -385.5t306.5 -142.5z" />
    <glyph glyph-name="R" unicode="R" horiz-adv-x="1391" 
d="M436 1229v-483h298q123 0 190.5 63t67.5 178q0 113 -70.5 177.5t-193.5 64.5h-292zM436 541v-541h-258v1443h586q227 0 360 -121.5t133 -329.5q0 -144 -72 -254.5t-200 -156.5l315 -581h-295l-283 541h-286z" />
    <glyph glyph-name="S" unicode="S" horiz-adv-x="1354" 
d="M112 392h252q12 -97 101 -154.5t226 -57.5q128 0 210.5 58.5t82.5 149.5q0 78 -62.5 127t-201.5 81l-187 43q-196 44 -290.5 143.5t-94.5 260.5q0 197 147.5 316.5t389.5 119.5q227 0 376 -118t158 -304h-247q-13 95 -91 151t-197 56q-125 0 -200.5 -55.5t-75.5 -147.5
q0 -73 59 -118.5t193 -76.5l166 -38q219 -49 317.5 -146t98.5 -262q0 -211 -152.5 -333.5t-414.5 -122.5q-248 0 -400.5 116t-162.5 312z" />
    <glyph glyph-name="T" unicode="T" horiz-adv-x="1332" 
d="M795 0h-258v1220h-444v223h1147v-223h-445v-1220z" />
    <glyph glyph-name="U" unicode="U" horiz-adv-x="1549" 
d="M439 1443v-922q0 -149 89 -237.5t247 -88.5t246.5 88.5t88.5 237.5v922h258v-946q0 -239 -161 -386t-432 -147t-432 147t-161 386v946h257z" />
    <glyph glyph-name="V" unicode="V" horiz-adv-x="1442" 
d="M872 0h-297l-504 1443h285l363 -1142h17l360 1142h275z" />
    <glyph glyph-name="W" unicode="W" horiz-adv-x="2036" 
d="M1010 1022l-292 -1022h-243l-387 1443h269l247 -1074h15l284 1074h229l288 -1074h14l247 1074h267l-387 -1443h-242l-294 1022h-15z" />
    <glyph glyph-name="X" unicode="X" horiz-adv-x="1456" 
d="M89 0l472 727l-468 716h305l329 -530h17l334 530h290l-484 -722l476 -721h-298l-335 518h-17l-340 -518h-281z" />
    <glyph glyph-name="Y" unicode="Y" horiz-adv-x="1412" 
d="M835 0h-258v564l-506 879h283l344 -617h17l343 617h283l-506 -879v-564z" />
    <glyph glyph-name="Z" unicode="Z" horiz-adv-x="1373" 
d="M138 0v176l759 1027v17h-738v223h1057v-176l-756 -1027v-17h775v-223h-1097z" />
    <glyph glyph-name="bracketleft" unicode="[" horiz-adv-x="815" 
d="M166 1444h530v-191h-290v-1302h303v-191h-543v1684z" />
    <glyph glyph-name="backslash" unicode="\" horiz-adv-x="750" 
d="M476 -302l-427 1745h229l423 -1745h-225z" />
    <glyph glyph-name="bracketright" unicode="]" horiz-adv-x="815" 
d="M648 1444v-1684h-542v191h303v1302h-290v191h529z" />
    <glyph glyph-name="asciicircum" unicode="^" horiz-adv-x="1036" 
d="M509 1242l-196 -451h-222l310 646h234l311 -646h-223l-196 451h-18z" />
    <glyph glyph-name="underscore" unicode="_" horiz-adv-x="934" 
d="M939 -298h-944v191h944v-191z" />
    <glyph glyph-name="grave" unicode="`" horiz-adv-x="1096" 
d="M810 1275h-242l-284 347h277z" />
    <glyph glyph-name="a" unicode="a" horiz-adv-x="1179" 
d="M526 177q112 0 187 64.5t75 159.5v87l-247 -16q-204 -13 -204 -148q0 -68 52.5 -107.5t136.5 -39.5zM453 -18q-160 0 -261 90t-101 238t107.5 232t307.5 96l282 17v92q0 81 -53 124t-153 43q-86 0 -142 -29.5t-73 -84.5h-234q15 145 140.5 230.5t320.5 85.5
q210 0 324.5 -97t114.5 -272v-747h-239v150h-17q-46 -79 -131.5 -123.5t-192.5 -44.5z" />
    <glyph glyph-name="b" unicode="b" horiz-adv-x="1306" 
d="M760 -18q-115 0 -205 50.5t-137 140.5h-17v-173h-239v1517h248v-597h17q43 89 132 140.5t201 51.5q208 0 328.5 -151.5t120.5 -413.5q0 -261 -121 -413t-328 -152zM682 901q-127 0 -201.5 -95.5t-74.5 -258.5q0 -164 74.5 -259t201.5 -95t199.5 94.5t72.5 259.5
t-72.5 259.5t-199.5 94.5z" />
    <glyph glyph-name="c" unicode="c" horiz-adv-x="1182" 
d="M1097 726h-236q-18 83 -80 132.5t-161 49.5q-128 0 -199.5 -94t-71.5 -264q0 -172 72 -268t199 -96q97 0 159.5 45t81.5 130h236q-21 -175 -146.5 -279t-329.5 -104q-247 0 -385 151t-138 421q0 267 138 416.5t384 149.5q206 0 331.5 -106.5t145.5 -283.5z" />
    <glyph glyph-name="d" unicode="d" horiz-adv-x="1306" 
d="M548 -18q-208 0 -329 152.5t-121 413.5q0 259 121.5 411.5t328.5 152.5q112 0 200 -51t132 -141h17v597h248v-1517h-240v173h-17q-47 -90 -136.5 -140.5t-203.5 -50.5zM625 901q-127 0 -200 -94.5t-73 -259.5q0 -166 72.5 -260t200.5 -94t201.5 94.5t73.5 259.5
q0 164 -74 259t-201 95z" />
    <glyph glyph-name="e" unicode="e" horiz-adv-x="1208" 
d="M611 919q-111 0 -183 -73t-80 -193h515q-4 122 -72 194t-180 72zM865 301h235q-35 -150 -164.5 -236.5t-321.5 -86.5q-241 0 -378.5 150.5t-137.5 414.5t138 418.5t376 154.5q234 0 366.5 -146.5t132.5 -405.5v-80h-764v-13q5 -137 78.5 -216.5t195.5 -79.5
q188 0 244 126z" />
    <glyph glyph-name="f" unicode="f" horiz-adv-x="801" 
d="M231 0v889h-178v198h178v109q0 164 86.5 238t268.5 74q62 0 131 -11v-185q-35 8 -95 8q-148 0 -148 -140v-93h237v-198h-233v-889h-247z" />
    <glyph glyph-name="g" unicode="g" horiz-adv-x="1295" 
d="M899 559q0 157 -74 249.5t-203 92.5q-128 0 -199.5 -92t-71.5 -250t71 -249.5t200 -91.5t203 92t74 249zM622 -416q-209 0 -339.5 85t-145.5 227h249q12 -57 75.5 -90t164.5 -33q127 0 198 57t71 160v207h-17q-47 -88 -133.5 -134.5t-200.5 -46.5q-206 0 -327 147.5
t-121 395.5q0 252 122 402.5t330 150.5q112 0 203 -52t136 -141h17v175h239v-1098q0 -190 -141 -301t-380 -111z" />
    <glyph glyph-name="h" unicode="h" horiz-adv-x="1297" 
d="M162 0v1517h244v-600h18q39 92 130.5 144.5t213.5 52.5q184 0 285.5 -106.5t101.5 -301.5v-706h-247v647q0 124 -59 187.5t-173 63.5q-122 0 -194 -72t-72 -191v-635h-248z" />
    <glyph glyph-name="i" unicode="i" horiz-adv-x="557" 
d="M155 0v1094h247v-1094h-247zM278 1272q-67 0 -110 38.5t-43 98.5t43 98.5t110 38.5q68 0 110.5 -38.5t42.5 -98.5t-42.5 -98.5t-110.5 -38.5z" />
    <glyph glyph-name="j" unicode="j" horiz-adv-x="557" 
d="M402 1094v-1144q0 -333 -368 -333q-46 0 -60 2v196q3 -1 32 -1q82 0 115.5 32.5t33.5 107.5v1140h247zM278 1272q-67 0 -110 38.5t-43 98.5t43 98.5t110 38.5q68 0 110.5 -38.5t42.5 -98.5t-42.5 -98.5t-110.5 -38.5z" />
    <glyph glyph-name="k" unicode="k" horiz-adv-x="1188" 
d="M427 648l404 446h288l-436 -469l466 -625h-300l-351 469l-88 -88v-381h-248v1517h248v-869h17z" />
    <glyph glyph-name="l" unicode="l" horiz-adv-x="571" 
d="M162 0v1517h248v-1517h-248z" />
    <glyph glyph-name="m" unicode="m" horiz-adv-x="1856" 
d="M152 0v1094h239v-177h17q35 94 115 146.5t189 52.5q111 0 189 -52.5t113 -146.5h17q41 91 130 145t202 54q164 0 257.5 -97t93.5 -267v-752h-247v689q0 211 -200 211q-96 0 -155 -62t-59 -157v-681h-241v707q0 90 -53 141.5t-145 51.5t-153 -67t-61 -168v-665h-248z" />
    <glyph glyph-name="n" unicode="n" horiz-adv-x="1275" 
d="M152 0v1094h239v-175h17q39 92 130.5 144.5t213.5 52.5q183 0 282 -106t99 -302v-708h-247v649q0 251 -226 251q-120 0 -190 -71t-70 -192v-637h-248z" />
    <glyph glyph-name="o" unicode="o" horiz-adv-x="1248" 
d="M624 186q130 0 200.5 94.5t70.5 266.5q0 171 -71 266t-200 95q-130 0 -201 -95t-71 -266q0 -172 71 -266.5t201 -94.5zM624 -22q-246 0 -386 151.5t-140 417.5q0 264 141 416.5t385 152.5q245 0 385.5 -152t140.5 -417q0 -266 -140.5 -417.5t-385.5 -151.5z" />
    <glyph glyph-name="p" unicode="p" horiz-adv-x="1296" 
d="M748 1112q208 0 329.5 -151t121.5 -414q0 -262 -120.5 -413.5t-327.5 -151.5q-117 0 -204.5 48.5t-129.5 135.5h-17v-516h-248v1444h239v-181h17q47 93 137.5 146t202.5 53zM670 193q129 0 201.5 94t72.5 260t-72.5 260t-200.5 94q-127 0 -201 -95t-75 -259
q1 -164 74.5 -259t200.5 -95z" />
    <glyph glyph-name="q" unicode="q" horiz-adv-x="1296" 
d="M549 1112q111 0 202 -53.5t136 -145.5h17v181h241v-1444h-250v516h-17q-48 -89 -133 -136.5t-200 -47.5q-207 0 -327 152.5t-120 413.5q0 259 122 411.5t329 152.5zM623 193q128 0 202.5 95t74.5 259q0 163 -74.5 258.5t-201.5 95.5t-199.5 -94t-72.5 -260
q0 -167 72 -260.5t199 -93.5z" />
    <glyph glyph-name="r" unicode="r" horiz-adv-x="840" 
d="M152 0v1094h239v-170h17q23 82 103 135t184 53q64 0 102 -11v-230q-38 14 -126 14q-120 0 -195.5 -69.5t-75.5 -183.5v-632h-248z" />
    <glyph glyph-name="s" unicode="s" horiz-adv-x="1128" 
d="M127 781q0 148 122 241.5t316 93.5q195 0 311.5 -82.5t129.5 -231.5h-233q-14 59 -67.5 92.5t-139.5 33.5t-142 -37t-56 -96q0 -46 39.5 -76t122.5 -49l193 -44q158 -36 232 -107t74 -191q0 -157 -130 -253.5t-336 -96.5q-205 0 -327.5 84t-136.5 233h245
q18 -62 75.5 -95.5t149.5 -33.5q94 0 153 37.5t59 98.5q0 91 -151 124l-194 45q-158 36 -233.5 111.5t-75.5 198.5z" />
    <glyph glyph-name="t" unicode="t" horiz-adv-x="808" 
d="M231 1355h247v-268h240v-198h-240v-537q0 -81 36 -118.5t114 -37.5q34 0 82 5v-194q-60 -12 -128 -12q-188 0 -269.5 69t-81.5 228v597h-178v198h178v268z" />
    <glyph glyph-name="u" unicode="u" horiz-adv-x="1279" 
d="M1127 1094v-1094h-239v174h-17q-40 -94 -128.5 -145t-210.5 -51q-182 0 -286 107.5t-104 300.5v708h248v-649q0 -249 228 -249q120 0 190.5 70t70.5 191v637h248z" />
    <glyph glyph-name="v" unicode="v" horiz-adv-x="1163" 
d="M57 1094h266l253 -846h17l251 846h262l-387 -1094h-273z" />
    <glyph glyph-name="w" unicode="w" horiz-adv-x="1681" 
d="M1617 1094l-296 -1094h-261l-213 788h-17l-212 -788h-258l-296 1094h250l182 -817h17l210 817h237l212 -817h17l181 817h247z" />
    <glyph glyph-name="x" unicode="x" horiz-adv-x="1149" 
d="M578 377h-17l-224 -377h-267l354 543l-357 551h287l218 -376h17l216 376h273l-353 -541l357 -553h-280z" />
    <glyph glyph-name="y" unicode="y" horiz-adv-x="1183" 
d="M272 -398q-77 0 -98 4v202q21 -3 68 -3q79 0 125.5 33.5t70.5 108.5l13 48l-391 1099h272l256 -854h17l255 854h262l-395 -1129q-70 -203 -170.5 -283t-284.5 -80z" />
    <glyph glyph-name="z" unicode="z" horiz-adv-x="1140" 
d="M127 0v155l581 722v17h-576v200h872v-169l-560 -708v-17h569v-200h-886z" />
    <glyph glyph-name="braceleft" unicode="{" horiz-adv-x="889" 
d="M340 603q97 -9 147.5 -73t50.5 -178v-286q0 -118 49 -165t172 -47h45v-191h-88q-216 0 -315.5 89.5t-99.5 284.5v244q0 117 -37.5 162.5t-134.5 45.5v246q96 0 134 46t38 163v211q0 190 99 277t316 87h88v-191h-45q-124 0 -172.5 -46.5t-48.5 -165.5v-258
q0 -219 -198 -238v-17z" />
    <glyph glyph-name="bar" unicode="|" horiz-adv-x="722" 
d="M473 -303h-224v1746h224v-1746z" />
    <glyph glyph-name="braceright" unicode="}" horiz-adv-x="889" 
d="M549 603v17q-197 19 -197 238v258q0 118 -49 165t-173 47h-45v191h89q217 0 315.5 -86.5t98.5 -277.5v-211q0 -117 38 -163t134 -46v-246q-96 0 -134 -45.5t-38 -162.5v-244q0 -195 -99.5 -284.5t-314.5 -89.5h-89v191h45q123 0 172.5 47t49.5 165v286q0 114 50 178
t147 73z" />
    <glyph glyph-name="asciitilde" unicode="~" horiz-adv-x="1216" 
d="M562 627q-49 49 -81 68.5t-64 19.5q-120 0 -127 -178h-203q-1 8 -1 24q-1 174 84 275t232 101q67 0 125.5 -30t129.5 -99q48 -48 80 -67.5t63 -19.5q119 0 127 179h203v-24q1 -174 -83.5 -275t-230.5 -101q-67 0 -126 29.5t-128 97.5z" />
    <glyph glyph-name="nonbreakingspace" unicode="&#xa0;" horiz-adv-x="546" 
 />
    <glyph glyph-name="exclamdown" unicode="&#xa1;" horiz-adv-x="696" 
d="M209 -329l23 967h231l23 -967h-277zM182 982q0 72 45 115t121 43t121 -43t45 -115q0 -73 -45 -116.5t-121 -43.5t-121 43.5t-45 116.5z" />
    <glyph glyph-name="cent" unicode="&#xa2;" horiz-adv-x="1383" 
d="M1221 521q-18 -153 -127.5 -252.5t-279.5 -123.5v-178h-217v182q-198 35 -318 184.5t-120 375.5q0 224 120 372.5t318 182.5v183h217v-179q166 -27 277.5 -129t129.5 -253h-236q-25 84 -97 132.5t-172 48.5q-132 0 -218.5 -97t-86.5 -261q0 -166 86.5 -264.5t217.5 -98.5
q109 0 179.5 46t90.5 129h236z" />
    <glyph glyph-name="sterling" unicode="&#xa3;" horiz-adv-x="1383" 
d="M1237 220v-220h-1101v208q133 23 218 116t86 217q0 47 -15 99h-287v188h228q-60 148 -60 250q0 189 143.5 295t399.5 106q185 0 319 -37v-212q-139 37 -288 37q-146 0 -230.5 -59.5t-84.5 -163.5q0 -93 49 -216h437v-188h-379q13 -49 13 -95q3 -94 -44 -177.5
t-131 -130.5v-17h727z" />
    <glyph glyph-name="currency" unicode="&#xa4;" horiz-adv-x="1383" 
d="M447 651q0 -100 72.5 -172t172.5 -72q101 0 173.5 72t72.5 172t-72.5 172t-173.5 72q-100 0 -172.5 -72t-72.5 -172zM1215 1029l-155 -156q61 -102 61 -222t-61 -222l155 -156l-145 -148l-156 156q-101 -63 -222 -63q-122 0 -223 64l-156 -157l-144 148l156 156
q-61 102 -61 222t61 222l-156 156l144 148l156 -156q102 63 223 63t222 -63l156 156z" />
    <glyph glyph-name="yen" unicode="&#xa5;" horiz-adv-x="1383" 
d="M1094 229h-274v-229h-257v229h-273v157h273v145h-273v157h205l-438 755h283l343 -617h18l343 617h282l-438 -755h206v-157h-274v-145h274v-157z" />
    <glyph glyph-name="brokenbar" unicode="&#xa6;" horiz-adv-x="722" 
d="M473 774h-224v669h224v-669zM473 -303h-224v670h224v-670z" />
    <glyph glyph-name="section" unicode="&#xa7;" horiz-adv-x="1032" 
d="M459 434l99 -30q72 5 120.5 50t48.5 107q0 53 -39.5 91.5t-112.5 57.5l-100 31q-71 -6 -120 -52t-49 -106q0 -52 40 -91t113 -58zM517 -276q-181 0 -299.5 89.5t-126.5 232.5h225q8 -60 65.5 -97.5t141.5 -37.5q86 0 140 38.5t54 99.5q0 48 -39.5 80t-127.5 57l-163 52
q-161 50 -234 120.5t-73 176.5q0 94 58 164.5t161 101.5v17q-108 47 -159.5 113.5t-51.5 160.5q0 148 117 238t308 90q178 0 291.5 -85.5t126.5 -229.5h-222q-9 58 -63 93t-136 35q-85 0 -137.5 -38t-52.5 -99q0 -48 38.5 -80t126.5 -58l159 -52q161 -50 234.5 -119.5
t73.5 -171.5q0 -99 -66.5 -176.5t-173.5 -102.5v-18q120 -38 177 -102t57 -161q0 -147 -119 -239t-310 -92z" />
    <glyph glyph-name="dieresis" unicode="&#xa8;" horiz-adv-x="1145" 
d="M350 1265q-61 0 -102 40.5t-41 100.5t41 100.5t102 40.5t102 -40.5t41 -100.5t-41 -100.5t-102 -40.5zM795 1265q-61 0 -102 40.5t-41 100.5t41 100.5t102 40.5t102 -40.5t41 -100.5t-41 -100.5t-102 -40.5z" />
    <glyph glyph-name="copyright" unicode="&#xa9;" horiz-adv-x="1742" 
d="M871 -148q-163 0 -309.5 62t-252 167t-167 252t-61.5 310q0 218 104.5 399.5t286 286t399.5 104.5q164 0 310.5 -61.5t251.5 -166.5t166.5 -251.5t61.5 -310.5q0 -219 -104.5 -400.5t-286 -286t-399.5 -104.5zM871 9q132 0 249.5 49.5t202 134t134 202t49.5 248.5
q0 176 -83.5 321.5t-229.5 229t-322 83.5q-132 0 -249.5 -49.5t-202 -134t-134 -202t-49.5 -248.5q0 -175 84 -321t230 -229.5t321 -83.5zM1242 762h-170q-14 63 -64 100t-120 37q-96 0 -152 -68t-56 -187q0 -120 55.5 -189t152.5 -69q74 0 122 34.5t62 97.5h170
q-16 -130 -111.5 -205.5t-242.5 -75.5q-179 0 -283.5 110t-104.5 297q0 186 104.5 295t281.5 109q145 0 242 -78t114 -208z" />
    <glyph glyph-name="ordfeminine" unicode="&#xaa;" horiz-adv-x="999" 
d="M471 678q85 0 141.5 50.5t56.5 126.5v80l-189 -14q-161 -11 -161 -121q0 -56 41 -89t111 -33zM391 503q-136 0 -218 77.5t-82 206.5q0 125 91 197t264 82l221 13v77q0 59 -43.5 92t-120.5 33q-65 0 -107 -24.5t-51 -67.5h-220q10 127 114 201t272 74q179 0 280.5 -83.5
t101.5 -230.5v-626h-220v115h-17q-35 -64 -105 -100t-160 -36z" />
    <glyph glyph-name="guillemotleft" unicode="&#xab;" horiz-adv-x="1426" 
d="M913 572v-12l348 -411h-250l-347 412v8l350 413h247zM413 572v-12l348 -411h-249l-347 412v8l350 413h246z" />
    <glyph glyph-name="logicalnot" unicode="&#xac;" horiz-adv-x="1383" 
d="M1197 692v-608h-217v390h-793v218h1010z" />
    <glyph glyph-name="registered" unicode="&#xae;" horiz-adv-x="1260" 
d="M630 415q-144 0 -265.5 70.5t-191.5 191.5t-70 265q0 108 41.5 206t112 168.5t168 112t205.5 41.5t205.5 -41.5t168 -112t112 -168.5t41.5 -206q0 -144 -70 -265t-191.5 -191.5t-265.5 -70.5zM630 539q169 0 287 117.5t118 285.5q0 169 -118 286.5t-287 117.5
t-287 -117.5t-118 -286.5q0 -168 118 -285.5t287 -117.5zM539 706h-115v491h253q78 0 128 -43.5t50 -111.5q0 -57 -28 -96t-80 -53l131 -187h-138l-118 171h-83v-171zM539 1099v-130h108q83 0 83 66q0 64 -80 64h-111z" />
    <glyph glyph-name="macron" unicode="&#xaf;" horiz-adv-x="1048" 
d="M880 1305h-712v164h712v-164z" />
    <glyph glyph-name="degree" unicode="&#xb0;" horiz-adv-x="892" 
d="M446 778q-142 0 -239 98.5t-97 238.5t97 238.5t239 98.5t238.5 -98.5t96.5 -238.5t-96.5 -238.5t-238.5 -98.5zM446 938q79 0 129.5 51.5t50.5 125.5q0 75 -51 126.5t-129 51.5q-79 0 -129.5 -51.5t-50.5 -126.5q0 -74 50.5 -125.5t129.5 -51.5z" />
    <glyph glyph-name="plusminus" unicode="&#xb1;" horiz-adv-x="1383" 
d="M1193 86h-1004v197h1004v-197zM798 654v-255h-213v255h-396v192h396v255h213v-255h397v-192h-397z" />
    <glyph glyph-name="two.sups" unicode="&#xb2;" horiz-adv-x="881" 
d="M85 1533q0 138 97 222.5t255 84.5q153 0 246.5 -75.5t93.5 -198.5q0 -82 -50 -157.5t-176 -180.5l-140 -129v-18h380v-184h-691v160l286 265q101 90 134.5 135t33.5 90q0 49 -36 81t-91 32q-59 0 -95 -35t-36 -92v-4h-211v4z" />
    <glyph glyph-name="three.sups" unicode="&#xb3;" horiz-adv-x="915" 
d="M338 1286v157h112q59 0 94.5 29.5t35.5 79.5q0 49 -36 78t-96 29q-61 0 -98.5 -31.5t-40.5 -85.5h-210q2 135 98 215.5t256 80.5q151 0 246.5 -70t95.5 -181q0 -79 -47.5 -135.5t-125.5 -70.5v-17q95 -8 151.5 -66.5t56.5 -148.5q0 -122 -105 -200t-271 -78
q-164 0 -264.5 82.5t-102.5 219.5h213q4 -53 45 -85t108 -32q65 0 106 32t41 84q0 53 -39 83.5t-109 30.5h-114z" />
    <glyph glyph-name="acute" unicode="&#xb4;" horiz-adv-x="1096" 
d="M269 1275l249 347h277l-284 -347h-242z" />
    <glyph glyph-name="paragraph" unicode="&#xb6;" horiz-adv-x="1486" 
d="M918 -245h-244v736h-20q-216 0 -360.5 135t-144.5 336q0 209 143 345t363 136h263v-1688zM1079 -245v1688h243v-1688h-243z" />
    <glyph glyph-name="periodcentered" unicode="&#xb7;" horiz-adv-x="689" 
d="M345 570q-76 0 -122 46t-46 120q0 73 46 119t122 46t121.5 -46t45.5 -119q0 -74 -45.5 -120t-121.5 -46z" />
    <glyph glyph-name="cedilla" unicode="&#xb8;" horiz-adv-x="1096" 
d="M401 -242v104l58 142h159l-51 -127q98 -4 150.5 -48.5t52.5 -123.5q0 -92 -68 -145.5t-191 -53.5q-89 0 -146 18v124q44 -14 118 -14q114 0 114 64q0 32 -32 46t-105 14h-59z" />
    <glyph glyph-name="one.sups" unicode="&#xb9;" horiz-adv-x="726" 
d="M548 897h-227v702h-17q-10 -5 -113 -75t-105 -72v205q72 53 233 159h229v-919z" />
    <glyph glyph-name="ordmasculine" unicode="&#xba;" horiz-adv-x="1077" 
d="M538 692q100 0 155 76t55 215t-55 215.5t-155 76.5t-155 -77t-55 -215q0 -139 55 -215t155 -76zM538 503q-209 0 -327.5 127.5t-118.5 352.5q0 223 119.5 351t326.5 128q208 0 327 -128t119 -351q0 -225 -118.5 -352.5t-327.5 -127.5z" />
    <glyph glyph-name="guillemotright" unicode="&#xbb;" horiz-adv-x="1426" 
d="M514 572l-349 410h247l350 -413v-8l-347 -412h-250l349 411v12zM1013 572l-348 410h247l349 -413v-8l-347 -412h-249l348 411v12z" />
    <glyph glyph-name="onequarter" unicode="&#xbc;" horiz-adv-x="2133" 
d="M1617 919h318v-592h114v-174h-120v-153h-207v147h-471v187q48 95 124.5 217.5t241.5 367.5zM1451 326v-5h272v424h-11q-194 -295 -261 -419zM548 524h-227v702h-17q-10 -5 -113 -75t-105 -72v205q72 53 233 159h229v-919zM546 0l372 752l304 691h235l-369 -734l-308 -709
h-234z" />
    <glyph glyph-name="onehalf" unicode="&#xbd;" horiz-adv-x="2136" 
d="M1340 636q0 138 97 222.5t255 84.5q153 0 246.5 -75.5t93.5 -198.5q0 -82 -50 -157.5t-176 -180.5l-140 -129v-18h380v-184h-691v160l286 265q101 90 134.5 135t33.5 90q0 49 -36 81t-91 32q-59 0 -95 -35t-36 -92v-4h-211v4zM548 524h-227v702h-17q-10 -5 -113 -75
t-105 -72v205q72 53 233 159h229v-919zM546 0l372 752l304 691h235l-369 -734l-308 -709h-234z" />
    <glyph glyph-name="threequarters" unicode="&#xbe;" horiz-adv-x="2304" 
d="M338 913v157h112q59 0 94.5 29.5t35.5 79.5q0 49 -36 78t-96 29q-61 0 -98.5 -31.5t-40.5 -85.5h-210q2 135 98 215.5t256 80.5q151 0 246.5 -70t95.5 -181q0 -79 -47.5 -135.5t-125.5 -70.5v-17q95 -8 151.5 -66.5t56.5 -148.5q0 -122 -105 -200t-271 -78
q-164 0 -264.5 82.5t-102.5 219.5h213q4 -53 45 -85t108 -32q65 0 106 32t41 84q0 53 -39 83.5t-109 30.5h-114zM1788 919h318v-592h114v-174h-120v-153h-207v147h-471v187q48 95 124.5 217.5t241.5 367.5zM1622 326v-5h272v424h-11q-194 -295 -261 -419zM717 0l372 752
l304 691h235l-369 -734l-308 -709h-234z" />
    <glyph glyph-name="questiondown" unicode="&#xbf;" horiz-adv-x="1108" 
d="M1030 68q-5 -184 -128 -297t-339 -113q-205 0 -331.5 106.5t-126.5 274.5q0 212 212 339q98 58 132.5 105.5t34.5 122.5v57h232l1 -68q7 -111 -37 -185t-149 -137q-94 -56 -130 -104.5t-36 -120.5q0 -79 58 -129.5t153 -50.5t154 54t65 146h235zM590 821q-76 0 -121 43.5
t-45 115.5t45 116t121 44t121 -44t45 -116t-45 -115.5t-121 -43.5z" />
    <glyph glyph-name="Agrave" unicode="&#xc0;" horiz-adv-x="1456" 
d="M1109 0l-122 369h-531l-124 -369h-261l512 1443h290l513 -1443h-277zM714 1168l-198 -595h411l-196 595h-17zM571 1895l288 -310h-250l-321 310h283z" />
    <glyph glyph-name="Aacute" unicode="&#xc1;" horiz-adv-x="1456" 
d="M1109 0l-122 369h-531l-124 -369h-261l512 1443h290l513 -1443h-277zM714 1168l-198 -595h411l-196 595h-17zM600 1585l288 310h283l-321 -310h-250z" />
    <glyph glyph-name="Acircumflex" unicode="&#xc2;" horiz-adv-x="1456" 
d="M1109 0l-122 369h-531l-124 -369h-261l512 1443h290l513 -1443h-277zM714 1168l-198 -595h411l-196 595h-17zM844 1906l290 -321h-242l-155 183h-18l-155 -183h-242l290 321h232z" />
    <glyph glyph-name="Atilde" unicode="&#xc3;" horiz-adv-x="1456" 
d="M1109 0l-122 369h-531l-124 -369h-261l512 1443h290l513 -1443h-277zM714 1168l-198 -595h411l-196 595h-17zM884 1576q-45 0 -83 15.5t-63.5 37t-48.5 43.5t-48 37.5t-52 15.5q-85 0 -90 -136h-166q0 141 65.5 220t173.5 79q47 0 87 -15.5t66.5 -37t49 -43.5t46 -37.5
t46.5 -15.5q83 0 90 134h166q0 -137 -65.5 -217t-173.5 -80z" />
    <glyph glyph-name="Adieresis" unicode="&#xc4;" horiz-adv-x="1456" 
d="M1109 0l-122 369h-531l-124 -369h-261l512 1443h290l513 -1443h-277zM714 1168l-198 -595h411l-196 595h-17zM505 1577q-61 0 -102 40.5t-41 100.5t41 100.5t102 40.5t102 -40.5t41 -100.5t-41 -100.5t-102 -40.5zM950 1577q-61 0 -102 40.5t-41 100.5t41 100.5t102 40.5
t102 -40.5t41 -100.5t-41 -100.5t-102 -40.5z" />
    <glyph glyph-name="Aring" unicode="&#xc5;" horiz-adv-x="1456" 
d="M1109 0l-122 369h-531l-124 -369h-261l512 1443h290l513 -1443h-277zM714 1168l-198 -595h411l-196 595h-17zM728 1576q-102 0 -171.5 67.5t-69.5 168.5t69.5 168t171.5 67t171 -67t69 -168t-69 -168.5t-171 -67.5zM728 1701q48 0 79.5 31.5t31.5 78.5q0 48 -31.5 79.5
t-79.5 31.5t-80 -32t-32 -79t31.5 -78.5t80.5 -31.5z" />
    <glyph glyph-name="AE" unicode="&#xc6;" horiz-adv-x="2025" 
d="M989 1235h-136l-272 -632h408v632zM989 0v398h-488l-174 -398h-256l615 1443h1197v-223h-653v-389h616v-211h-616v-397h653v-223h-894z" />
    <glyph glyph-name="Ccedilla" unicode="&#xc7;" horiz-adv-x="1499" 
d="M1137 458h254q-23 -203 -167.5 -335.5t-363.5 -154.5l-37 -91q98 -4 150.5 -48.5t52.5 -123.5q0 -92 -68 -145.5t-191 -53.5q-89 0 -146 18v124q44 -14 118 -14q114 0 114 64q0 32 -32 46t-105 14h-59v104l43 106q-272 26 -427.5 226.5t-155.5 526.5q0 352 177.5 555
t484.5 203q246 0 417 -144.5t194 -370.5h-254q-27 130 -124 207.5t-233 77.5q-184 0 -291 -141.5t-107 -385.5t107 -386t292 -142q137 0 234 71.5t123 192.5z" />
    <glyph glyph-name="Egrave" unicode="&#xc8;" horiz-adv-x="1254" 
d="M488 1895l288 -310h-250l-321 310h283zM1112 223v-223h-934v1443h934v-223h-676v-383h639v-210h-639v-404h676z" />
    <glyph glyph-name="Eacute" unicode="&#xc9;" horiz-adv-x="1254" 
d="M517 1585l288 310h283l-321 -310h-250zM1112 223v-223h-934v1443h934v-223h-676v-383h639v-210h-639v-404h676z" />
    <glyph glyph-name="Ecircumflex" unicode="&#xca;" horiz-adv-x="1254" 
d="M761 1906l290 -321h-242l-155 183h-18l-155 -183h-242l290 321h232zM1112 223v-223h-934v1443h934v-223h-676v-383h639v-210h-639v-404h676z" />
    <glyph glyph-name="Edieresis" unicode="&#xcb;" horiz-adv-x="1254" 
d="M422 1577q-61 0 -102 40.5t-41 100.5t41 100.5t102 40.5t102 -40.5t41 -100.5t-41 -100.5t-102 -40.5zM867 1577q-61 0 -102 40.5t-41 100.5t41 100.5t102 40.5t102 -40.5t41 -100.5t-41 -100.5t-102 -40.5zM1112 223v-223h-934v1443h934v-223h-676v-383h639v-210h-639
v-404h676z" />
    <glyph glyph-name="Igrave" unicode="&#xcc;" horiz-adv-x="614" 
d="M436 0h-258v1443h258v-1443zM150 1895l288 -310h-250l-321 310h283z" />
    <glyph glyph-name="Iacute" unicode="&#xcd;" horiz-adv-x="614" 
d="M436 0h-258v1443h258v-1443zM179 1585l288 310h283l-321 -310h-250z" />
    <glyph glyph-name="Icircumflex" unicode="&#xce;" horiz-adv-x="614" 
d="M436 0h-258v1443h258v-1443zM423 1906l290 -321h-242l-155 183h-18l-155 -183h-242l290 321h232z" />
    <glyph glyph-name="Idieresis" unicode="&#xcf;" horiz-adv-x="614" 
d="M436 0h-258v1443h258v-1443zM84 1577q-61 0 -102 40.5t-41 100.5t41 100.5t102 40.5t102 -40.5t41 -100.5t-41 -100.5t-102 -40.5zM529 1577q-61 0 -102 40.5t-41 100.5t41 100.5t102 40.5t102 -40.5t41 -100.5t-41 -100.5t-102 -40.5z" />
    <glyph glyph-name="Eth" unicode="&#xd0;" horiz-adv-x="1482" 
d="M436 223h249q216 0 333 130t117 371q0 236 -118.5 366t-331.5 130h-249v-382h218v-204h-218v-411zM178 1443h541q322 0 500.5 -187.5t178.5 -527.5q0 -347 -177.5 -537.5t-501.5 -190.5h-541v634h-153v204h153v605z" />
    <glyph glyph-name="Ntilde" unicode="&#xd1;" horiz-adv-x="1554" 
d="M930 1576q-45 0 -83 15.5t-63.5 37t-48.5 43.5t-48 37.5t-52 15.5q-85 0 -90 -136h-166q0 141 65.5 220t173.5 79q47 0 87 -15.5t66.5 -37t49 -43.5t46 -37.5t46.5 -15.5q83 0 90 134h166q0 -137 -65.5 -217t-173.5 -80zM427 0h-249v1443h224l708 -981h17v981h248v-1443
h-223l-708 982h-17v-982z" />
    <glyph glyph-name="Ograve" unicode="&#xd2;" horiz-adv-x="1599" 
d="M644 1895l288 -310h-250l-321 310h283zM801 1479q314 0 497.5 -204t183.5 -553t-183 -553.5t-498 -204.5q-317 0 -500.5 204t-183.5 554q0 349 184.5 553t499.5 204zM801 1250q-193 0 -306.5 -143t-113.5 -385q0 -243 112.5 -386t307.5 -143q192 0 304.5 143.5
t112.5 385.5t-112.5 385t-304.5 143z" />
    <glyph glyph-name="Oacute" unicode="&#xd3;" horiz-adv-x="1599" 
d="M673 1585l288 310h283l-321 -310h-250zM801 1479q314 0 497.5 -204t183.5 -553t-183 -553.5t-498 -204.5q-317 0 -500.5 204t-183.5 554q0 349 184.5 553t499.5 204zM801 1250q-193 0 -306.5 -143t-113.5 -385q0 -243 112.5 -386t307.5 -143q192 0 304.5 143.5
t112.5 385.5t-112.5 385t-304.5 143z" />
    <glyph glyph-name="Ocircumflex" unicode="&#xd4;" horiz-adv-x="1599" 
d="M917 1906l290 -321h-242l-155 183h-18l-155 -183h-242l290 321h232zM801 1479q314 0 497.5 -204t183.5 -553t-183 -553.5t-498 -204.5q-317 0 -500.5 204t-183.5 554q0 349 184.5 553t499.5 204zM801 1250q-193 0 -306.5 -143t-113.5 -385q0 -243 112.5 -386t307.5 -143
q192 0 304.5 143.5t112.5 385.5t-112.5 385t-304.5 143z" />
    <glyph glyph-name="Otilde" unicode="&#xd5;" horiz-adv-x="1599" 
d="M801 1479q314 0 497.5 -204t183.5 -553t-183 -553.5t-498 -204.5q-317 0 -500.5 204t-183.5 554q0 349 184.5 553t499.5 204zM801 1250q-193 0 -306.5 -143t-113.5 -385q0 -243 112.5 -386t307.5 -143q192 0 304.5 143.5t112.5 385.5t-112.5 385t-304.5 143zM957 1576
q-45 0 -83 15.5t-63.5 37t-48.5 43.5t-48 37.5t-52 15.5q-85 0 -90 -136h-166q0 141 65.5 220t173.5 79q47 0 87 -15.5t66.5 -37t49 -43.5t46 -37.5t46.5 -15.5q83 0 90 134h166q0 -137 -65.5 -217t-173.5 -80z" />
    <glyph glyph-name="Odieresis" unicode="&#xd6;" horiz-adv-x="1599" 
d="M578 1577q-61 0 -102 40.5t-41 100.5t41 100.5t102 40.5t102 -40.5t41 -100.5t-41 -100.5t-102 -40.5zM1023 1577q-61 0 -102 40.5t-41 100.5t41 100.5t102 40.5t102 -40.5t41 -100.5t-41 -100.5t-102 -40.5zM801 1479q314 0 497.5 -204t183.5 -553t-183 -553.5
t-498 -204.5q-317 0 -500.5 204t-183.5 554q0 349 184.5 553t499.5 204zM801 1250q-193 0 -306.5 -143t-113.5 -385q0 -243 112.5 -386t307.5 -143q192 0 304.5 143.5t112.5 385.5t-112.5 385t-304.5 143z" />
    <glyph glyph-name="multiply" unicode="&#xd7;" horiz-adv-x="1383" 
d="M692 428l-306 -304l-149 153l305 306l-305 305l149 154l306 -305l305 305l150 -154l-305 -305l305 -306l-150 -153z" />
    <glyph glyph-name="Oslash" unicode="&#xd8;" horiz-adv-x="1577" 
d="M1118 1091l-568 -812q101 -86 251 -86q192 0 304.5 143.5t112.5 385.5q0 227 -100 369zM467 374l565 805q-99 71 -231 71q-193 0 -306.5 -143t-113.5 -385q0 -211 86 -348zM1361 1438l-92 -132q103 -99 158 -248t55 -336q0 -349 -183 -553.5t-498 -204.5q-231 0 -394 111
l-95 -136l-101 70l102 145q-196 205 -196 568q0 349 184.5 553t499.5 204q216 0 372 -98l84 119z" />
    <glyph glyph-name="Ugrave" unicode="&#xd9;" horiz-adv-x="1550" 
d="M618 1895l288 -310h-250l-321 310h283zM439 1443v-922q0 -149 89 -237.5t247 -88.5t246.5 88.5t88.5 237.5v922h258v-946q0 -239 -161 -386t-432 -147t-432 147t-161 386v946h257z" />
    <glyph glyph-name="Uacute" unicode="&#xda;" horiz-adv-x="1550" 
d="M647 1585l288 310h283l-321 -310h-250zM439 1443v-922q0 -149 89 -237.5t247 -88.5t246.5 88.5t88.5 237.5v922h258v-946q0 -239 -161 -386t-432 -147t-432 147t-161 386v946h257z" />
    <glyph glyph-name="Ucircumflex" unicode="&#xdb;" horiz-adv-x="1550" 
d="M891 1906l290 -321h-242l-155 183h-18l-155 -183h-242l290 321h232zM439 1443v-922q0 -149 89 -237.5t247 -88.5t246.5 88.5t88.5 237.5v922h258v-946q0 -239 -161 -386t-432 -147t-432 147t-161 386v946h257z" />
    <glyph glyph-name="Udieresis" unicode="&#xdc;" horiz-adv-x="1550" 
d="M552 1577q-61 0 -102 40.5t-41 100.5t41 100.5t102 40.5t102 -40.5t41 -100.5t-41 -100.5t-102 -40.5zM997 1577q-61 0 -102 40.5t-41 100.5t41 100.5t102 40.5t102 -40.5t41 -100.5t-41 -100.5t-102 -40.5zM439 1443v-922q0 -149 89 -237.5t247 -88.5t246.5 88.5
t88.5 237.5v922h258v-946q0 -239 -161 -386t-432 -147t-432 147t-161 386v946h257z" />
    <glyph glyph-name="Yacute" unicode="&#xdd;" horiz-adv-x="1412" 
d="M835 0h-258v564l-506 879h283l344 -617h17l343 617h283l-506 -879v-564zM578 1585l288 310h283l-321 -310h-250z" />
    <glyph glyph-name="Thorn" unicode="&#xde;" horiz-adv-x="1342" 
d="M178 1443h259v-244h331q127 0 230 -52t164.5 -154.5t61.5 -238.5q0 -135 -63 -237.5t-168 -155t-235 -52.5h-322v-309h-258v1443zM436 983v-460h260q123 0 194 59t71 172q0 112 -71 170.5t-193 58.5h-261z" />
    <glyph glyph-name="germandbls" unicode="&#xdf;" horiz-adv-x="1355" 
d="M451 0h-247v1087q0 185 128 292.5t342 107.5q206 0 335.5 -105t129.5 -272q0 -120 -62 -209t-160 -117v-19q153 -11 244.5 -107t91.5 -255q0 -185 -129.5 -301.5t-344.5 -116.5q-99 0 -167 15v209q56 -16 129 -16q124 0 192.5 60.5t68.5 162.5q0 103 -78.5 162.5
t-219.5 59.5h-68v218h50q98 0 155 57t57 161q0 89 -59.5 145.5t-160.5 56.5q-108 0 -167.5 -61t-59.5 -174v-1041z" />
    <glyph glyph-name="agrave" unicode="&#xe0;" horiz-adv-x="1179" 
d="M526 177q112 0 187 64.5t75 159.5v87l-247 -16q-204 -13 -204 -148q0 -68 52.5 -107.5t136.5 -39.5zM453 -18q-160 0 -261 90t-101 238t107.5 232t307.5 96l282 17v92q0 81 -53 124t-153 43q-86 0 -142 -29.5t-73 -84.5h-234q15 145 140.5 230.5t320.5 85.5
q210 0 324.5 -97t114.5 -272v-747h-239v150h-17q-46 -79 -131.5 -123.5t-192.5 -44.5zM740 1275h-242l-284 347h277z" />
    <glyph glyph-name="aacute" unicode="&#xe1;" horiz-adv-x="1179" 
d="M526 177q112 0 187 64.5t75 159.5v87l-247 -16q-204 -13 -204 -148q0 -68 52.5 -107.5t136.5 -39.5zM453 -18q-160 0 -261 90t-101 238t107.5 232t307.5 96l282 17v92q0 81 -53 124t-153 43q-86 0 -142 -29.5t-73 -84.5h-234q15 145 140.5 230.5t320.5 85.5
q210 0 324.5 -97t114.5 -272v-747h-239v150h-17q-46 -79 -131.5 -123.5t-192.5 -44.5zM454 1275l249 347h277l-284 -347h-242z" />
    <glyph glyph-name="acircumflex" unicode="&#xe2;" horiz-adv-x="1179" 
d="M526 177q112 0 187 64.5t75 159.5v87l-247 -16q-204 -13 -204 -148q0 -68 52.5 -107.5t136.5 -39.5zM453 -18q-160 0 -261 90t-101 238t107.5 232t307.5 96l282 17v92q0 81 -53 124t-153 43q-86 0 -142 -29.5t-73 -84.5h-234q15 145 140.5 230.5t320.5 85.5
q210 0 324.5 -97t114.5 -272v-747h-239v150h-17q-46 -79 -131.5 -123.5t-192.5 -44.5zM723 1591l277 -348h-239l-159 215h-17l-159 -215h-239l277 348h259z" />
    <glyph glyph-name="atilde" unicode="&#xe3;" horiz-adv-x="1179" 
d="M526 177q112 0 187 64.5t75 159.5v87l-247 -16q-204 -13 -204 -148q0 -68 52.5 -107.5t136.5 -39.5zM453 -18q-160 0 -261 90t-101 238t107.5 232t307.5 96l282 17v92q0 81 -53 124t-153 43q-86 0 -142 -29.5t-73 -84.5h-234q15 145 140.5 230.5t320.5 85.5
q210 0 324.5 -97t114.5 -272v-747h-239v150h-17q-46 -79 -131.5 -123.5t-192.5 -44.5zM463 1393q-91 0 -92 -147h-171q0 142 68 226t183 84q43 0 80 -15t63 -37t48 -44t45 -37t44 -15q91 0 92 145h170q0 -142 -67.5 -225.5t-182.5 -83.5q-52 0 -97.5 23.5t-71.5 51t-56 51
t-55 23.5z" />
    <glyph glyph-name="adieresis" unicode="&#xe4;" horiz-adv-x="1179" 
d="M526 177q112 0 187 64.5t75 159.5v87l-247 -16q-204 -13 -204 -148q0 -68 52.5 -107.5t136.5 -39.5zM453 -18q-160 0 -261 90t-101 238t107.5 232t307.5 96l282 17v92q0 81 -53 124t-153 43q-86 0 -142 -29.5t-73 -84.5h-234q15 145 140.5 230.5t320.5 85.5
q210 0 324.5 -97t114.5 -272v-747h-239v150h-17q-46 -79 -131.5 -123.5t-192.5 -44.5zM371 1242q-61 0 -102 40.5t-41 100.5t41 100.5t102 40.5t102 -40.5t41 -100.5t-41 -100.5t-102 -40.5zM816 1242q-61 0 -102 40.5t-41 100.5t41 100.5t102 40.5t102 -40.5t41 -100.5
t-41 -100.5t-102 -40.5z" />
    <glyph glyph-name="aring" unicode="&#xe5;" horiz-adv-x="1179" 
d="M526 177q112 0 187 64.5t75 159.5v87l-247 -16q-204 -13 -204 -148q0 -68 52.5 -107.5t136.5 -39.5zM453 -18q-160 0 -261 90t-101 238t107.5 232t307.5 96l282 17v92q0 81 -53 124t-153 43q-86 0 -142 -29.5t-73 -84.5h-234q15 145 140.5 230.5t320.5 85.5
q210 0 324.5 -97t114.5 -272v-747h-239v150h-17q-46 -79 -131.5 -123.5t-192.5 -44.5zM594 1243q-102 0 -171.5 67.5t-69.5 168.5t69.5 168t171.5 67t171 -67t69 -168t-69 -168.5t-171 -67.5zM594 1368q48 0 79.5 31.5t31.5 78.5q0 48 -31.5 79.5t-79.5 31.5t-80 -31.5
t-32 -79.5q0 -47 31.5 -78.5t80.5 -31.5z" />
    <glyph glyph-name="ae" unicode="&#xe6;" horiz-adv-x="1878" 
d="M1305 -22q-129 0 -235.5 57.5t-154.5 152.5h-17q-60 -99 -165 -154.5t-241 -55.5q-181 0 -291 91.5t-110 240.5q0 148 107.5 232t307.5 96l282 17v92q0 81 -53 124t-153 43q-86 0 -142 -29.5t-73 -84.5h-234q14 141 136.5 228.5t304.5 87.5q126 0 216 -45t138 -123h17
q54 76 149 122t207 46q223 0 351 -145.5t128 -396.5v-84h-754v-23q5 -132 80.5 -211.5t197.5 -79.5q170 0 231 125h234q-36 -151 -159.5 -237t-304.5 -86zM1287 919q-113 0 -183.5 -71t-77.5 -190h507q-4 116 -72.5 188.5t-173.5 72.5zM533 175q108 0 181.5 67.5t73.5 163.5
v82l-247 -16q-204 -13 -204 -150q0 -68 53.5 -107.5t142.5 -39.5z" />
    <glyph glyph-name="ccedilla" unicode="&#xe7;" horiz-adv-x="1182" 
d="M1097 726h-236q-18 83 -80 132.5t-161 49.5q-128 0 -199.5 -94t-71.5 -264q0 -172 72 -268t199 -96q97 0 159.5 45t81.5 130h236q-18 -155 -120 -256t-269 -122l-43 -106q98 -4 150.5 -48.5t52.5 -123.5q0 -92 -68 -145.5t-191 -53.5q-89 0 -146 18v124q44 -14 118 -14
q114 0 114 64q0 32 -32 46t-105 14h-59v104l49 120q-214 22 -332 170.5t-118 397.5q0 267 138 416.5t384 149.5q206 0 331.5 -106.5t145.5 -283.5z" />
    <glyph glyph-name="egrave" unicode="&#xe8;" horiz-adv-x="1208" 
d="M758 1275h-242l-284 347h277zM611 919q-111 0 -183 -73t-80 -193h515q-4 122 -72 194t-180 72zM865 301h235q-35 -150 -164.5 -236.5t-321.5 -86.5q-241 0 -378.5 150.5t-137.5 414.5t138 418.5t376 154.5q234 0 366.5 -146.5t132.5 -405.5v-80h-764v-13
q5 -137 78.5 -216.5t195.5 -79.5q188 0 244 126z" />
    <glyph glyph-name="eacute" unicode="&#xe9;" horiz-adv-x="1208" 
d="M472 1275l249 347h277l-284 -347h-242zM611 919q-111 0 -183 -73t-80 -193h515q-4 122 -72 194t-180 72zM865 301h235q-35 -150 -164.5 -236.5t-321.5 -86.5q-241 0 -378.5 150.5t-137.5 414.5t138 418.5t376 154.5q234 0 366.5 -146.5t132.5 -405.5v-80h-764v-13
q5 -137 78.5 -216.5t195.5 -79.5q188 0 244 126z" />
    <glyph glyph-name="ecircumflex" unicode="&#xea;" horiz-adv-x="1208" 
d="M741 1591l277 -348h-239l-159 215h-17l-159 -215h-239l277 348h259zM611 919q-111 0 -183 -73t-80 -193h515q-4 122 -72 194t-180 72zM865 301h235q-35 -150 -164.5 -236.5t-321.5 -86.5q-241 0 -378.5 150.5t-137.5 414.5t138 418.5t376 154.5q234 0 366.5 -146.5
t132.5 -405.5v-80h-764v-13q5 -137 78.5 -216.5t195.5 -79.5q188 0 244 126z" />
    <glyph glyph-name="edieresis" unicode="&#xeb;" horiz-adv-x="1208" 
d="M611 919q-111 0 -183 -73t-80 -193h515q-4 122 -72 194t-180 72zM865 301h235q-35 -150 -164.5 -236.5t-321.5 -86.5q-241 0 -378.5 150.5t-137.5 414.5t138 418.5t376 154.5q234 0 366.5 -146.5t132.5 -405.5v-80h-764v-13q5 -137 78.5 -216.5t195.5 -79.5
q188 0 244 126zM389 1242q-61 0 -102 40.5t-41 100.5t41 100.5t102 40.5t102 -40.5t41 -100.5t-41 -100.5t-102 -40.5zM834 1242q-61 0 -102 40.5t-41 100.5t41 100.5t102 40.5t102 -40.5t41 -100.5t-41 -100.5t-102 -40.5z" />
    <glyph glyph-name="igrave" unicode="&#xec;" horiz-adv-x="565" 
d="M428 1275h-242l-284 347h277zM159 0v1094h247v-1094h-247z" />
    <glyph glyph-name="iacute" unicode="&#xed;" horiz-adv-x="565" 
d="M142 1275l249 347h277l-284 -347h-242zM159 0v1094h247v-1094h-247z" />
    <glyph glyph-name="icircumflex" unicode="&#xee;" horiz-adv-x="565" 
d="M411 1591l277 -348h-239l-159 215h-17l-159 -215h-239l277 348h259zM159 0v1094h247v-1094h-247z" />
    <glyph glyph-name="idieresis" unicode="&#xef;" horiz-adv-x="565" 
d="M159 0v1094h247v-1094h-247zM59 1242q-61 0 -102 40.5t-41 100.5t41 100.5t102 40.5t102 -40.5t41 -100.5t-41 -100.5t-102 -40.5zM504 1242q-61 0 -102 40.5t-41 100.5t41 100.5t102 40.5t102 -40.5t41 -100.5t-41 -100.5t-102 -40.5z" />
    <glyph glyph-name="eth" unicode="&#xf0;" horiz-adv-x="1244" 
d="M625 -18q-240 0 -382 148.5t-142 399.5q0 234 126.5 379.5t329.5 145.5q94 0 176 -39.5t120 -102.5h16q-42 155 -175 307l-282 -93l-48 131l229 76q-68 67 -227 186h306q68 -53 128 -115l260 86l49 -132l-206 -68q118 -147 180.5 -326t62.5 -373q0 -279 -141.5 -444.5
t-379.5 -165.5zM629 864q-125 0 -199 -91t-74 -244q0 -155 73.5 -245.5t199.5 -90.5t200 90.5t74 244.5q0 153 -74.5 244.5t-199.5 91.5z" />
    <glyph glyph-name="ntilde" unicode="&#xf1;" horiz-adv-x="1275" 
d="M521 1393q-91 0 -92 -147h-171q0 142 68 226t183 84q43 0 80 -15t63 -37t48 -44t45 -37t44 -15q91 0 92 145h170q0 -142 -67.5 -225.5t-182.5 -83.5q-52 0 -97.5 23.5t-71.5 51t-56 51t-55 23.5zM152 0v1094h239v-175h17q39 92 130.5 144.5t213.5 52.5q183 0 282 -106
t99 -302v-708h-247v649q0 251 -226 251q-120 0 -190 -71t-70 -192v-637h-248z" />
    <glyph glyph-name="ograve" unicode="&#xf2;" horiz-adv-x="1248" 
d="M770 1275h-242l-284 347h277zM624 186q130 0 200.5 94.5t70.5 266.5q0 171 -71 266t-200 95q-130 0 -201 -95t-71 -266q0 -172 71 -266.5t201 -94.5zM624 -22q-246 0 -386 151.5t-140 417.5q0 264 141 416.5t385 152.5q245 0 385.5 -152t140.5 -417q0 -266 -140.5 -417.5
t-385.5 -151.5z" />
    <glyph glyph-name="oacute" unicode="&#xf3;" horiz-adv-x="1248" 
d="M484 1275l249 347h277l-284 -347h-242zM624 186q130 0 200.5 94.5t70.5 266.5q0 171 -71 266t-200 95q-130 0 -201 -95t-71 -266q0 -172 71 -266.5t201 -94.5zM624 -22q-246 0 -386 151.5t-140 417.5q0 264 141 416.5t385 152.5q245 0 385.5 -152t140.5 -417
q0 -266 -140.5 -417.5t-385.5 -151.5z" />
    <glyph glyph-name="ocircumflex" unicode="&#xf4;" horiz-adv-x="1248" 
d="M753 1591l277 -348h-239l-159 215h-17l-159 -215h-239l277 348h259zM624 186q130 0 200.5 94.5t70.5 266.5q0 171 -71 266t-200 95q-130 0 -201 -95t-71 -266q0 -172 71 -266.5t201 -94.5zM624 -22q-246 0 -386 151.5t-140 417.5q0 264 141 416.5t385 152.5
q245 0 385.5 -152t140.5 -417q0 -266 -140.5 -417.5t-385.5 -151.5z" />
    <glyph glyph-name="otilde" unicode="&#xf5;" horiz-adv-x="1248" 
d="M493 1393q-91 0 -92 -147h-171q0 142 68 226t183 84q43 0 80 -15t63 -37t48 -44t45 -37t44 -15q91 0 92 145h170q0 -142 -67.5 -225.5t-182.5 -83.5q-52 0 -97.5 23.5t-71.5 51t-56 51t-55 23.5zM624 186q130 0 200.5 94.5t70.5 266.5q0 171 -71 266t-200 95
q-130 0 -201 -95t-71 -266q0 -172 71 -266.5t201 -94.5zM624 -22q-246 0 -386 151.5t-140 417.5q0 264 141 416.5t385 152.5q245 0 385.5 -152t140.5 -417q0 -266 -140.5 -417.5t-385.5 -151.5z" />
    <glyph glyph-name="odieresis" unicode="&#xf6;" horiz-adv-x="1248" 
d="M401 1242q-61 0 -102 40.5t-41 100.5t41 100.5t102 40.5t102 -40.5t41 -100.5t-41 -100.5t-102 -40.5zM846 1242q-61 0 -102 40.5t-41 100.5t41 100.5t102 40.5t102 -40.5t41 -100.5t-41 -100.5t-102 -40.5zM624 186q130 0 200.5 94.5t70.5 266.5q0 171 -71 266t-200 95
q-130 0 -201 -95t-71 -266q0 -172 71 -266.5t201 -94.5zM624 -22q-246 0 -386 151.5t-140 417.5q0 264 141 416.5t385 152.5q245 0 385.5 -152t140.5 -417q0 -266 -140.5 -417.5t-385.5 -151.5z" />
    <glyph glyph-name="divide" unicode="&#xf7;" horiz-adv-x="1383" 
d="M1220 484h-1057v197h1057v-197zM692 814q-67 0 -109.5 41.5t-42.5 106.5q0 66 42.5 107.5t109.5 41.5t109 -41.5t42 -107.5q0 -65 -42 -106.5t-109 -41.5zM692 55q-67 0 -109.5 41.5t-42.5 106.5q0 66 42.5 107.5t109.5 41.5t109 -41.5t42 -107.5q0 -65 -42 -106.5
t-109 -41.5z" />
    <glyph glyph-name="oslash" unicode="&#xf8;" horiz-adv-x="1248" 
d="M846 778l-358 -557q58 -35 136 -35q130 0 200.5 94.5t70.5 266.5q0 141 -49 231zM403 312l359 559q-59 37 -138 37q-130 0 -201 -95t-71 -266q0 -142 51 -235zM1048 1092l-65 -101q167 -155 167 -444q0 -266 -140.5 -417.5t-385.5 -151.5q-146 0 -256 55l-60 -93l-103 65
l62 96q-169 152 -169 446q0 264 141 416.5t385 152.5q147 0 259 -57l61 94z" />
    <glyph glyph-name="ugrave" unicode="&#xf9;" horiz-adv-x="1283" 
d="M785 1275h-242l-284 347h277zM1127 1094v-1094h-239v174h-17q-40 -94 -128.5 -145t-210.5 -51q-182 0 -286 107.5t-104 300.5v708h248v-649q0 -249 228 -249q120 0 190.5 70t70.5 191v637h248z" />
    <glyph glyph-name="uacute" unicode="&#xfa;" horiz-adv-x="1283" 
d="M499 1275l249 347h277l-284 -347h-242zM1127 1094v-1094h-239v174h-17q-40 -94 -128.5 -145t-210.5 -51q-182 0 -286 107.5t-104 300.5v708h248v-649q0 -249 228 -249q120 0 190.5 70t70.5 191v637h248z" />
    <glyph glyph-name="ucircumflex" unicode="&#xfb;" horiz-adv-x="1283" 
d="M768 1591l277 -348h-239l-159 215h-17l-159 -215h-239l277 348h259zM1127 1094v-1094h-239v174h-17q-40 -94 -128.5 -145t-210.5 -51q-182 0 -286 107.5t-104 300.5v708h248v-649q0 -249 228 -249q120 0 190.5 70t70.5 191v637h248z" />
    <glyph glyph-name="udieresis" unicode="&#xfc;" horiz-adv-x="1283" 
d="M1127 1094v-1094h-239v174h-17q-40 -94 -128.5 -145t-210.5 -51q-182 0 -286 107.5t-104 300.5v708h248v-649q0 -249 228 -249q120 0 190.5 70t70.5 191v637h248zM416 1242q-61 0 -102 40.5t-41 100.5t41 100.5t102 40.5t102 -40.5t41 -100.5t-41 -100.5t-102 -40.5z
M861 1242q-61 0 -102 40.5t-41 100.5t41 100.5t102 40.5t102 -40.5t41 -100.5t-41 -100.5t-102 -40.5z" />
    <glyph glyph-name="yacute" unicode="&#xfd;" horiz-adv-x="1183" 
d="M272 -398q-77 0 -98 4v202q21 -3 68 -3q79 0 125.5 33.5t70.5 108.5l13 48l-391 1099h272l256 -854h17l255 854h262l-395 -1129q-70 -203 -170.5 -283t-284.5 -80zM452 1275l249 347h277l-284 -347h-242z" />
    <glyph glyph-name="thorn" unicode="&#xfe;" horiz-adv-x="1310" 
d="M756 1112q209 0 329.5 -151t120.5 -414q0 -261 -120.5 -413t-327.5 -152q-117 0 -205 48.5t-129 135.5h-18v-516h-247v1857h242v-594h17q47 93 136.5 146t201.5 53zM677 193q129 0 201.5 94t72.5 260t-72.5 260t-200.5 94q-127 0 -201 -95t-75 -259q1 -164 74.5 -259
t200.5 -95z" />
    <glyph glyph-name="ydieresis" unicode="&#xff;" horiz-adv-x="1183" 
d="M272 -398q-77 0 -98 4v202q21 -3 68 -3q79 0 125.5 33.5t70.5 108.5l13 48l-391 1099h272l256 -854h17l255 854h262l-395 -1129q-70 -203 -170.5 -283t-284.5 -80zM369 1242q-61 0 -102 40.5t-41 100.5t41 100.5t102 40.5t102 -40.5t41 -100.5t-41 -100.5t-102 -40.5z
M814 1242q-61 0 -102 40.5t-41 100.5t41 100.5t102 40.5t102 -40.5t41 -100.5t-41 -100.5t-102 -40.5z" />
    <glyph glyph-name="Amacron" unicode="&#x100;" horiz-adv-x="1456" 
d="M1109 0l-122 369h-531l-124 -369h-261l512 1443h290l513 -1443h-277zM714 1168l-198 -595h411l-196 595h-17zM1088 1628h-720v164h720v-164z" />
    <glyph glyph-name="amacron" unicode="&#x101;" horiz-adv-x="1179" 
d="M526 177q112 0 187 64.5t75 159.5v87l-247 -16q-204 -13 -204 -148q0 -68 52.5 -107.5t136.5 -39.5zM453 -18q-160 0 -261 90t-101 238t107.5 232t307.5 96l282 17v92q0 81 -53 124t-153 43q-86 0 -142 -29.5t-73 -84.5h-234q15 145 140.5 230.5t320.5 85.5
q210 0 324.5 -97t114.5 -272v-747h-239v150h-17q-46 -79 -131.5 -123.5t-192.5 -44.5zM950 1305h-712v164h712v-164z" />
    <glyph glyph-name="Abreve" unicode="&#x102;" horiz-adv-x="1456" 
d="M1109 0l-122 369h-531l-124 -369h-261l512 1443h290l513 -1443h-277zM714 1168l-198 -595h411l-196 595h-17zM341 1900h188q2 -77 55.5 -122t143.5 -45t143.5 45t55.5 122h188q0 -145 -104.5 -233.5t-282.5 -88.5t-282.5 88.5t-104.5 233.5z" />
    <glyph glyph-name="abreve" unicode="&#x103;" horiz-adv-x="1179" 
d="M526 177q112 0 187 64.5t75 159.5v87l-247 -16q-204 -13 -204 -148q0 -68 52.5 -107.5t136.5 -39.5zM453 -18q-160 0 -261 90t-101 238t107.5 232t307.5 96l282 17v92q0 81 -53 124t-153 43q-86 0 -142 -29.5t-73 -84.5h-234q15 145 140.5 230.5t320.5 85.5
q210 0 324.5 -97t114.5 -272v-747h-239v150h-17q-46 -79 -131.5 -123.5t-192.5 -44.5zM206 1585h188q2 -84 54.5 -135t144.5 -51t144.5 51t54.5 135h188q0 -152 -104.5 -247t-282.5 -95t-282.5 95t-104.5 247z" />
    <glyph glyph-name="Aogonek" unicode="&#x104;" horiz-adv-x="1456" 
d="M714 1168l-198 -595h411l-196 595h-17zM1384 -432q-48 -23 -139 -23q-115 0 -182.5 60t-67.5 161q0 145 151 252h-43l-116 351h-531l-124 -369h-261l512 1443h290l509 -1435h-37q-76 -38 -117 -90t-41 -109q0 -47 33 -75t89 -28q39 0 75 9v-147z" />
    <glyph glyph-name="aogonek" unicode="&#x105;" horiz-adv-x="1179" 
d="M529 177q110 0 184.5 64.5t74.5 159.5v95l-244 -14q-100 -6 -153.5 -45.5t-53.5 -106.5q0 -69 52.5 -111t139.5 -42zM1052 -432q-53 -23 -139 -23q-110 0 -176.5 59.5t-66.5 157.5q0 152 158 253h-34v135h-17q-46 -80 -132 -124t-195 -44q-161 0 -260 92t-99 242
q0 148 108.5 233.5t310.5 96.5l278 17v84q-1 81 -53.5 124t-152.5 43q-86 0 -142 -29.5t-73 -84.5h-234q15 145 140.5 230.5t320.5 85.5q210 0 324.5 -97t114.5 -272v-735h-25q-151 -89 -151 -196q0 -50 32.5 -80t86.5 -30q46 0 76 9v-147z" />
    <glyph glyph-name="Cacute" unicode="&#x106;" horiz-adv-x="1499" 
d="M651 1587l288 310h283l-321 -310h-250zM780 -36q-307 0 -485 203.5t-178 553.5q0 352 177.5 555t484.5 203q246 0 417 -144.5t194 -370.5h-254q-27 130 -124 207.5t-233 77.5q-184 0 -291 -141.5t-107 -385.5t107 -386t292 -142q137 0 234 71.5t123 192.5h254
q-26 -222 -194 -358t-417 -136z" />
    <glyph glyph-name="cacute" unicode="&#x107;" horiz-adv-x="1182" 
d="M1097 726h-236q-18 83 -80 132.5t-161 49.5q-128 0 -199.5 -94t-71.5 -264q0 -172 72 -268t199 -96q97 0 159.5 45t81.5 130h236q-21 -175 -146.5 -279t-329.5 -104q-247 0 -385 151t-138 421q0 267 138 416.5t384 149.5q206 0 331.5 -106.5t145.5 -283.5zM479 1275
l249 347h277l-284 -347h-242z" />
    <glyph glyph-name="Ccircumflex" unicode="&#x108;" horiz-adv-x="1499" 
d="M780 -36q-307 0 -485 203.5t-178 553.5q0 352 177.5 555t484.5 203q246 0 417 -144.5t194 -370.5h-254q-27 130 -124 207.5t-233 77.5q-184 0 -291 -141.5t-107 -385.5t107 -386t292 -142q137 0 234 71.5t123 192.5h254q-26 -222 -194 -358t-417 -136zM895 1908l290 -321
h-242l-155 183h-18l-155 -183h-242l290 321h232z" />
    <glyph glyph-name="ccircumflex" unicode="&#x109;" horiz-adv-x="1182" 
d="M748 1591l277 -348h-239l-159 215h-17l-159 -215h-239l277 348h259zM1097 726h-236q-18 83 -80 132.5t-161 49.5q-128 0 -199.5 -94t-71.5 -264q0 -172 72 -268t199 -96q97 0 159.5 45t81.5 130h236q-21 -175 -146.5 -279t-329.5 -104q-247 0 -385 151t-138 421
q0 267 138 416.5t384 149.5q206 0 331.5 -106.5t145.5 -283.5z" />
    <glyph glyph-name="Cdotaccent" unicode="&#x10a;" horiz-adv-x="1499" 
d="M779 1580q-62 0 -103 41.5t-41 102.5q0 62 40.5 103.5t103.5 41.5q62 0 103 -41.5t41 -103.5q0 -61 -41 -102.5t-103 -41.5zM780 -36q-307 0 -485 203.5t-178 553.5q0 352 177.5 555t484.5 203q246 0 417 -144.5t194 -370.5h-254q-27 130 -124 207.5t-233 77.5
q-184 0 -291 -141.5t-107 -385.5t107 -386t292 -142q137 0 234 71.5t123 192.5h254q-26 -222 -194 -358t-417 -136z" />
    <glyph glyph-name="cdotaccent" unicode="&#x10b;" horiz-adv-x="1182" 
d="M1097 726h-236q-18 83 -80 132.5t-161 49.5q-128 0 -199.5 -94t-71.5 -264q0 -172 72 -268t199 -96q97 0 159.5 45t81.5 130h236q-21 -175 -146.5 -279t-329.5 -104q-247 0 -385 151t-138 421q0 267 138 416.5t384 149.5q206 0 331.5 -106.5t145.5 -283.5zM619 1281
q-64 0 -106.5 43t-42.5 106t42.5 105.5t106.5 42.5q63 0 106 -43t43 -105q0 -63 -42.5 -106t-106.5 -43z" />
    <glyph glyph-name="Ccaron" unicode="&#x10c;" horiz-adv-x="1499" 
d="M780 -36q-307 0 -485 203.5t-178 553.5q0 352 177.5 555t484.5 203q246 0 417 -144.5t194 -370.5h-254q-27 130 -124 207.5t-233 77.5q-184 0 -291 -141.5t-107 -385.5t107 -386t292 -142q137 0 234 71.5t123 192.5h254q-26 -222 -194 -358t-417 -136zM890 1587h-222
l-288 310h235l155 -174h18l155 174h235z" />
    <glyph glyph-name="ccaron" unicode="&#x10d;" horiz-adv-x="1182" 
d="M748 1243h-259l-277 348h239l159 -215h17l159 215h239zM1097 726h-236q-18 83 -80 132.5t-161 49.5q-128 0 -199.5 -94t-71.5 -264q0 -172 72 -268t199 -96q97 0 159.5 45t81.5 130h236q-21 -175 -146.5 -279t-329.5 -104q-247 0 -385 151t-138 421q0 267 138 416.5
t384 149.5q206 0 331.5 -106.5t145.5 -283.5z" />
    <glyph glyph-name="Dcaron" unicode="&#x10e;" horiz-adv-x="1514" 
d="M734 1585h-222l-288 310h235l155 -174h18l155 174h235zM178 1443h541q322 0 500.5 -187.5t178.5 -527.5q0 -347 -177.5 -537.5t-501.5 -190.5h-541v1443zM436 1220v-997h249q216 0 333 130t117 371q0 236 -118.5 366t-331.5 130h-249z" />
    <glyph glyph-name="dcaron" unicode="&#x10f;" horiz-adv-x="1461" 
d="M1266 1517h221l-50 -498h-171v498zM548 -18q-208 0 -329 152.5t-121 413.5q0 259 121.5 411.5t328.5 152.5q112 0 200 -51t132 -141h17v597h248v-1517h-240v173h-17q-47 -90 -136.5 -140.5t-203.5 -50.5zM625 901q-127 0 -200 -94.5t-73 -259.5q0 -166 72.5 -260
t200.5 -94t201.5 94.5t73.5 259.5q0 164 -74 259t-201 95z" />
    <glyph glyph-name="Dcroat" unicode="&#x110;" horiz-adv-x="1490" 
d="M436 223h249q216 0 333 130t117 371q0 236 -118.5 366t-331.5 130h-249v-382h225v-204h-225v-411zM178 1443h541q322 0 500.5 -187.5t178.5 -527.5q0 -347 -177.5 -537.5t-501.5 -190.5h-541v634h-141v204h141v605z" />
    <glyph glyph-name="dcroat" unicode="&#x111;" horiz-adv-x="1312" 
d="M633 193q128 0 201.5 94.5t73.5 259.5q0 163 -74 258.5t-201 95.5q-128 0 -200.5 -94t-72.5 -260t72.5 -260t200.5 -94zM1276 1412v-142h-124v-1270h-242v173h-17q-47 -90 -136 -140.5t-203 -50.5q-207 0 -328 152t-121 414q0 260 122 412t329 152q113 0 200.5 -51
t131.5 -141h16v350h-236v142h236v146h248v-146h124z" />
    <glyph glyph-name="Emacron" unicode="&#x112;" horiz-adv-x="1254" 
d="M1112 223v-223h-934v1443h934v-223h-676v-383h639v-210h-639v-404h676zM1005 1628h-720v164h720v-164z" />
    <glyph glyph-name="emacron" unicode="&#x113;" horiz-adv-x="1208" 
d="M611 919q-111 0 -183 -73t-80 -193h515q-4 122 -72 194t-180 72zM865 301h235q-35 -150 -164.5 -236.5t-321.5 -86.5q-241 0 -378.5 150.5t-137.5 414.5t138 418.5t376 154.5q234 0 366.5 -146.5t132.5 -405.5v-80h-764v-13q5 -137 78.5 -216.5t195.5 -79.5
q188 0 244 126zM968 1305h-712v164h712v-164z" />
    <glyph glyph-name="Ebreve" unicode="&#x114;" horiz-adv-x="1254" 
d="M1112 223v-223h-934v1443h934v-223h-676v-383h639v-210h-639v-404h676zM258 1900h188q2 -77 55.5 -122t143.5 -45t143.5 45t55.5 122h188q0 -145 -104.5 -233.5t-282.5 -88.5t-282.5 88.5t-104.5 233.5z" />
    <glyph glyph-name="ebreve" unicode="&#x115;" horiz-adv-x="1208" 
d="M611 919q-111 0 -183 -73t-80 -193h515q-4 122 -72 194t-180 72zM865 301h235q-35 -150 -164.5 -236.5t-321.5 -86.5q-241 0 -378.5 150.5t-137.5 414.5t138 418.5t376 154.5q234 0 366.5 -146.5t132.5 -405.5v-80h-764v-13q5 -137 78.5 -216.5t195.5 -79.5
q188 0 244 126zM224 1585h188q2 -84 54.5 -135t144.5 -51t144.5 51t54.5 135h188q0 -152 -104.5 -247t-282.5 -95t-282.5 95t-104.5 247z" />
    <glyph glyph-name="Edotaccent" unicode="&#x116;" horiz-adv-x="1254" 
d="M645 1578q-62 0 -103 41.5t-41 102.5q0 62 40.5 103.5t103.5 41.5q62 0 103 -41.5t41 -103.5q0 -61 -41 -102.5t-103 -41.5zM1112 223v-223h-934v1443h934v-223h-676v-383h639v-210h-639v-404h676z" />
    <glyph glyph-name="edotaccent" unicode="&#x117;" horiz-adv-x="1208" 
d="M612 1281q-64 0 -106.5 43t-42.5 106t42.5 105.5t106.5 42.5t106.5 -43t42.5 -105q0 -63 -42.5 -106t-106.5 -43zM611 919q-111 0 -183 -73t-80 -193h515q-4 122 -72 194t-180 72zM865 301h235q-35 -150 -164.5 -236.5t-321.5 -86.5q-241 0 -378.5 150.5t-137.5 414.5
t138 418.5t376 154.5q234 0 366.5 -146.5t132.5 -405.5v-80h-764v-13q5 -137 78.5 -216.5t195.5 -79.5q188 0 244 126z" />
    <glyph glyph-name="Eogonek" unicode="&#x118;" horiz-adv-x="1254" 
d="M868 0h-690v1443h934v-223h-676v-383h639v-210h-639v-404h676v-188q-197 -95 -197 -220q0 -50 33 -79.5t88 -29.5q48 0 76 9v-147q-48 -23 -139 -23q-114 0 -182.5 59t-68.5 157q0 145 146 239z" />
    <glyph glyph-name="eogonek" unicode="&#x119;" horiz-adv-x="1208" 
d="M788 -455q-106 0 -173 58t-67 150q0 112 106 212v17q-22 -4 -51 -4q-236 3 -370.5 153t-134.5 412q0 265 138.5 419t375.5 154q234 0 366.5 -146.5t132.5 -405.5v-80h-764v-13q5 -137 78.5 -216.5t195.5 -79.5q187 0 244 126h235q-16 -70 -62.5 -132t-142.5 -140
q-89 -72 -124.5 -122.5t-35.5 -102.5q0 -44 30.5 -71t79.5 -27q45 0 82 9v-147q-44 -23 -139 -23zM611 919q-110 0 -182.5 -72.5t-80.5 -193.5h515q-4 122 -72 194t-180 72z" />
    <glyph glyph-name="Ecaron" unicode="&#x11a;" horiz-adv-x="1254" 
d="M756 1585h-222l-288 310h235l155 -174h18l155 174h235zM1112 223v-223h-934v1443h934v-223h-676v-383h639v-210h-639v-404h676z" />
    <glyph glyph-name="ecaron" unicode="&#x11b;" horiz-adv-x="1208" 
d="M741 1243h-259l-277 348h239l159 -215h17l159 215h239zM611 919q-111 0 -183 -73t-80 -193h515q-4 122 -72 194t-180 72zM865 301h235q-35 -150 -164.5 -236.5t-321.5 -86.5q-241 0 -378.5 150.5t-137.5 414.5t138 418.5t376 154.5q234 0 366.5 -146.5t132.5 -405.5v-80
h-764v-13q5 -137 78.5 -216.5t195.5 -79.5q188 0 244 126z" />
    <glyph glyph-name="Gcircumflex" unicode="&#x11c;" horiz-adv-x="1547" 
d="M907 1907l290 -321h-242l-155 183h-18l-155 -183h-242l290 321h232zM1426 578q0 -281 -171 -447.5t-460 -166.5q-314 0 -496 203.5t-182 554.5q0 346 183 551.5t491 205.5q250 0 419 -132t204 -353h-257q-39 123 -133.5 189t-232.5 66q-189 0 -299.5 -141t-110.5 -384
q0 -246 112.5 -388t305.5 -142q165 0 268 92t106 241l1 30h-347v202h599v-181z" />
    <glyph glyph-name="gcircumflex" unicode="&#x11d;" horiz-adv-x="1295" 
d="M754 1591l277 -348h-239l-159 215h-17l-159 -215h-239l277 348h259zM899 559q0 157 -74 249.5t-203 92.5q-128 0 -199.5 -92t-71.5 -250t71 -249.5t200 -91.5t203 92t74 249zM622 -416q-209 0 -339.5 85t-145.5 227h249q12 -57 75.5 -90t164.5 -33q127 0 198 57t71 160
v207h-17q-47 -88 -133.5 -134.5t-200.5 -46.5q-206 0 -327 147.5t-121 395.5q0 252 122 402.5t330 150.5q112 0 203 -52t136 -141h17v175h239v-1098q0 -190 -141 -301t-380 -111z" />
    <glyph glyph-name="Gbreve" unicode="&#x11e;" horiz-adv-x="1547" 
d="M1426 578q0 -281 -171 -447.5t-460 -166.5q-314 0 -496 203.5t-182 554.5q0 346 183 551.5t491 205.5q250 0 419 -132t204 -353h-257q-39 123 -133.5 189t-232.5 66q-189 0 -299.5 -141t-110.5 -384q0 -246 112.5 -388t305.5 -142q165 0 268 92t106 241l1 30h-347v202
h599v-181zM404 1901h188q2 -77 55.5 -122t143.5 -45t143.5 45t55.5 122h188q0 -145 -104.5 -233.5t-282.5 -88.5t-282.5 88.5t-104.5 233.5z" />
    <glyph glyph-name="gbreve" unicode="&#x11f;" horiz-adv-x="1295" 
d="M237 1585h188q2 -84 54.5 -135t144.5 -51t144.5 51t54.5 135h188q0 -152 -104.5 -247t-282.5 -95t-282.5 95t-104.5 247zM899 559q0 157 -74 249.5t-203 92.5q-128 0 -199.5 -92t-71.5 -250t71 -249.5t200 -91.5t203 92t74 249zM622 -416q-209 0 -339.5 85t-145.5 227
h249q12 -57 75.5 -90t164.5 -33q127 0 198 57t71 160v207h-17q-47 -88 -133.5 -134.5t-200.5 -46.5q-206 0 -327 147.5t-121 395.5q0 252 122 402.5t330 150.5q112 0 203 -52t136 -141h17v175h239v-1098q0 -190 -141 -301t-380 -111z" />
    <glyph glyph-name="Gdotaccent" unicode="&#x120;" horiz-adv-x="1547" 
d="M791 1579q-62 0 -103 41.5t-41 102.5q0 62 40.5 103.5t103.5 41.5q62 0 103 -41.5t41 -103.5q0 -61 -41 -102.5t-103 -41.5zM1426 578q0 -281 -171 -447.5t-460 -166.5q-314 0 -496 203.5t-182 554.5q0 346 183 551.5t491 205.5q250 0 419 -132t204 -353h-257
q-39 123 -133.5 189t-232.5 66q-189 0 -299.5 -141t-110.5 -384q0 -246 112.5 -388t305.5 -142q165 0 268 92t106 241l1 30h-347v202h599v-181z" />
    <glyph glyph-name="gdotaccent" unicode="&#x121;" horiz-adv-x="1295" 
d="M625 1281q-64 0 -106.5 43t-42.5 106t42.5 105.5t106.5 42.5q63 0 106 -43t43 -105q0 -63 -42.5 -106t-106.5 -43zM899 559q0 157 -74 249.5t-203 92.5q-128 0 -199.5 -92t-71.5 -250t71 -249.5t200 -91.5t203 92t74 249zM622 -416q-209 0 -339.5 85t-145.5 227h249
q12 -57 75.5 -90t164.5 -33q127 0 198 57t71 160v207h-17q-47 -88 -133.5 -134.5t-200.5 -46.5q-206 0 -327 147.5t-121 395.5q0 252 122 402.5t330 150.5q112 0 203 -52t136 -141h17v175h239v-1098q0 -190 -141 -301t-380 -111z" />
    <glyph glyph-name="Gcommaaccent" unicode="&#x122;" horiz-adv-x="1547" 
d="M798 -512h-225l121 364h253zM1426 578q0 -281 -171 -447.5t-460 -166.5q-314 0 -496 203.5t-182 554.5q0 346 183 551.5t491 205.5q250 0 419 -132t204 -353h-257q-39 123 -133.5 189t-232.5 66q-189 0 -299.5 -141t-110.5 -384q0 -246 112.5 -388t305.5 -142
q165 0 268 92t106 241l1 30h-347v202h599v-181z" />
    <glyph glyph-name="gcommaaccent" unicode="&#x123;" horiz-adv-x="1295" 
d="M646 1654h225l-121 -364h-253zM899 559q0 157 -74 249.5t-203 92.5q-128 0 -199.5 -92t-71.5 -250t71 -249.5t200 -91.5t203 92t74 249zM622 -416q-209 0 -339.5 85t-145.5 227h249q12 -57 75.5 -90t164.5 -33q127 0 198 57t71 160v207h-17q-47 -88 -133.5 -134.5
t-200.5 -46.5q-206 0 -327 147.5t-121 395.5q0 252 122 402.5t330 150.5q112 0 203 -52t136 -141h17v175h239v-1098q0 -190 -141 -301t-380 -111z" />
    <glyph glyph-name="Hcircumflex" unicode="&#x124;" horiz-adv-x="1573" 
d="M1395 0h-257v623h-702v-623h-258v1443h258v-597h702v597h257v-1443zM903 1906l290 -321h-242l-155 183h-18l-155 -183h-242l290 321h232z" />
    <glyph glyph-name="hcircumflex" unicode="&#x125;" horiz-adv-x="1297" 
d="M162 0v1517h244v-600h18q39 92 130.5 144.5t213.5 52.5q184 0 285.5 -106.5t101.5 -301.5v-706h-247v647q0 124 -59 187.5t-173 63.5q-122 0 -194 -72t-72 -191v-635h-248zM400 1980l290 -321h-242l-155 183h-18l-155 -183h-242l290 321h232z" />
    <glyph glyph-name="Hbar" unicode="&#x126;" horiz-adv-x="1525" 
d="M1114 846v216h-702v-216h702zM1502 1246v-184h-131v-1062h-257v623h-702v-623h-258v1062h-131v184h131v197h258v-197h702v197h257v-197h131z" />
    <glyph glyph-name="hbar" unicode="&#x127;" horiz-adv-x="1302" 
d="M404 917h18q39 92 131.5 144.5t215.5 52.5q185 0 288 -107t103 -301v-706h-248v647q0 124 -60 187.5t-175 63.5q-122 0 -195.5 -72.5t-73.5 -190.5v-635h-248v1270h-142v142h142v150h244v-150h253v-142h-253v-353z" />
    <glyph glyph-name="Itilde" unicode="&#x128;" horiz-adv-x="614" 
d="M436 0h-258v1443h258v-1443zM463 1576q-45 0 -83 15.5t-63.5 37t-48.5 43.5t-48 37.5t-52 15.5q-85 0 -90 -136h-166q0 141 65.5 220t173.5 79q47 0 87 -15.5t66.5 -37t49 -43.5t46 -37.5t46.5 -15.5q83 0 90 134h166q0 -137 -65.5 -217t-173.5 -80z" />
    <glyph glyph-name="itilde" unicode="&#x129;" horiz-adv-x="565" 
d="M159 0v1094h247v-1094h-247zM151 1393q-91 0 -92 -147h-171q0 142 68 226t183 84q43 0 80 -15t63 -37t48 -44t45 -37t44 -15q91 0 92 145h170q0 -142 -67.5 -225.5t-182.5 -83.5q-52 0 -97.5 23.5t-71.5 51t-56 51t-55 23.5z" />
    <glyph glyph-name="Imacron" unicode="&#x12a;" horiz-adv-x="614" 
d="M436 0h-258v1443h258v-1443zM667 1628h-720v164h720v-164z" />
    <glyph glyph-name="imacron" unicode="&#x12b;" horiz-adv-x="565" 
d="M159 0v1094h247v-1094h-247zM638 1305h-712v164h712v-164z" />
    <glyph glyph-name="Ibreve" unicode="&#x12c;" horiz-adv-x="614" 
d="M436 0h-258v1443h258v-1443zM-80 1900h188q2 -77 55.5 -122t143.5 -45t143.5 45t55.5 122h188q0 -145 -104.5 -233.5t-282.5 -88.5t-282.5 88.5t-104.5 233.5z" />
    <glyph glyph-name="ibreve" unicode="&#x12d;" horiz-adv-x="565" 
d="M159 0v1094h247v-1094h-247zM-106 1585h188q2 -84 54.5 -135t144.5 -51t144.5 51t54.5 135h188q0 -152 -104.5 -247t-282.5 -95t-282.5 95t-104.5 247z" />
    <glyph glyph-name="Iogonek" unicode="&#x12e;" horiz-adv-x="614" 
d="M452 -431q-53 -23 -138 -23q-110 0 -177 59.5t-67 157.5q0 148 148 252h-40v1428h258v-1437h-27q-151 -89 -151 -192q0 -48 33 -77t87 -29q38 0 74 9v-148z" />
    <glyph glyph-name="iogonek" unicode="&#x12f;" horiz-adv-x="565" 
d="M278 1272q-67 0 -110 38.5t-43 98.5t43 98.5t110 38.5q68 0 110.5 -38.5t42.5 -98.5t-42.5 -98.5t-110.5 -38.5zM419 -432q-54 -23 -138 -23q-110 0 -177 59.5t-67 157.5q0 147 153 253h-35v1079h247v-1082h-27q-151 -89 -151 -199q0 -49 33 -78t87 -29q37 0 75 9v-147z
" />
    <glyph glyph-name="Idotaccent" unicode="&#x130;" horiz-adv-x="614" 
d="M436 0h-258v1443h258v-1443zM307 1578q-62 0 -103 41.5t-41 102.5q0 62 40.5 103.5t103.5 41.5q62 0 103 -41.5t41 -103.5q0 -61 -41 -102.5t-103 -41.5z" />
    <glyph glyph-name="dotlessi" unicode="&#x131;" horiz-adv-x="565" 
d="M159 0v1094h247v-1094h-247z" />
    <glyph glyph-name="u0132" unicode="&#x132;" horiz-adv-x="1798" 
d="M436 0h-258v1443h258v-1443zM693 393h252q1 -89 58 -143t149 -54q102 0 156 60.5t54 176.5v1010h258v-1012q0 -222 -123 -344.5t-342 -122.5q-208 0 -335 117t-127 312z" />
    <glyph glyph-name="u0133" unicode="&#x133;" horiz-adv-x="1135" 
d="M155 0v1094h247v-1094h-247zM278 1272q-67 0 -110 38.5t-43 98.5t43 98.5t110 38.5q68 0 110.5 -38.5t42.5 -98.5t-42.5 -98.5t-110.5 -38.5zM970 1094v-1144q0 -333 -368 -333q-46 0 -60 2v196q3 -1 32 -1q82 0 115.5 32.5t33.5 107.5v1140h247zM846 1272
q-67 0 -110 38.5t-43 98.5t43 98.5t110 38.5q68 0 110.5 -38.5t42.5 -98.5t-42.5 -98.5t-110.5 -38.5z" />
    <glyph glyph-name="Jcircumflex" unicode="&#x134;" horiz-adv-x="1184" 
d="M79 393h252q1 -89 58 -143t149 -54q102 0 156 60.5t54 176.5v1010h258v-1012q0 -222 -123 -344.5t-342 -122.5q-208 0 -335 117t-127 312zM993 1906l290 -321h-242l-155 183h-18l-155 -183h-242l290 321h232z" />
    <glyph glyph-name="jcircumflex" unicode="&#x135;" horiz-adv-x="557" 
d="M398 1094v-1144q0 -333 -368 -333q-44 0 -60 2v196q4 -1 32 -1q82 0 115.5 32.5t33.5 107.5v1140h247zM409 1591l277 -348h-239l-159 215h-17l-159 -215h-239l277 348h259z" />
    <glyph glyph-name="Kcommaaccent" unicode="&#x136;" horiz-adv-x="1415" 
d="M436 0h-258v1443h258v-664h17l569 664h296l-545 -629l588 -814h-315l-456 637l-154 -177v-460zM681 -512h-225l121 364h253z" />
    <glyph glyph-name="kcommaaccent" unicode="&#x137;" horiz-adv-x="1188" 
d="M427 648l404 446h288l-436 -469l466 -625h-300l-351 469l-88 -88v-381h-248v1517h248v-869h17zM630 -512h-225l121 364h253z" />
    <glyph glyph-name="Lacute" unicode="&#x139;" horiz-adv-x="1198" 
d="M179 1585l288 310h283l-321 -310h-250zM1098 226v-226h-920v1443h258v-1217h662z" />
    <glyph glyph-name="lacute" unicode="&#x13a;" horiz-adv-x="571" 
d="M158 1659l288 310h283l-321 -310h-250zM162 0v1517h248v-1517h-248z" />
    <glyph glyph-name="Lcommaaccent" unicode="&#x13b;" horiz-adv-x="1198" 
d="M632 -512h-225l121 364h253zM1098 226v-226h-920v1443h258v-1217h662z" />
    <glyph glyph-name="lcommaaccent" unicode="&#x13c;" horiz-adv-x="571" 
d="M283 -512h-225l121 364h253zM162 0v1517h248v-1517h-248z" />
    <glyph glyph-name="Lcaron" unicode="&#x13d;" horiz-adv-x="1198" 
d="M643 1443h219l-50 -498h-169v498zM1098 226v-226h-920v1443h258v-1217h662z" />
    <glyph glyph-name="lcaron" unicode="&#x13e;" horiz-adv-x="716" 
d="M521 1517h221l-50 -498h-171v498zM162 0v1517h248v-1517h-248z" />
    <glyph glyph-name="Lslash" unicode="&#x141;" horiz-adv-x="1165" 
d="M436 226h662v-226h-920v682l-157 -77v182l157 77v579h258v-451l258 127v-183l-258 -127v-583z" />
    <glyph glyph-name="lslash" unicode="&#x142;" horiz-adv-x="571" 
d="M535 1058v-183l-125 -64v-811h-248v683l-126 -65v183l126 65v651h248v-523z" />
    <glyph glyph-name="Nacute" unicode="&#x143;" horiz-adv-x="1554" 
d="M646 1585l288 310h283l-321 -310h-250zM427 0h-249v1443h224l708 -981h17v981h248v-1443h-223l-708 982h-17v-982z" />
    <glyph glyph-name="nacute" unicode="&#x144;" horiz-adv-x="1275" 
d="M512 1275l249 347h277l-284 -347h-242zM152 0v1094h239v-175h17q39 92 130.5 144.5t213.5 52.5q183 0 282 -106t99 -302v-708h-247v649q0 251 -226 251q-120 0 -190 -71t-70 -192v-637h-248z" />
    <glyph glyph-name="Ncommaaccent" unicode="&#x145;" horiz-adv-x="1554" 
d="M771 -512h-225l121 364h253zM427 0h-249v1443h224l708 -981h17v981h248v-1443h-223l-708 982h-17v-982z" />
    <glyph glyph-name="ncommaaccent" unicode="&#x146;" horiz-adv-x="1275" 
d="M640 -512h-225l121 364h253zM152 0v1094h239v-175h17q39 92 130.5 144.5t213.5 52.5q183 0 282 -106t99 -302v-708h-247v649q0 251 -226 251q-120 0 -190 -71t-70 -192v-637h-248z" />
    <glyph glyph-name="Ncaron" unicode="&#x147;" horiz-adv-x="1554" 
d="M885 1585h-222l-288 310h235l155 -174h18l155 174h235zM427 0h-249v1443h224l708 -981h17v981h248v-1443h-223l-708 982h-17v-982z" />
    <glyph glyph-name="ncaron" unicode="&#x148;" horiz-adv-x="1275" 
d="M781 1243h-259l-277 348h239l159 -215h17l159 215h239zM152 0v1094h239v-175h17q39 92 130.5 144.5t213.5 52.5q183 0 282 -106t99 -302v-708h-247v649q0 251 -226 251q-120 0 -190 -71t-70 -192v-637h-248z" />
    <glyph glyph-name="Omacron" unicode="&#x14c;" horiz-adv-x="1599" 
d="M801 1479q314 0 497.5 -204t183.5 -553t-183 -553.5t-498 -204.5q-317 0 -500.5 204t-183.5 554q0 349 184.5 553t499.5 204zM801 1250q-193 0 -306.5 -143t-113.5 -385q0 -243 112.5 -386t307.5 -143q192 0 304.5 143.5t112.5 385.5t-112.5 385t-304.5 143zM1161 1628
h-720v164h720v-164z" />
    <glyph glyph-name="omacron" unicode="&#x14d;" horiz-adv-x="1248" 
d="M980 1305h-712v164h712v-164zM624 186q130 0 200.5 94.5t70.5 266.5q0 171 -71 266t-200 95q-130 0 -201 -95t-71 -266q0 -172 71 -266.5t201 -94.5zM624 -22q-246 0 -386 151.5t-140 417.5q0 264 141 416.5t385 152.5q245 0 385.5 -152t140.5 -417q0 -266 -140.5 -417.5
t-385.5 -151.5z" />
    <glyph glyph-name="Obreve" unicode="&#x14e;" horiz-adv-x="1599" 
d="M801 1479q314 0 497.5 -204t183.5 -553t-183 -553.5t-498 -204.5q-317 0 -500.5 204t-183.5 554q0 349 184.5 553t499.5 204zM801 1250q-193 0 -306.5 -143t-113.5 -385q0 -243 112.5 -386t307.5 -143q192 0 304.5 143.5t112.5 385.5t-112.5 385t-304.5 143zM414 1900
h188q2 -77 55.5 -122t143.5 -45t143.5 45t55.5 122h188q0 -145 -104.5 -233.5t-282.5 -88.5t-282.5 88.5t-104.5 233.5z" />
    <glyph glyph-name="obreve" unicode="&#x14f;" horiz-adv-x="1248" 
d="M236 1585h188q2 -84 54.5 -135t144.5 -51t144.5 51t54.5 135h188q0 -152 -104.5 -247t-282.5 -95t-282.5 95t-104.5 247zM624 186q130 0 200.5 94.5t70.5 266.5q0 171 -71 266t-200 95q-130 0 -201 -95t-71 -266q0 -172 71 -266.5t201 -94.5zM624 -22q-246 0 -386 151.5
t-140 417.5q0 264 141 416.5t385 152.5q245 0 385.5 -152t140.5 -417q0 -266 -140.5 -417.5t-385.5 -151.5z" />
    <glyph glyph-name="Ohungarumlaut" unicode="&#x150;" horiz-adv-x="1599" 
d="M863 1585l273 310h254l-297 -310h-230zM434 1585l273 310h254l-297 -310h-230zM801 1479q314 0 497.5 -204t183.5 -553t-183 -553.5t-498 -204.5q-317 0 -500.5 204t-183.5 554q0 349 184.5 553t499.5 204zM801 1250q-193 0 -306.5 -143t-113.5 -385q0 -243 112.5 -386
t307.5 -143q192 0 304.5 143.5t112.5 385.5t-112.5 385t-304.5 143z" />
    <glyph glyph-name="ohungarumlaut" unicode="&#x151;" horiz-adv-x="1248" 
d="M697 1275l227 347h241l-256 -347h-212zM274 1275l227 347h241l-256 -347h-212zM624 186q130 0 200.5 94.5t70.5 266.5q0 171 -71 266t-200 95q-130 0 -201 -95t-71 -266q0 -172 71 -266.5t201 -94.5zM624 -22q-246 0 -386 151.5t-140 417.5q0 264 141 416.5t385 152.5
q245 0 385.5 -152t140.5 -417q0 -266 -140.5 -417.5t-385.5 -151.5z" />
    <glyph glyph-name="OE" unicode="&#x152;" horiz-adv-x="2291" 
d="M814 1250q-197 0 -312 -142.5t-115 -385.5q0 -245 114.5 -387t312.5 -142q190 0 301 142.5t111 386.5t-111 386t-301 142zM1267 0v238h-18q-59 -123 -189.5 -198.5t-284.5 -75.5q-304 0 -477.5 202t-173.5 556q0 353 173.5 555t477.5 202q152 0 284.5 -74t189.5 -191h18
v229h908v-223h-688v-383h651v-210h-651v-404h688v-223h-908z" />
    <glyph glyph-name="oe" unicode="&#x153;" horiz-adv-x="2006" 
d="M1421 -22q-131 0 -236.5 54t-155.5 147h-17q-51 -92 -156 -146.5t-238 -54.5q-240 0 -378.5 152.5t-138.5 415.5q0 265 138.5 417.5t379.5 152.5q131 0 233.5 -53.5t160.5 -151.5h17q57 96 159.5 150.5t230.5 54.5q225 0 357.5 -148.5t132.5 -402.5v-80h-764v-13
q4 -137 77.5 -216.5t195.5 -79.5q189 0 245 125h233q-35 -150 -163 -236.5t-313 -86.5zM1410 919q-111 0 -183 -72.5t-81 -193.5h515q-4 122 -71.5 194t-179.5 72zM627 186q129 0 200 94.5t71 265.5q0 172 -71 267t-200 95t-200 -95t-71 -267q0 -171 71 -265.5t200 -94.5z
" />
    <glyph glyph-name="Racute" unicode="&#x154;" horiz-adv-x="1391" 
d="M508 1585l288 310h283l-321 -310h-250zM436 1229v-483h298q123 0 190.5 63t67.5 178q0 113 -70.5 177.5t-193.5 64.5h-292zM436 541v-541h-258v1443h586q227 0 360 -121.5t133 -329.5q0 -144 -72 -254.5t-200 -156.5l315 -581h-295l-283 541h-286z" />
    <glyph glyph-name="racute" unicode="&#x155;" horiz-adv-x="838" 
d="M283 1275l249 347h277l-284 -347h-242zM152 0v1094h239v-170h17q23 82 103 135t184 53q64 0 102 -11v-230q-38 14 -126 14q-120 0 -195.5 -69.5t-75.5 -183.5v-632h-248z" />
    <glyph glyph-name="Rcommaaccent" unicode="&#x156;" horiz-adv-x="1391" 
d="M436 1229v-483h298q123 0 190.5 63t67.5 178q0 113 -70.5 177.5t-193.5 64.5h-292zM436 541v-541h-258v1443h586q227 0 360 -121.5t133 -329.5q0 -144 -72 -254.5t-200 -156.5l315 -581h-295l-283 541h-286zM633 -512h-225l121 364h253z" />
    <glyph glyph-name="rcommaaccent" unicode="&#x157;" horiz-adv-x="838" 
d="M152 0v1094h239v-170h17q23 82 103 135t184 53q64 0 102 -11v-230q-38 14 -126 14q-120 0 -195.5 -69.5t-75.5 -183.5v-632h-248zM271 -512h-225l121 364h253z" />
    <glyph glyph-name="Rcaron" unicode="&#x158;" horiz-adv-x="1391" 
d="M436 1229v-483h298q123 0 190.5 63t67.5 178q0 113 -70.5 177.5t-193.5 64.5h-292zM436 541v-541h-258v1443h586q227 0 360 -121.5t133 -329.5q0 -144 -72 -254.5t-200 -156.5l315 -581h-295l-283 541h-286zM747 1585h-222l-288 310h235l155 -174h18l155 174h235z" />
    <glyph glyph-name="rcaron" unicode="&#x159;" horiz-adv-x="838" 
d="M552 1243h-259l-277 348h239l159 -215h17l159 215h239zM152 0v1094h239v-170h17q23 82 103 135t184 53q64 0 102 -11v-230q-38 14 -126 14q-120 0 -195.5 -69.5t-75.5 -183.5v-632h-248z" />
    <glyph glyph-name="Sacute" unicode="&#x15a;" horiz-adv-x="1354" 
d="M557 1585l288 310h283l-321 -310h-250zM112 392h252q12 -97 101 -154.5t226 -57.5q128 0 210.5 58.5t82.5 149.5q0 78 -62.5 127t-201.5 81l-187 43q-196 44 -290.5 143.5t-94.5 260.5q0 197 147.5 316.5t389.5 119.5q227 0 376 -118t158 -304h-247q-13 95 -91 151
t-197 56q-125 0 -200.5 -55.5t-75.5 -147.5q0 -73 59 -118.5t193 -76.5l166 -38q219 -49 317.5 -146t98.5 -262q0 -211 -152.5 -333.5t-414.5 -122.5q-248 0 -400.5 116t-162.5 312z" />
    <glyph glyph-name="sacute" unicode="&#x15b;" horiz-adv-x="1128" 
d="M127 781q0 148 122 241.5t316 93.5q195 0 311.5 -82.5t129.5 -231.5h-233q-14 59 -67.5 92.5t-139.5 33.5t-142 -37t-56 -96q0 -46 39.5 -76t122.5 -49l193 -44q158 -36 232 -107t74 -191q0 -157 -130 -253.5t-336 -96.5q-205 0 -327.5 84t-136.5 233h245
q18 -62 75.5 -95.5t149.5 -33.5q94 0 153 37.5t59 98.5q0 91 -151 124l-194 45q-158 36 -233.5 111.5t-75.5 198.5zM425 1275l249 347h277l-284 -347h-242z" />
    <glyph glyph-name="Scircumflex" unicode="&#x15c;" horiz-adv-x="1354" 
d="M112 392h252q12 -97 101 -154.5t226 -57.5q128 0 210.5 58.5t82.5 149.5q0 78 -62.5 127t-201.5 81l-187 43q-196 44 -290.5 143.5t-94.5 260.5q0 197 147.5 316.5t389.5 119.5q227 0 376 -118t158 -304h-247q-13 95 -91 151t-197 56q-125 0 -200.5 -55.5t-75.5 -147.5
q0 -73 59 -118.5t193 -76.5l166 -38q219 -49 317.5 -146t98.5 -262q0 -211 -152.5 -333.5t-414.5 -122.5q-248 0 -400.5 116t-162.5 312zM801 1906l290 -321h-242l-155 183h-18l-155 -183h-242l290 321h232z" />
    <glyph glyph-name="scircumflex" unicode="&#x15d;" horiz-adv-x="1128" 
d="M694 1591l277 -348h-239l-159 215h-17l-159 -215h-239l277 348h259zM127 781q0 148 122 241.5t316 93.5q195 0 311.5 -82.5t129.5 -231.5h-233q-14 59 -67.5 92.5t-139.5 33.5t-142 -37t-56 -96q0 -46 39.5 -76t122.5 -49l193 -44q158 -36 232 -107t74 -191
q0 -157 -130 -253.5t-336 -96.5q-205 0 -327.5 84t-136.5 233h245q18 -62 75.5 -95.5t149.5 -33.5q94 0 153 37.5t59 98.5q0 91 -151 124l-194 45q-158 36 -233.5 111.5t-75.5 198.5z" />
    <glyph glyph-name="Scedilla" unicode="&#x15e;" horiz-adv-x="1354" 
d="M660 866l166 -38q219 -49 317.5 -146t98.5 -262q0 -194 -129.5 -314t-357.5 -139l-36 -90q98 -4 150.5 -48.5t52.5 -123.5q0 -92 -68 -145.5t-191 -53.5q-89 0 -146 18v124q44 -14 118 -14q114 0 114 64q0 32 -32 46t-105 14h-59v104l43 105q-215 19 -345 132t-139 293
h252q12 -97 101 -154.5t226 -57.5q128 0 210.5 58.5t82.5 149.5q0 78 -62.5 127t-201.5 81l-187 43q-196 44 -290.5 143.5t-94.5 260.5q0 197 147.5 316.5t389.5 119.5q227 0 376 -118t158 -304h-247q-13 95 -91 151t-197 56q-125 0 -200.5 -55.5t-75.5 -147.5
q0 -73 59 -118.5t193 -76.5z" />
    <glyph glyph-name="scedilla" unicode="&#x15f;" horiz-adv-x="1128" 
d="M530 670l193 -44q158 -36 232 -107t74 -191q0 -139 -104 -232t-275 -113l-43 -106q98 -4 150.5 -48.5t52.5 -123.5q0 -92 -68 -145.5t-191 -53.5q-89 0 -146 18v124q44 -14 118 -14q114 0 114 64q0 32 -32 46t-105 14h-59v104l49 119q-174 15 -276 97t-115 217h245
q18 -62 75.5 -95.5t149.5 -33.5q94 0 153 37.5t59 98.5q0 91 -151 124l-194 45q-158 36 -233.5 111.5t-75.5 198.5q0 148 122 241.5t316 93.5q195 0 311.5 -82.5t129.5 -231.5h-233q-14 59 -67.5 92.5t-139.5 33.5t-142 -37t-56 -96q0 -46 39.5 -76t122.5 -49z" />
    <glyph glyph-name="Scaron" unicode="&#x160;" horiz-adv-x="1354" 
d="M112 392h252q12 -97 101 -154.5t226 -57.5q128 0 210.5 58.5t82.5 149.5q0 78 -62.5 127t-201.5 81l-187 43q-196 44 -290.5 143.5t-94.5 260.5q0 197 147.5 316.5t389.5 119.5q227 0 376 -118t158 -304h-247q-13 95 -91 151t-197 56q-125 0 -200.5 -55.5t-75.5 -147.5
q0 -73 59 -118.5t193 -76.5l166 -38q219 -49 317.5 -146t98.5 -262q0 -211 -152.5 -333.5t-414.5 -122.5q-248 0 -400.5 116t-162.5 312zM796 1585h-222l-288 310h235l155 -174h18l155 174h235z" />
    <glyph glyph-name="scaron" unicode="&#x161;" horiz-adv-x="1128" 
d="M694 1243h-259l-277 348h239l159 -215h17l159 215h239zM127 781q0 148 122 241.5t316 93.5q195 0 311.5 -82.5t129.5 -231.5h-233q-14 59 -67.5 92.5t-139.5 33.5t-142 -37t-56 -96q0 -46 39.5 -76t122.5 -49l193 -44q158 -36 232 -107t74 -191q0 -157 -130 -253.5
t-336 -96.5q-205 0 -327.5 84t-136.5 233h245q18 -62 75.5 -95.5t149.5 -33.5q94 0 153 37.5t59 98.5q0 91 -151 124l-194 45q-158 36 -233.5 111.5t-75.5 198.5z" />
    <glyph glyph-name="Tcedilla" unicode="&#x162;" horiz-adv-x="1332" 
d="M795 0h-34l-49 -123q98 -4 150.5 -48.5t52.5 -123.5q0 -92 -68 -145.5t-191 -53.5q-89 0 -146 18v124q44 -14 118 -14q114 0 114 64q0 32 -32 46t-105 14h-59v104l56 138h-65v1220h-444v223h1147v-223h-445v-1220z" />
    <glyph glyph-name="tcedilla" unicode="&#x163;" horiz-adv-x="808" 
d="M444 -494q-83 0 -147 18v125q40 -14 119 -14q114 0 114 64q0 31 -32 45t-105 14h-60v104l64 157q-87 28 -126.5 94t-39.5 179v597h-178v198h178v268h247v-268h240v-198h-240v-537q0 -81 36 -118.5t114 -37.5q34 0 82 5v-194q-60 -12 -127 -12q-24 0 -36 1l-47 -119
q97 -3 150 -48t53 -124q0 -92 -68.5 -145.5t-190.5 -53.5z" />
    <glyph glyph-name="Tcaron" unicode="&#x164;" horiz-adv-x="1332" 
d="M775 1585h-222l-288 310h235l155 -174h18l155 174h235zM795 0h-258v1220h-444v223h1147v-223h-445v-1220z" />
    <glyph glyph-name="tcaron" unicode="&#x165;" horiz-adv-x="808" 
d="M764 1231h-172v499h222zM231 1355h247v-268h240v-198h-240v-537q0 -81 36 -118.5t114 -37.5q34 0 82 5v-194q-60 -12 -128 -12q-188 0 -269.5 69t-81.5 228v597h-178v198h178v268z" />
    <glyph glyph-name="Tbar" unicode="&#x166;" horiz-adv-x="1332" 
d="M1240 1220h-445v-422h289v-191h-289v-607h-258v607h-293v191h293v422h-444v223h1147v-223z" />
    <glyph glyph-name="tbar" unicode="&#x167;" horiz-adv-x="805" 
d="M724 493h-246v-141q0 -81 36 -118.5t114 -37.5q34 0 82 5v-194q-60 -12 -128 -12q-188 0 -269.5 69t-81.5 228v201h-175v155h175v241h-178v198h178v268h247v-268h240v-198h-240v-241h246v-155z" />
    <glyph glyph-name="Utilde" unicode="&#x168;" horiz-adv-x="1550" 
d="M439 1443v-922q0 -149 89 -237.5t247 -88.5t246.5 88.5t88.5 237.5v922h258v-946q0 -239 -161 -386t-432 -147t-432 147t-161 386v946h257zM931 1576q-45 0 -83 15.5t-63.5 37t-48.5 43.5t-48 37.5t-52 15.5q-85 0 -90 -136h-166q0 141 65.5 220t173.5 79q47 0 87 -15.5
t66.5 -37t49 -43.5t46 -37.5t46.5 -15.5q83 0 90 134h166q0 -137 -65.5 -217t-173.5 -80z" />
    <glyph glyph-name="utilde" unicode="&#x169;" horiz-adv-x="1283" 
d="M1127 1094v-1094h-239v174h-17q-40 -94 -128.5 -145t-210.5 -51q-182 0 -286 107.5t-104 300.5v708h248v-649q0 -249 228 -249q120 0 190.5 70t70.5 191v637h248zM508 1393q-91 0 -92 -147h-171q0 142 68 226t183 84q43 0 80 -15t63 -37t48 -44t45 -37t44 -15
q91 0 92 145h170q0 -142 -67.5 -225.5t-182.5 -83.5q-52 0 -97.5 23.5t-71.5 51t-56 51t-55 23.5z" />
    <glyph glyph-name="Umacron" unicode="&#x16a;" horiz-adv-x="1550" 
d="M439 1443v-922q0 -149 89 -237.5t247 -88.5t246.5 88.5t88.5 237.5v922h258v-946q0 -239 -161 -386t-432 -147t-432 147t-161 386v946h257zM1135 1628h-720v164h720v-164z" />
    <glyph glyph-name="umacron" unicode="&#x16b;" horiz-adv-x="1283" 
d="M1127 1094v-1094h-239v174h-17q-40 -94 -128.5 -145t-210.5 -51q-182 0 -286 107.5t-104 300.5v708h248v-649q0 -249 228 -249q120 0 190.5 70t70.5 191v637h248zM995 1305h-712v164h712v-164z" />
    <glyph glyph-name="Ubreve" unicode="&#x16c;" horiz-adv-x="1550" 
d="M439 1443v-922q0 -149 89 -237.5t247 -88.5t246.5 88.5t88.5 237.5v922h258v-946q0 -239 -161 -386t-432 -147t-432 147t-161 386v946h257zM388 1900h188q2 -77 55.5 -122t143.5 -45t143.5 45t55.5 122h188q0 -145 -104.5 -233.5t-282.5 -88.5t-282.5 88.5t-104.5 233.5z
" />
    <glyph glyph-name="ubreve" unicode="&#x16d;" horiz-adv-x="1283" 
d="M1127 1094v-1094h-239v174h-17q-40 -94 -128.5 -145t-210.5 -51q-182 0 -286 107.5t-104 300.5v708h248v-649q0 -249 228 -249q120 0 190.5 70t70.5 191v637h248zM251 1585h188q2 -84 54.5 -135t144.5 -51t144.5 51t54.5 135h188q0 -152 -104.5 -247t-282.5 -95
t-282.5 95t-104.5 247z" />
    <glyph glyph-name="Uring" unicode="&#x16e;" horiz-adv-x="1550" 
d="M775 1576q-102 0 -171.5 67.5t-69.5 168.5t69.5 168t171.5 67t171 -67t69 -168t-69 -168.5t-171 -67.5zM775 1701q48 0 79.5 31.5t31.5 78.5q0 48 -31.5 79.5t-79.5 31.5q-49 0 -80.5 -32t-31.5 -79t31.5 -78.5t80.5 -31.5zM439 1443v-922q0 -149 89 -237.5t247 -88.5
t246.5 88.5t88.5 237.5v922h258v-946q0 -239 -161 -386t-432 -147t-432 147t-161 386v946h257z" />
    <glyph glyph-name="uring" unicode="&#x16f;" horiz-adv-x="1283" 
d="M1127 1094v-1094h-239v174h-17q-40 -94 -128.5 -145t-210.5 -51q-182 0 -286 107.5t-104 300.5v708h248v-649q0 -249 228 -249q120 0 190.5 70t70.5 191v637h248zM639 1243q-102 0 -171.5 67.5t-69.5 168.5t69.5 168t171.5 67t171 -67t69 -168t-69 -168.5t-171 -67.5z
M639 1368q48 0 79.5 31.5t31.5 78.5q0 48 -31.5 79.5t-79.5 31.5q-49 0 -80.5 -31.5t-31.5 -79.5q0 -47 31.5 -78.5t80.5 -31.5z" />
    <glyph glyph-name="Uhungarumlaut" unicode="&#x170;" horiz-adv-x="1550" 
d="M439 1443v-922q0 -149 89 -237.5t247 -88.5t246.5 88.5t88.5 237.5v922h258v-946q0 -239 -161 -386t-432 -147t-432 147t-161 386v946h257zM837 1585l273 310h254l-297 -310h-230zM408 1585l273 310h254l-297 -310h-230z" />
    <glyph glyph-name="uhungarumlaut" unicode="&#x171;" horiz-adv-x="1283" 
d="M712 1275l227 347h241l-256 -347h-212zM289 1275l227 347h241l-256 -347h-212zM1127 1094v-1094h-239v174h-17q-40 -94 -128.5 -145t-210.5 -51q-182 0 -286 107.5t-104 300.5v708h248v-649q0 -249 228 -249q120 0 190.5 70t70.5 191v637h248z" />
    <glyph glyph-name="Uogonek" unicode="&#x172;" horiz-adv-x="1550" 
d="M995 -455q-107 0 -174 59t-67 153q0 117 107 204v18q-31 -14 -84 -14q-271 0 -433 145t-162 387v946h257v-922q0 -151 90.5 -238.5t245.5 -87.5t245 87.5t90 238.5v922h258v-946q0 -91 -23.5 -167t-61 -127.5t-83.5 -95t-91.5 -77.5t-83 -66t-61 -71t-23.5 -82
q0 -47 33.5 -76t86.5 -29q37 0 75 9v-147q-51 -23 -141 -23z" />
    <glyph glyph-name="uogonek" unicode="&#x173;" horiz-adv-x="1279" 
d="M1116 -436q-54 -18 -116 -18q-110 0 -177 59.5t-67 157.5q0 152 163 252h-31v159h-17q-40 -94 -128.5 -145t-210.5 -51q-182 0 -286 107.5t-104 300.5v708h248v-649q0 -249 228 -249q120 0 190.5 70t70.5 191v637h248v-1082h-28q-75 -38 -115.5 -88.5t-40.5 -105.5
q0 -50 32.5 -80t86.5 -30q27 0 54 5v-149z" />
    <glyph glyph-name="Wcircumflex" unicode="&#x174;" horiz-adv-x="2036" 
d="M1134 1906l290 -321h-242l-155 183h-18l-155 -183h-242l290 321h232zM1010 1022l-292 -1022h-243l-387 1443h269l247 -1074h15l284 1074h229l288 -1074h14l247 1074h267l-387 -1443h-242l-294 1022h-15z" />
    <glyph glyph-name="wcircumflex" unicode="&#x175;" horiz-adv-x="1681" 
d="M971 1591l277 -348h-239l-159 215h-17l-159 -215h-239l277 348h259zM1617 1094l-296 -1094h-261l-213 788h-17l-212 -788h-258l-296 1094h250l182 -817h17l210 817h237l212 -817h17l181 817h247z" />
    <glyph glyph-name="Ycircumflex" unicode="&#x176;" horiz-adv-x="1412" 
d="M835 0h-258v564l-506 879h283l344 -617h17l343 617h283l-506 -879v-564zM822 1906l290 -321h-242l-155 183h-18l-155 -183h-242l290 321h232z" />
    <glyph glyph-name="ycircumflex" unicode="&#x177;" horiz-adv-x="1183" 
d="M272 -398q-77 0 -98 4v202q21 -3 68 -3q79 0 125.5 33.5t70.5 108.5l13 48l-391 1099h272l256 -854h17l255 854h262l-395 -1129q-70 -203 -170.5 -283t-284.5 -80zM721 1591l277 -348h-239l-159 215h-17l-159 -215h-239l277 348h259z" />
    <glyph glyph-name="Ydieresis" unicode="&#x178;" horiz-adv-x="1412" 
d="M835 0h-258v564l-506 879h283l344 -617h17l343 617h283l-506 -879v-564zM483 1577q-61 0 -102 40.5t-41 100.5t41 100.5t102 40.5t102 -40.5t41 -100.5t-41 -100.5t-102 -40.5zM928 1577q-61 0 -102 40.5t-41 100.5t41 100.5t102 40.5t102 -40.5t41 -100.5t-41 -100.5
t-102 -40.5z" />
    <glyph glyph-name="Zacute" unicode="&#x179;" horiz-adv-x="1373" 
d="M559 1585l288 310h283l-321 -310h-250zM138 0v176l759 1027v17h-738v223h1057v-176l-756 -1027v-17h775v-223h-1097z" />
    <glyph glyph-name="zacute" unicode="&#x17a;" horiz-adv-x="1140" 
d="M425 1275l249 347h277l-284 -347h-242zM127 0v155l581 722v17h-576v200h872v-169l-560 -708v-17h569v-200h-886z" />
    <glyph glyph-name="Zdotaccent" unicode="&#x17b;" horiz-adv-x="1373" 
d="M687 1578q-62 0 -103 41.5t-41 102.5q0 62 40.5 103.5t103.5 41.5q62 0 103 -41.5t41 -103.5q0 -61 -41 -102.5t-103 -41.5zM138 0v176l759 1027v17h-738v223h1057v-176l-756 -1027v-17h775v-223h-1097z" />
    <glyph glyph-name="zdotaccent" unicode="&#x17c;" horiz-adv-x="1140" 
d="M565 1281q-64 0 -106.5 43t-42.5 106t42.5 105.5t106.5 42.5q63 0 106 -43t43 -105q0 -63 -42.5 -106t-106.5 -43zM127 0v155l581 722v17h-576v200h872v-169l-560 -708v-17h569v-200h-886z" />
    <glyph glyph-name="Zcaron" unicode="&#x17d;" horiz-adv-x="1373" 
d="M138 0v176l759 1027v17h-738v223h1057v-176l-756 -1027v-17h775v-223h-1097zM798 1585h-222l-288 310h235l155 -174h18l155 174h235z" />
    <glyph glyph-name="zcaron" unicode="&#x17e;" horiz-adv-x="1140" 
d="M694 1243h-259l-277 348h239l159 -215h17l159 215h239zM127 0v155l581 722v17h-576v200h872v-169l-560 -708v-17h569v-200h-886z" />
    <glyph glyph-name="florin" unicode="&#x192;" horiz-adv-x="1383" 
d="M313 -24q-121 0 -217 24v218q87 -29 187 -29q195 0 223 187l47 306h-324v191h352l31 202q29 191 146 289t316 98q125 0 206 -17v-213q-70 19 -176 19q-210 0 -240 -201l-27 -177h356v-191h-385l-48 -320q-30 -200 -140.5 -293t-306.5 -93z" />
    <glyph glyph-name="Ohorn" unicode="&#x1a0;" horiz-adv-x="1674" 
d="M1482 719q0 -348 -184.5 -551.5t-498.5 -203.5t-498 204t-184 553t183.5 553.5t495.5 204.5q83 0 155.5 -15.5t121.5 -37.5t89.5 -44.5t78 -38t69.5 -15.5q99 0 99 142v175h204v-253q0 -110 -48.5 -172t-135.5 -62q-23 0 -37 8l-13 -14q103 -186 103 -433zM801 1250
q-193 0 -306.5 -143.5t-113.5 -385.5t113.5 -385t305.5 -143t305 143.5t113 385.5t-112.5 385t-304.5 143z" />
    <glyph glyph-name="ohorn" unicode="&#x1a1;" horiz-adv-x="1393" 
d="M352 546q0 -171 71 -265.5t201 -94.5q129 0 200 94.5t71 265.5q0 172 -71 267t-200 95t-200.5 -95t-71.5 -267zM1150 544q0 -264 -141.5 -415t-388.5 -151q-240 0 -381 153t-141 413q0 261 140.5 416.5t377.5 155.5q89 0 165.5 -24t118.5 -52.5t87 -52.5t79 -24
q49 0 72 29.5t23 98.5v171h205v-236q0 -112 -53.5 -177t-141.5 -65q-25 0 -53 8l-10 -11q42 -121 42 -237z" />
    <glyph glyph-name="Uhorn" unicode="&#x1af;" horiz-adv-x="1791" 
d="M1371 1372q40 -28 87 -24q48 3 69 35t21 103v163h204v-217q0 -127 -70 -201.5t-189 -74.5q-31 0 -69.5 8t-55.5 21v-688q0 -241 -162.5 -387t-430.5 -146q-269 0 -431 146t-162 387v946h257v-922q0 -151 90.5 -238.5t245.5 -87.5t245 87.5t90 238.5v922h261v-71z" />
    <glyph glyph-name="uhorn" unicode="&#x1b0;" horiz-adv-x="1504" 
d="M869 174q-40 -94 -128.5 -145t-210.5 -51q-184 0 -287 108.5t-103 299.5v708h248v-649q0 -249 228 -249q121 0 191.5 70t70.5 191v637h250v-60q42 -28 90 -22q46 4 66.5 36t20.5 100v163h205v-217q0 -127 -70 -201.5t-190 -74.5q-31 0 -69.5 8t-55.5 21v-847h-239v174
h-17z" />
    <glyph glyph-name="u01C4" unicode="&#x1c4;" horiz-adv-x="2894" 
d="M178 1443h541q322 0 500.5 -187.5t178.5 -527.5q0 -347 -177.5 -537.5t-501.5 -190.5h-541v1443zM436 1220v-997h249q216 0 333 130t117 371q0 236 -118.5 366t-331.5 130h-249zM1659 0v176l759 1027v17h-738v223h1057v-176l-756 -1027v-17h775v-223h-1097zM2319 1585
h-222l-288 310h235l155 -174h18l155 174h235z" />
    <glyph glyph-name="u01C5" unicode="&#x1c5;" horiz-adv-x="2660" 
d="M178 1443h541q322 0 500.5 -187.5t178.5 -527.5q0 -347 -177.5 -537.5t-501.5 -190.5h-541v1443zM436 1220v-997h249q216 0 333 130t117 371q0 236 -118.5 366t-331.5 130h-249zM2215 1243h-259l-277 348h239l159 -215h17l159 215h239zM1648 0v155l581 722v17h-576v200
h872v-169l-560 -708v-17h569v-200h-886z" />
    <glyph glyph-name="u01C6" unicode="&#x1c6;" horiz-adv-x="2452" 
d="M548 -18q-208 0 -329 152.5t-121 413.5q0 259 121.5 411.5t328.5 152.5q112 0 200 -51t132 -141h17v597h248v-1517h-240v173h-17q-47 -90 -136.5 -140.5t-203.5 -50.5zM625 901q-127 0 -200 -94.5t-73 -259.5q0 -166 72.5 -260t200.5 -94t201.5 94.5t73.5 259.5
q0 164 -74 259t-201 95zM2006 1243h-259l-277 348h239l159 -215h17l159 215h239zM1439 0v155l581 722v17h-576v200h872v-169l-560 -708v-17h569v-200h-886z" />
    <glyph glyph-name="u01C7" unicode="&#x1c7;" horiz-adv-x="2379" 
d="M1274 393h252q1 -89 58 -143t149 -54q102 0 156 60.5t54 176.5v1010h258v-1012q0 -222 -123 -344.5t-342 -122.5q-208 0 -335 117t-127 312zM1098 226v-226h-920v1443h258v-1217h662z" />
    <glyph glyph-name="u01C8" unicode="&#x1c8;" horiz-adv-x="1762" 
d="M1597 1094v-1144q0 -333 -368 -333q-46 0 -60 2v196q3 -1 32 -1q82 0 115.5 32.5t33.5 107.5v1140h247zM1473 1272q-67 0 -110 38.5t-43 98.5t43 98.5t110 38.5q68 0 110.5 -38.5t42.5 -98.5t-42.5 -98.5t-110.5 -38.5zM1098 226v-226h-920v1443h258v-1217h662z" />
    <glyph glyph-name="u01C9" unicode="&#x1c9;" horiz-adv-x="1135" 
d="M970 1094v-1144q0 -333 -368 -333q-46 0 -60 2v196q3 -1 32 -1q82 0 115.5 32.5t33.5 107.5v1140h247zM846 1272q-67 0 -110 38.5t-43 98.5t43 98.5t110 38.5q68 0 110.5 -38.5t42.5 -98.5t-42.5 -98.5t-110.5 -38.5zM162 0v1517h248v-1517h-248z" />
    <glyph glyph-name="u01CA" unicode="&#x1ca;" horiz-adv-x="2738" 
d="M1633 393h252q1 -89 58 -143t149 -54q102 0 156 60.5t54 176.5v1010h258v-1012q0 -222 -123 -344.5t-342 -122.5q-208 0 -335 117t-127 312zM427 0h-249v1443h224l708 -981h17v981h248v-1443h-223l-708 982h-17v-982z" />
    <glyph glyph-name="u01CB" unicode="&#x1cb;" horiz-adv-x="2121" 
d="M1956 1094v-1144q0 -333 -368 -333q-46 0 -60 2v196q3 -1 32 -1q82 0 115.5 32.5t33.5 107.5v1140h247zM1832 1272q-67 0 -110 38.5t-43 98.5t43 98.5t110 38.5q68 0 110.5 -38.5t42.5 -98.5t-42.5 -98.5t-110.5 -38.5zM427 0h-249v1443h224l708 -981h17v981h248v-1443
h-223l-708 982h-17v-982z" />
    <glyph glyph-name="u01CC" unicode="&#x1cc;" horiz-adv-x="1849" 
d="M1684 1094v-1144q0 -333 -368 -333q-46 0 -60 2v196q3 -1 32 -1q82 0 115.5 32.5t33.5 107.5v1140h247zM1560 1272q-67 0 -110 38.5t-43 98.5t43 98.5t110 38.5q68 0 110.5 -38.5t42.5 -98.5t-42.5 -98.5t-110.5 -38.5zM152 0v1094h239v-175h17q39 92 130.5 144.5
t213.5 52.5q183 0 282 -106t99 -302v-708h-247v649q0 251 -226 251q-120 0 -190 -71t-70 -192v-637h-248z" />
    <glyph glyph-name="Acaron" unicode="&#x1cd;" horiz-adv-x="1456" 
d="M1109 0l-122 369h-531l-124 -369h-261l512 1443h290l513 -1443h-277zM714 1168l-198 -595h411l-196 595h-17zM839 1585h-222l-288 310h235l155 -174h18l155 174h235z" />
    <glyph glyph-name="acaron" unicode="&#x1ce;" horiz-adv-x="1179" 
d="M526 177q112 0 187 64.5t75 159.5v87l-247 -16q-204 -13 -204 -148q0 -68 52.5 -107.5t136.5 -39.5zM453 -18q-160 0 -261 90t-101 238t107.5 232t307.5 96l282 17v92q0 81 -53 124t-153 43q-86 0 -142 -29.5t-73 -84.5h-234q15 145 140.5 230.5t320.5 85.5
q210 0 324.5 -97t114.5 -272v-747h-239v150h-17q-46 -79 -131.5 -123.5t-192.5 -44.5zM723 1243h-259l-277 348h239l159 -215h17l159 215h239z" />
    <glyph glyph-name="Icaron" unicode="&#x1cf;" horiz-adv-x="614" 
d="M436 0h-258v1443h258v-1443zM418 1585h-222l-288 310h235l155 -174h18l155 174h235z" />
    <glyph glyph-name="icaron" unicode="&#x1d0;" horiz-adv-x="565" 
d="M411 1243h-259l-277 348h239l159 -215h17l159 215h239zM159 0v1094h247v-1094h-247z" />
    <glyph glyph-name="Ocaron" unicode="&#x1d1;" horiz-adv-x="1599" 
d="M912 1585h-222l-288 310h235l155 -174h18l155 174h235zM801 1479q314 0 497.5 -204t183.5 -553t-183 -553.5t-498 -204.5q-317 0 -500.5 204t-183.5 554q0 349 184.5 553t499.5 204zM801 1250q-193 0 -306.5 -143t-113.5 -385q0 -243 112.5 -386t307.5 -143
q192 0 304.5 143.5t112.5 385.5t-112.5 385t-304.5 143z" />
    <glyph glyph-name="ocaron" unicode="&#x1d2;" horiz-adv-x="1248" 
d="M753 1243h-259l-277 348h239l159 -215h17l159 215h239zM624 186q130 0 200.5 94.5t70.5 266.5q0 171 -71 266t-200 95q-130 0 -201 -95t-71 -266q0 -172 71 -266.5t201 -94.5zM624 -22q-246 0 -386 151.5t-140 417.5q0 264 141 416.5t385 152.5q245 0 385.5 -152
t140.5 -417q0 -266 -140.5 -417.5t-385.5 -151.5z" />
    <glyph glyph-name="Ucaron" unicode="&#x1d3;" horiz-adv-x="1550" 
d="M886 1585h-222l-288 310h235l155 -174h18l155 174h235zM439 1443v-922q0 -149 89 -237.5t247 -88.5t246.5 88.5t88.5 237.5v922h258v-946q0 -239 -161 -386t-432 -147t-432 147t-161 386v946h257z" />
    <glyph glyph-name="ucaron" unicode="&#x1d4;" horiz-adv-x="1283" 
d="M768 1243h-259l-277 348h239l159 -215h17l159 215h239zM1127 1094v-1094h-239v174h-17q-40 -94 -128.5 -145t-210.5 -51q-182 0 -286 107.5t-104 300.5v708h248v-649q0 -249 228 -249q120 0 190.5 70t70.5 191v637h248z" />
    <glyph glyph-name="Udieresismacron" unicode="&#x1d5;" horiz-adv-x="1550" 
d="M439 1443v-922q0 -149 89 -237.5t247 -88.5t246.5 88.5t88.5 237.5v922h258v-946q0 -239 -161 -386t-432 -147t-432 147t-161 386v946h257zM415 1973v154h720v-154h-720zM553 1578q-61 0 -101 39.5t-40 98.5t40 98.5t101 39.5q60 0 100 -39.5t40 -98.5t-40 -98.5
t-100 -39.5zM997 1578q-60 0 -100 39.5t-40 98.5t40 98.5t100 39.5q61 0 101 -39.5t40 -98.5t-40 -98.5t-101 -39.5z" />
    <glyph glyph-name="udieresismacron" unicode="&#x1d6;" horiz-adv-x="1283" 
d="M1127 1094v-1094h-239v174h-17q-40 -94 -128.5 -145t-210.5 -51q-182 0 -286 107.5t-104 300.5v708h248v-649q0 -249 228 -249q120 0 190.5 70t70.5 191v637h248zM425 1243q-58 0 -97 38.5t-39 95.5t39 96t97 39t96.5 -39t38.5 -96t-38.5 -95.5t-96.5 -38.5zM853 1243
q-58 0 -96.5 38.5t-38.5 95.5t38.5 96t96.5 39t97 -39t39 -96t-39 -95.5t-97 -38.5zM995 1657h-712v164h712v-164z" />
    <glyph glyph-name="Udieresisacute" unicode="&#x1d7;" horiz-adv-x="1550" 
d="M667 1914l189 235h268l-241 -235h-216zM552 1577q-61 0 -102 40.5t-41 100.5t41 100.5t102 40.5t102 -40.5t41 -100.5t-41 -100.5t-102 -40.5zM997 1577q-61 0 -102 40.5t-41 100.5t41 100.5t102 40.5t102 -40.5t41 -100.5t-41 -100.5t-102 -40.5zM439 1443v-922
q0 -149 89 -237.5t247 -88.5t246.5 88.5t88.5 237.5v922h258v-946q0 -239 -161 -386t-432 -147t-432 147t-161 386v946h257z" />
    <glyph glyph-name="udieresisacute" unicode="&#x1d8;" horiz-adv-x="1283" 
d="M522 1617l200 311h250l-236 -311h-214zM416 1246q-61 0 -102 40.5t-41 100.5t41 100.5t102 40.5t102 -40.5t41 -100.5t-41 -100.5t-102 -40.5zM861 1246q-61 0 -102 40.5t-41 100.5t41 100.5t102 40.5t102 -40.5t41 -100.5t-41 -100.5t-102 -40.5zM1127 1094v-1094h-239
v174h-17q-40 -94 -128.5 -145t-210.5 -51q-182 0 -286 107.5t-104 300.5v708h248v-649q0 -249 228 -249q120 0 190.5 70t70.5 191v637h248z" />
    <glyph glyph-name="Udieresiscaron" unicode="&#x1d9;" horiz-adv-x="1550" 
d="M553 1568q-60 0 -99.5 38.5t-39.5 96.5q0 57 39.5 95.5t99.5 38.5t99.5 -38.5t39.5 -95.5q0 -58 -39.5 -96.5t-99.5 -38.5zM997 1568q-60 0 -99.5 38.5t-39.5 96.5q0 57 39.5 95.5t99.5 38.5t99.5 -38.5t39.5 -95.5q0 -58 -39.5 -96.5t-99.5 -38.5zM897 1893h-244
l-283 275h248l148 -154h18l148 154h248zM439 1443v-922q0 -149 89 -237.5t247 -88.5t246.5 88.5t88.5 237.5v922h258v-946q0 -239 -161 -386t-432 -147t-432 147t-161 386v946h257z" />
    <glyph glyph-name="udieresiscaron" unicode="&#x1da;" horiz-adv-x="1283" 
d="M425 1243q-58 0 -97 38.5t-39 95.5t39 96t97 39t96.5 -39t38.5 -96t-38.5 -95.5t-96.5 -38.5zM853 1243q-58 0 -96.5 38.5t-38.5 95.5t38.5 96t96.5 39t97 -39t39 -96t-39 -95.5t-97 -38.5zM763 1605h-248l-275 337h233l157 -208h18l157 208h233zM1127 1094v-1094h-239
v174h-17q-40 -94 -128.5 -145t-210.5 -51q-182 0 -286 107.5t-104 300.5v708h248v-649q0 -249 228 -249q120 0 190.5 70t70.5 191v637h248z" />
    <glyph glyph-name="Udieresisgrave" unicode="&#x1db;" horiz-adv-x="1550" 
d="M896 1914h-217l-241 235h268zM552 1577q-61 0 -102 40.5t-41 100.5t41 100.5t102 40.5t102 -40.5t41 -100.5t-41 -100.5t-102 -40.5zM997 1577q-61 0 -102 40.5t-41 100.5t41 100.5t102 40.5t102 -40.5t41 -100.5t-41 -100.5t-102 -40.5zM439 1443v-922q0 -149 89 -237.5
t247 -88.5t246.5 88.5t88.5 237.5v922h258v-946q0 -239 -161 -386t-432 -147t-432 147t-161 386v946h257z" />
    <glyph glyph-name="udieresisgrave" unicode="&#x1dc;" horiz-adv-x="1283" 
d="M756 1617h-214l-236 311h250zM416 1246q-61 0 -102 40.5t-41 100.5t41 100.5t102 40.5t102 -40.5t41 -100.5t-41 -100.5t-102 -40.5zM861 1246q-61 0 -102 40.5t-41 100.5t41 100.5t102 40.5t102 -40.5t41 -100.5t-41 -100.5t-102 -40.5zM1127 1094v-1094h-239v174h-17
q-40 -94 -128.5 -145t-210.5 -51q-182 0 -286 107.5t-104 300.5v708h248v-649q0 -249 228 -249q120 0 190.5 70t70.5 191v637h248z" />
    <glyph glyph-name="Adieresismacron" unicode="&#x1de;" horiz-adv-x="1456" 
d="M1109 0l-122 369h-531l-124 -369h-261l512 1443h290l513 -1443h-277zM714 1168l-198 -595h411l-196 595h-17zM368 1973v154h720v-154h-720zM506 1578q-61 0 -101 39.5t-40 98.5t40 98.5t101 39.5q60 0 100 -39.5t40 -98.5t-40 -98.5t-100 -39.5zM950 1578
q-60 0 -100 39.5t-40 98.5t40 98.5t100 39.5q61 0 101 -39.5t40 -98.5t-40 -98.5t-101 -39.5z" />
    <glyph glyph-name="adieresismacron" unicode="&#x1df;" horiz-adv-x="1179" 
d="M526 177q112 0 187 64.5t75 159.5v87l-247 -16q-204 -13 -204 -148q0 -68 52.5 -107.5t136.5 -39.5zM453 -18q-160 0 -261 90t-101 238t107.5 232t307.5 96l282 17v92q0 81 -53 124t-153 43q-86 0 -142 -29.5t-73 -84.5h-234q15 145 140.5 230.5t320.5 85.5
q210 0 324.5 -97t114.5 -272v-747h-239v150h-17q-46 -79 -131.5 -123.5t-192.5 -44.5zM380 1243q-58 0 -97 38.5t-39 95.5t39 96t97 39t96.5 -39t38.5 -96t-38.5 -95.5t-96.5 -38.5zM808 1243q-58 0 -96.5 38.5t-38.5 95.5t38.5 96t96.5 39t97 -39t39 -96t-39 -95.5
t-97 -38.5zM950 1657h-712v164h712v-164z" />
    <glyph glyph-name="Adotmacron" unicode="&#x1e0;" horiz-adv-x="1456" 
d="M1109 0l-122 369h-531l-124 -369h-261l512 1443h290l513 -1443h-277zM714 1168l-198 -595h411l-196 595h-17zM728 1576q-61 0 -102 39.5t-41 98.5t41 98.5t102 39.5t102 -39.5t41 -98.5t-41 -98.5t-102 -39.5zM1088 1973h-720v154h720v-154z" />
    <glyph glyph-name="adotmacron" unicode="&#x1e1;" horiz-adv-x="1179" 
d="M526 177q112 0 187 64.5t75 159.5v87l-247 -16q-204 -13 -204 -148q0 -68 52.5 -107.5t136.5 -39.5zM453 -18q-160 0 -261 90t-101 238t107.5 232t307.5 96l282 17v92q0 81 -53 124t-153 43q-86 0 -142 -29.5t-73 -84.5h-234q15 145 140.5 230.5t320.5 85.5
q210 0 324.5 -97t114.5 -272v-747h-239v150h-17q-46 -79 -131.5 -123.5t-192.5 -44.5zM594 1243q-60 0 -99.5 39.5t-39.5 98.5q0 60 39.5 99.5t99.5 39.5t99.5 -39.5t39.5 -99.5q0 -59 -39.5 -98.5t-99.5 -39.5zM950 1657h-712v164h712v-164z" />
    <glyph glyph-name="AEmacron" unicode="&#x1e2;" horiz-adv-x="2025" 
d="M989 1235h-136l-272 -632h408v632zM989 0v398h-488l-174 -398h-256l615 1443h1197v-223h-653v-389h616v-211h-616v-397h653v-223h-894zM1852 1628h-720v164h720v-164z" />
    <glyph glyph-name="aemacron" unicode="&#x1e3;" horiz-adv-x="1882" 
d="M1305 -22q-129 0 -235.5 57.5t-154.5 152.5h-17q-60 -99 -165 -154.5t-241 -55.5q-181 0 -291 91.5t-110 240.5q0 148 107.5 232t307.5 96l282 17v92q0 81 -53 124t-153 43q-86 0 -142 -29.5t-73 -84.5h-234q14 141 136.5 228.5t304.5 87.5q126 0 216 -45t138 -123h17
q54 76 149 122t207 46q223 0 351 -145.5t128 -396.5v-84h-754v-23q5 -132 80.5 -211.5t197.5 -79.5q170 0 231 125h234q-36 -151 -159.5 -237t-304.5 -86zM1287 919q-113 0 -183.5 -71t-77.5 -190h507q-4 116 -72.5 188.5t-173.5 72.5zM533 175q108 0 181.5 67.5t73.5 163.5
v82l-247 -16q-204 -13 -204 -150q0 -68 53.5 -107.5t142.5 -39.5zM1323 1305h-712v164h712v-164z" />
    <glyph glyph-name="Gcaron" unicode="&#x1e6;" horiz-adv-x="1547" 
d="M902 1586h-222l-288 310h235l155 -174h18l155 174h235zM1426 578q0 -281 -171 -447.5t-460 -166.5q-314 0 -496 203.5t-182 554.5q0 346 183 551.5t491 205.5q250 0 419 -132t204 -353h-257q-39 123 -133.5 189t-232.5 66q-189 0 -299.5 -141t-110.5 -384
q0 -246 112.5 -388t305.5 -142q165 0 268 92t106 241l1 30h-347v202h599v-181z" />
    <glyph glyph-name="gcaron" unicode="&#x1e7;" horiz-adv-x="1295" 
d="M754 1243h-259l-277 348h239l159 -215h17l159 215h239zM899 559q0 157 -74 249.5t-203 92.5q-128 0 -199.5 -92t-71.5 -250t71 -249.5t200 -91.5t203 92t74 249zM622 -416q-209 0 -339.5 85t-145.5 227h249q12 -57 75.5 -90t164.5 -33q127 0 198 57t71 160v207h-17
q-47 -88 -133.5 -134.5t-200.5 -46.5q-206 0 -327 147.5t-121 395.5q0 252 122 402.5t330 150.5q112 0 203 -52t136 -141h17v175h239v-1098q0 -190 -141 -301t-380 -111z" />
    <glyph glyph-name="Kcaron" unicode="&#x1e8;" horiz-adv-x="1415" 
d="M436 0h-258v1443h258v-664h17l569 664h296l-545 -629l588 -814h-315l-456 637l-154 -177v-460zM795 1585h-222l-288 310h235l155 -174h18l155 174h235z" />
    <glyph glyph-name="kcaron" unicode="&#x1e9;" horiz-adv-x="1188" 
d="M427 648l404 446h288l-436 -469l466 -625h-300l-351 469l-88 -88v-381h-248v1517h248v-869h17zM397 1659h-222l-288 310h235l155 -174h18l155 174h235z" />
    <glyph glyph-name="Oogonek" unicode="&#x1ea;" horiz-adv-x="1599" 
d="M1021 -455q-105 0 -170.5 58.5t-65.5 152.5q0 124 104 206v18q-47 -14 -91 -14q-316 0 -498.5 203t-182.5 553q0 349 184 553t500 204q314 0 497.5 -204t183.5 -554q0 -107 -17.5 -198.5t-47 -157t-67.5 -121.5t-80.5 -96.5t-85 -76l-80.5 -65.5t-67.5 -59t-47 -63.5
t-17.5 -72.5q0 -46 32.5 -75.5t83.5 -29.5q37 0 76 9v-147q-48 -23 -143 -23zM801 1250q-193 0 -306.5 -143t-113.5 -385q0 -243 113.5 -386t306.5 -143q191 0 304 143.5t113 385.5t-112.5 385t-304.5 143z" />
    <glyph glyph-name="oogonek" unicode="&#x1eb;" horiz-adv-x="1248" 
d="M796 -455q-107 0 -172.5 57t-65.5 149q0 120 105 214v17q-23 -4 -49 -4q-242 2 -379 153.5t-137 416.5q0 264 141 416t385 152t385 -152t141 -415q0 -301 -201 -477q-124 -110 -164 -163t-40 -108q0 -43 32 -69t84 -26q40 0 76 9v-147q-61 -23 -141 -23zM624 186
q129 0 200 94.5t71 266.5t-71 266.5t-200 94.5t-200.5 -94.5t-71.5 -266.5t71 -266.5t201 -94.5z" />
    <glyph glyph-name="Oogonekmacron" unicode="&#x1ec;" horiz-adv-x="1599" 
d="M1021 -455q-105 0 -170.5 58.5t-65.5 152.5q0 124 104 206v18q-47 -14 -91 -14q-316 0 -498.5 203t-182.5 553q0 349 184 553t500 204q314 0 497.5 -204t183.5 -554q0 -107 -17.5 -198.5t-47 -157t-67.5 -121.5t-80.5 -96.5t-85 -76l-80.5 -65.5t-67.5 -59t-47 -63.5
t-17.5 -72.5q0 -46 32.5 -75.5t83.5 -29.5q37 0 76 9v-147q-48 -23 -143 -23zM801 1250q-193 0 -306.5 -143t-113.5 -385q0 -243 113.5 -386t306.5 -143q191 0 304 143.5t113 385.5t-112.5 385t-304.5 143zM1161 1628h-720v164h720v-164z" />
    <glyph glyph-name="oogonekmacron" unicode="&#x1ed;" horiz-adv-x="1248" 
d="M796 -455q-107 0 -172.5 57t-65.5 149q0 120 105 214v17q-23 -4 -49 -4q-242 2 -379 153.5t-137 416.5q0 264 141 416t385 152t385 -152t141 -415q0 -301 -201 -477q-124 -110 -164 -163t-40 -108q0 -43 32 -69t84 -26q40 0 76 9v-147q-61 -23 -141 -23zM624 186
q129 0 200 94.5t71 266.5t-71 266.5t-200 94.5t-200.5 -94.5t-71.5 -266.5t71 -266.5t201 -94.5zM980 1305h-712v164h712v-164z" />
    <glyph glyph-name="u01F1" unicode="&#x1f1;" horiz-adv-x="2894" 
d="M1659 0v176l759 1027v17h-738v223h1057v-176l-756 -1027v-17h775v-223h-1097zM178 1443h541q322 0 500.5 -187.5t178.5 -527.5q0 -347 -177.5 -537.5t-501.5 -190.5h-541v1443zM436 1220v-997h249q216 0 333 130t117 371q0 236 -118.5 366t-331.5 130h-249z" />
    <glyph glyph-name="u01F2" unicode="&#x1f2;" horiz-adv-x="2660" 
d="M1648 0v155l581 722v17h-576v200h872v-169l-560 -708v-17h569v-200h-886zM178 1443h541q322 0 500.5 -187.5t178.5 -527.5q0 -347 -177.5 -537.5t-501.5 -190.5h-541v1443zM436 1220v-997h249q216 0 333 130t117 371q0 236 -118.5 366t-331.5 130h-249z" />
    <glyph glyph-name="u01F3" unicode="&#x1f3;" horiz-adv-x="2452" 
d="M1439 0v155l581 722v17h-576v200h872v-169l-560 -708v-17h569v-200h-886zM548 -18q-208 0 -329 152.5t-121 413.5q0 259 121.5 411.5t328.5 152.5q112 0 200 -51t132 -141h17v597h248v-1517h-240v173h-17q-47 -90 -136.5 -140.5t-203.5 -50.5zM625 901q-127 0 -200 -94.5
t-73 -259.5q0 -166 72.5 -260t200.5 -94t201.5 94.5t73.5 259.5q0 164 -74 259t-201 95z" />
    <glyph glyph-name="Gacute" unicode="&#x1f4;" horiz-adv-x="1547" 
d="M663 1586l288 310h283l-321 -310h-250zM1426 578q0 -281 -171 -447.5t-460 -166.5q-314 0 -496 203.5t-182 554.5q0 346 183 551.5t491 205.5q250 0 419 -132t204 -353h-257q-39 123 -133.5 189t-232.5 66q-189 0 -299.5 -141t-110.5 -384q0 -246 112.5 -388t305.5 -142
q165 0 268 92t106 241l1 30h-347v202h599v-181z" />
    <glyph glyph-name="gacute" unicode="&#x1f5;" horiz-adv-x="1295" 
d="M485 1275l249 347h277l-284 -347h-242zM899 559q0 157 -74 249.5t-203 92.5q-128 0 -199.5 -92t-71.5 -250t71 -249.5t200 -91.5t203 92t74 249zM622 -416q-209 0 -339.5 85t-145.5 227h249q12 -57 75.5 -90t164.5 -33q127 0 198 57t71 160v207h-17
q-47 -88 -133.5 -134.5t-200.5 -46.5q-206 0 -327 147.5t-121 395.5q0 252 122 402.5t330 150.5q112 0 203 -52t136 -141h17v175h239v-1098q0 -190 -141 -301t-380 -111z" />
    <glyph glyph-name="Ngrave" unicode="&#x1f8;" horiz-adv-x="1554" 
d="M617 1895l288 -310h-250l-321 310h283zM427 0h-249v1443h224l708 -981h17v981h248v-1443h-223l-708 982h-17v-982z" />
    <glyph glyph-name="ngrave" unicode="&#x1f9;" horiz-adv-x="1275" 
d="M798 1275h-242l-284 347h277zM152 0v1094h239v-175h17q39 92 130.5 144.5t213.5 52.5q183 0 282 -106t99 -302v-708h-247v649q0 251 -226 251q-120 0 -190 -71t-70 -192v-637h-248z" />
    <glyph glyph-name="Aringacute" unicode="&#x1fa;" horiz-adv-x="1456" 
d="M1109 0l-122 369h-531l-124 -369h-261l512 1443h290l513 -1443h-277zM714 1168l-198 -595h411l-196 595h-17zM660 1762q-10 -28 3 -54t42 -37t55 1t36 40t-3 54t-42 37t-55 -1t-36 -40zM728 1532q-89 0 -150 59.5t-61 146.5t61 146t150 59t150 -58.5t61 -146.5
q0 -87 -61 -146.5t-150 -59.5zM748 2200h236l-150 -188h-209z" />
    <glyph glyph-name="aringacute" unicode="&#x1fb;" horiz-adv-x="1179" 
d="M526 177q112 0 187 64.5t75 159.5v87l-247 -16q-204 -13 -204 -148q0 -68 52.5 -107.5t136.5 -39.5zM453 -18q-160 0 -261 90t-101 238t107.5 232t307.5 96l282 17v92q0 81 -53 124t-153 43q-86 0 -142 -29.5t-73 -84.5h-234q15 145 140.5 230.5t320.5 85.5
q210 0 324.5 -97t114.5 -272v-747h-239v150h-17q-46 -79 -131.5 -123.5t-192.5 -44.5zM594 1210q-92 0 -155 61t-63 152t63 152.5t155 61.5t155 -61.5t63 -152.5t-63 -152t-155 -61zM499 1423q0 -41 27.5 -68t67.5 -27t67.5 27t27.5 68q0 40 -27.5 67.5t-67.5 27.5
t-67.5 -27.5t-27.5 -67.5zM496 1718l162 233h232l-197 -233h-197z" />
    <glyph glyph-name="AEacute" unicode="&#x1fc;" horiz-adv-x="2025" 
d="M1364 1585l288 310h283l-321 -310h-250zM989 1235h-136l-272 -632h408v632zM989 0v398h-488l-174 -398h-256l615 1443h1197v-223h-653v-389h616v-211h-616v-397h653v-223h-894z" />
    <glyph glyph-name="aeacute" unicode="&#x1fd;" horiz-adv-x="1882" 
d="M827 1275l249 347h277l-284 -347h-242zM1305 -22q-129 0 -235.5 57.5t-154.5 152.5h-17q-60 -99 -165 -154.5t-241 -55.5q-181 0 -291 91.5t-110 240.5q0 148 107.5 232t307.5 96l282 17v92q0 81 -53 124t-153 43q-86 0 -142 -29.5t-73 -84.5h-234q14 141 136.5 228.5
t304.5 87.5q126 0 216 -45t138 -123h17q54 76 149 122t207 46q223 0 351 -145.5t128 -396.5v-84h-754v-23q5 -132 80.5 -211.5t197.5 -79.5q170 0 231 125h234q-36 -151 -159.5 -237t-304.5 -86zM1287 919q-113 0 -183.5 -71t-77.5 -190h507q-4 116 -72.5 188.5t-173.5 72.5
zM533 175q108 0 181.5 67.5t73.5 163.5v82l-247 -16q-204 -13 -204 -150q0 -68 53.5 -107.5t142.5 -39.5z" />
    <glyph glyph-name="Oslashacute" unicode="&#x1fe;" horiz-adv-x="1577" 
d="M1246 1895l-321 -310h-250l288 310h283zM1118 1091l-568 -812q101 -86 251 -86q192 0 304.5 143.5t112.5 385.5q0 227 -100 369zM467 374l565 805q-99 71 -231 71q-193 0 -306.5 -143t-113.5 -385q0 -211 86 -348zM1361 1438l-92 -132q103 -99 158 -248t55 -336
q0 -349 -183 -553.5t-498 -204.5q-231 0 -394 111l-95 -136l-101 70l102 145q-196 205 -196 568q0 349 184.5 553t499.5 204q216 0 372 -98l84 119z" />
    <glyph glyph-name="oslashacute" unicode="&#x1ff;" horiz-adv-x="1248" 
d="M994 1622l-284 -347h-242l249 347h277zM846 778l-358 -557q58 -35 136 -35q130 0 200.5 94.5t70.5 266.5q0 141 -49 231zM403 312l359 559q-59 37 -138 37q-130 0 -201 -95t-71 -266q0 -142 51 -235zM1048 1092l-65 -101q167 -155 167 -444q0 -266 -140.5 -417.5
t-385.5 -151.5q-146 0 -256 55l-60 -93l-103 65l62 96q-169 152 -169 446q0 264 141 416.5t385 152.5q147 0 259 -57l61 94z" />
    <glyph glyph-name="Adblgrave" unicode="&#x200;" horiz-adv-x="1456" 
d="M1109 0l-122 369h-531l-124 -369h-261l512 1443h290l513 -1443h-277zM714 1168l-198 -595h411l-196 595h-17zM639 1585h-230l-297 310h254zM1067 1585h-229l-298 310h254z" />
    <glyph glyph-name="adblgrave" unicode="&#x201;" horiz-adv-x="1179" 
d="M526 177q112 0 187 64.5t75 159.5v87l-247 -16q-204 -13 -204 -148q0 -68 52.5 -107.5t136.5 -39.5zM453 -18q-160 0 -261 90t-101 238t107.5 232t307.5 96l282 17v92q0 81 -53 124t-153 43q-86 0 -142 -29.5t-73 -84.5h-234q15 145 140.5 230.5t320.5 85.5
q210 0 324.5 -97t114.5 -272v-747h-239v150h-17q-46 -79 -131.5 -123.5t-192.5 -44.5zM510 1275h-212l-256 347h241zM933 1275h-212l-256 347h241z" />
    <glyph glyph-name="Ainvertedbreve" unicode="&#x202;" horiz-adv-x="1456" 
d="M1109 0l-122 369h-531l-124 -369h-261l512 1443h290l513 -1443h-277zM714 1168l-198 -595h411l-196 595h-17zM341 1578q0 145 104.5 233.5t282.5 88.5t282.5 -88.5t104.5 -233.5h-188q-2 77 -55.5 122t-143.5 45t-143.5 -45t-55.5 -122h-188z" />
    <glyph glyph-name="ainvertedbreve" unicode="&#x203;" horiz-adv-x="1179" 
d="M526 177q112 0 187 64.5t75 159.5v87l-247 -16q-204 -13 -204 -148q0 -68 52.5 -107.5t136.5 -39.5zM453 -18q-160 0 -261 90t-101 238t107.5 232t307.5 96l282 17v92q0 81 -53 124t-153 43q-86 0 -142 -29.5t-73 -84.5h-234q15 145 140.5 230.5t320.5 85.5
q210 0 324.5 -97t114.5 -272v-747h-239v150h-17q-46 -79 -131.5 -123.5t-192.5 -44.5zM207 1243q0 152 104.5 247t282.5 95t282.5 -95t104.5 -247h-188q-2 84 -54.5 135t-144.5 51t-144.5 -51t-54.5 -135h-188z" />
    <glyph glyph-name="Edblgrave" unicode="&#x204;" horiz-adv-x="1254" 
d="M556 1585h-230l-297 310h254zM984 1585h-229l-298 310h254zM1112 223v-223h-934v1443h934v-223h-676v-383h639v-210h-639v-404h676z" />
    <glyph glyph-name="edblgrave" unicode="&#x205;" horiz-adv-x="1208" 
d="M611 919q-111 0 -183 -73t-80 -193h515q-4 122 -72 194t-180 72zM865 301h235q-35 -150 -164.5 -236.5t-321.5 -86.5q-241 0 -378.5 150.5t-137.5 414.5t138 418.5t376 154.5q234 0 366.5 -146.5t132.5 -405.5v-80h-764v-13q5 -137 78.5 -216.5t195.5 -79.5
q188 0 244 126zM528 1275h-212l-256 347h241zM951 1275h-212l-256 347h241z" />
    <glyph glyph-name="Einvertedbreve" unicode="&#x206;" horiz-adv-x="1254" 
d="M1112 223v-223h-934v1443h934v-223h-676v-383h639v-210h-639v-404h676zM258 1578q0 145 104.5 233.5t282.5 88.5t282.5 -88.5t104.5 -233.5h-188q-2 77 -55.5 122t-143.5 45t-143.5 -45t-55.5 -122h-188z" />
    <glyph glyph-name="einvertedbreve" unicode="&#x207;" horiz-adv-x="1208" 
d="M611 919q-111 0 -183 -73t-80 -193h515q-4 122 -72 194t-180 72zM865 301h235q-35 -150 -164.5 -236.5t-321.5 -86.5q-241 0 -378.5 150.5t-137.5 414.5t138 418.5t376 154.5q234 0 366.5 -146.5t132.5 -405.5v-80h-764v-13q5 -137 78.5 -216.5t195.5 -79.5
q188 0 244 126zM225 1243q0 152 104.5 247t282.5 95t282.5 -95t104.5 -247h-188q-2 84 -54.5 135t-144.5 51t-144.5 -51t-54.5 -135h-188z" />
    <glyph glyph-name="Idblgrave" unicode="&#x208;" horiz-adv-x="614" 
d="M436 0h-258v1443h258v-1443zM218 1585h-230l-297 310h254zM646 1585h-229l-298 310h254z" />
    <glyph glyph-name="idblgrave" unicode="&#x209;" horiz-adv-x="565" 
d="M159 0v1094h247v-1094h-247zM198 1275h-212l-256 347h241zM621 1275h-212l-256 347h241z" />
    <glyph glyph-name="Iinvertedbreve" unicode="&#x20a;" horiz-adv-x="614" 
d="M436 0h-258v1443h258v-1443zM-80 1578q0 145 104.5 233.5t282.5 88.5t282.5 -88.5t104.5 -233.5h-188q-2 77 -55.5 122t-143.5 45t-143.5 -45t-55.5 -122h-188z" />
    <glyph glyph-name="iinvertedbreve" unicode="&#x20b;" horiz-adv-x="565" 
d="M159 0v1094h247v-1094h-247zM-105 1243q0 152 104.5 247t282.5 95t282.5 -95t104.5 -247h-188q-2 84 -54.5 135t-144.5 51t-144.5 -51t-54.5 -135h-188z" />
    <glyph glyph-name="Odblgrave" unicode="&#x20c;" horiz-adv-x="1599" 
d="M712 1585h-230l-297 310h254zM1140 1585h-229l-298 310h254zM801 1479q314 0 497.5 -204t183.5 -553t-183 -553.5t-498 -204.5q-317 0 -500.5 204t-183.5 554q0 349 184.5 553t499.5 204zM801 1250q-193 0 -306.5 -143t-113.5 -385q0 -243 112.5 -386t307.5 -143
q192 0 304.5 143.5t112.5 385.5t-112.5 385t-304.5 143z" />
    <glyph glyph-name="odblgrave" unicode="&#x20d;" horiz-adv-x="1248" 
d="M624 186q130 0 200.5 94.5t70.5 266.5q0 171 -71 266t-200 95q-130 0 -201 -95t-71 -266q0 -172 71 -266.5t201 -94.5zM624 -22q-246 0 -386 151.5t-140 417.5q0 264 141 416.5t385 152.5q245 0 385.5 -152t140.5 -417q0 -266 -140.5 -417.5t-385.5 -151.5zM540 1275
h-212l-256 347h241zM963 1275h-212l-256 347h241z" />
    <glyph glyph-name="Oinvertedbreve" unicode="&#x20e;" horiz-adv-x="1599" 
d="M414 1578q0 145 104.5 233.5t282.5 88.5t282.5 -88.5t104.5 -233.5h-188q-2 77 -55.5 122t-143.5 45t-143.5 -45t-55.5 -122h-188zM801 1479q314 0 497.5 -204t183.5 -553t-183 -553.5t-498 -204.5q-317 0 -500.5 204t-183.5 554q0 349 184.5 553t499.5 204zM801 1250
q-193 0 -306.5 -143t-113.5 -385q0 -243 112.5 -386t307.5 -143q192 0 304.5 143.5t112.5 385.5t-112.5 385t-304.5 143z" />
    <glyph glyph-name="oinvertedbreve" unicode="&#x20f;" horiz-adv-x="1248" 
d="M624 186q130 0 200.5 94.5t70.5 266.5q0 171 -71 266t-200 95q-130 0 -201 -95t-71 -266q0 -172 71 -266.5t201 -94.5zM624 -22q-246 0 -386 151.5t-140 417.5q0 264 141 416.5t385 152.5q245 0 385.5 -152t140.5 -417q0 -266 -140.5 -417.5t-385.5 -151.5zM237 1243
q0 152 104.5 247t282.5 95t282.5 -95t104.5 -247h-188q-2 84 -54.5 135t-144.5 51t-144.5 -51t-54.5 -135h-188z" />
    <glyph glyph-name="Rdblgrave" unicode="&#x210;" horiz-adv-x="1391" 
d="M547 1585h-230l-297 310h254zM975 1585h-229l-298 310h254zM436 1229v-483h298q123 0 190.5 63t67.5 178q0 113 -70.5 177.5t-193.5 64.5h-292zM436 541v-541h-258v1443h586q227 0 360 -121.5t133 -329.5q0 -144 -72 -254.5t-200 -156.5l315 -581h-295l-283 541h-286z
" />
    <glyph glyph-name="rdblgrave" unicode="&#x211;" horiz-adv-x="838" 
d="M152 0v1094h239v-170h17q23 82 103 135t184 53q64 0 102 -11v-230q-38 14 -126 14q-120 0 -195.5 -69.5t-75.5 -183.5v-632h-248zM339 1275h-212l-256 347h241zM762 1275h-212l-256 347h241z" />
    <glyph glyph-name="Rinvertedbreve" unicode="&#x212;" horiz-adv-x="1391" 
d="M436 1229v-483h298q123 0 190.5 63t67.5 178q0 113 -70.5 177.5t-193.5 64.5h-292zM436 541v-541h-258v1443h586q227 0 360 -121.5t133 -329.5q0 -144 -72 -254.5t-200 -156.5l315 -581h-295l-283 541h-286zM249 1578q0 145 104.5 233.5t282.5 88.5t282.5 -88.5
t104.5 -233.5h-188q-2 77 -55.5 122t-143.5 45t-143.5 -45t-55.5 -122h-188z" />
    <glyph glyph-name="rinvertedbreve" unicode="&#x213;" horiz-adv-x="838" 
d="M152 0v1094h239v-170h17q23 82 103 135t184 53q64 0 102 -11v-230q-38 14 -126 14q-120 0 -195.5 -69.5t-75.5 -183.5v-632h-248zM36 1243q0 152 104.5 247t282.5 95t282.5 -95t104.5 -247h-188q-2 84 -54.5 135t-144.5 51t-144.5 -51t-54.5 -135h-188z" />
    <glyph glyph-name="Udblgrave" unicode="&#x214;" horiz-adv-x="1550" 
d="M686 1585h-230l-297 310h254zM1114 1585h-229l-298 310h254zM439 1443v-922q0 -149 89 -237.5t247 -88.5t246.5 88.5t88.5 237.5v922h258v-946q0 -239 -161 -386t-432 -147t-432 147t-161 386v946h257z" />
    <glyph glyph-name="udblgrave" unicode="&#x215;" horiz-adv-x="1283" 
d="M1127 1094v-1094h-239v174h-17q-40 -94 -128.5 -145t-210.5 -51q-182 0 -286 107.5t-104 300.5v708h248v-649q0 -249 228 -249q120 0 190.5 70t70.5 191v637h248zM555 1275h-212l-256 347h241zM978 1275h-212l-256 347h241z" />
    <glyph glyph-name="Uinvertedbreve" unicode="&#x216;" horiz-adv-x="1550" 
d="M439 1443v-922q0 -149 89 -237.5t247 -88.5t246.5 88.5t88.5 237.5v922h258v-946q0 -239 -161 -386t-432 -147t-432 147t-161 386v946h257zM388 1578q0 145 104.5 233.5t282.5 88.5t282.5 -88.5t104.5 -233.5h-188q-2 77 -55.5 122t-143.5 45t-143.5 -45t-55.5 -122h-188
z" />
    <glyph glyph-name="uinvertedbreve" unicode="&#x217;" horiz-adv-x="1283" 
d="M1127 1094v-1094h-239v174h-17q-40 -94 -128.5 -145t-210.5 -51q-182 0 -286 107.5t-104 300.5v708h248v-649q0 -249 228 -249q120 0 190.5 70t70.5 191v637h248zM252 1243q0 152 104.5 247t282.5 95t282.5 -95t104.5 -247h-188q-2 84 -54.5 135t-144.5 51t-144.5 -51
t-54.5 -135h-188z" />
    <glyph glyph-name="Scommaaccent" unicode="&#x218;" horiz-adv-x="1354" 
d="M112 392h252q12 -97 101 -154.5t226 -57.5q128 0 210.5 58.5t82.5 149.5q0 78 -62.5 127t-201.5 81l-187 43q-196 44 -290.5 143.5t-94.5 260.5q0 197 147.5 316.5t389.5 119.5q227 0 376 -118t158 -304h-247q-13 95 -91 151t-197 56q-125 0 -200.5 -55.5t-75.5 -147.5
q0 -73 59 -118.5t193 -76.5l166 -38q219 -49 317.5 -146t98.5 -262q0 -211 -152.5 -333.5t-414.5 -122.5q-248 0 -400.5 116t-162.5 312zM672 -512h-225l121 364h253z" />
    <glyph glyph-name="scommaaccent" unicode="&#x219;" horiz-adv-x="1128" 
d="M127 781q0 148 122 241.5t316 93.5q195 0 311.5 -82.5t129.5 -231.5h-233q-14 59 -67.5 92.5t-139.5 33.5t-142 -37t-56 -96q0 -46 39.5 -76t122.5 -49l193 -44q158 -36 232 -107t74 -191q0 -157 -130 -253.5t-336 -96.5q-205 0 -327.5 84t-136.5 233h245
q18 -62 75.5 -95.5t149.5 -33.5q94 0 153 37.5t59 98.5q0 91 -151 124l-194 45q-158 36 -233.5 111.5t-75.5 198.5zM560 -512h-225l121 364h253z" />
    <glyph glyph-name="Tcommaaccent" unicode="&#x21a;" horiz-adv-x="1332" 
d="M661 -512h-225l121 364h253zM795 0h-258v1220h-444v223h1147v-223h-445v-1220z" />
    <glyph glyph-name="tcommaaccent" unicode="&#x21b;" horiz-adv-x="808" 
d="M456 -512h-225l121 364h253zM231 1355h247v-268h240v-198h-240v-537q0 -81 36 -118.5t114 -37.5q34 0 82 5v-194q-60 -12 -128 -12q-188 0 -269.5 69t-81.5 228v597h-178v198h178v268z" />
    <glyph glyph-name="Hcaron" unicode="&#x21e;" horiz-adv-x="1573" 
d="M1395 0h-257v623h-702v-623h-258v1443h258v-597h702v597h257v-1443zM898 1585h-222l-288 310h235l155 -174h18l155 174h235z" />
    <glyph glyph-name="hcaron" unicode="&#x21f;" horiz-adv-x="1297" 
d="M162 0v1517h244v-600h18q39 92 130.5 144.5t213.5 52.5q184 0 285.5 -106.5t101.5 -301.5v-706h-247v647q0 124 -59 187.5t-173 63.5q-122 0 -194 -72t-72 -191v-635h-248zM395 1659h-222l-288 310h235l155 -174h18l155 174h235z" />
    <glyph glyph-name="Adotaccent" unicode="&#x226;" horiz-adv-x="1456" 
d="M1109 0l-122 369h-531l-124 -369h-261l512 1443h290l513 -1443h-277zM714 1168l-198 -595h411l-196 595h-17zM728 1578q-62 0 -103 41.5t-41 102.5q0 62 40.5 103.5t103.5 41.5q62 0 103 -41.5t41 -103.5q0 -61 -41 -102.5t-103 -41.5z" />
    <glyph glyph-name="adotaccent" unicode="&#x227;" horiz-adv-x="1179" 
d="M526 177q112 0 187 64.5t75 159.5v87l-247 -16q-204 -13 -204 -148q0 -68 52.5 -107.5t136.5 -39.5zM453 -18q-160 0 -261 90t-101 238t107.5 232t307.5 96l282 17v92q0 81 -53 124t-153 43q-86 0 -142 -29.5t-73 -84.5h-234q15 145 140.5 230.5t320.5 85.5
q210 0 324.5 -97t114.5 -272v-747h-239v150h-17q-46 -79 -131.5 -123.5t-192.5 -44.5zM594 1281q-64 0 -106.5 43t-42.5 106t42.5 105.5t106.5 42.5t106.5 -43t42.5 -105q0 -63 -42.5 -106t-106.5 -43z" />
    <glyph glyph-name="Ecedilla" unicode="&#x228;" horiz-adv-x="1254" 
d="M1112 1220h-676v-383h639v-210h-639v-404h676v-223h-374l-49 -123q98 -4 150.5 -48.5t52.5 -123.5q0 -92 -68 -145.5t-191 -53.5q-89 0 -146 18v124q44 -14 118 -14q114 0 114 64q0 32 -32 46t-105 14h-59v104l56 138h-401v1443h934v-223z" />
    <glyph glyph-name="ecedilla" unicode="&#x229;" horiz-adv-x="1208" 
d="M348 653h515q-4 122 -72 194t-180 72q-111 0 -183 -73t-80 -193zM1111 484h-764v-13q5 -137 78.5 -216.5t195.5 -79.5q188 0 244 126h235q-31 -132 -135.5 -215.5t-262.5 -102.5l-43 -106q98 -4 150.5 -48.5t52.5 -123.5q0 -92 -68 -145.5t-191 -53.5q-89 0 -146 18v124
q44 -14 118 -14q114 0 114 64q0 32 -32 46t-105 14h-59v104l49 120q-210 23 -327 170.5t-117 390.5q0 264 138 418.5t376 154.5q234 0 366.5 -146.5t132.5 -405.5v-80z" />
    <glyph glyph-name="Odieresismacron" unicode="&#x22a;" horiz-adv-x="1599" 
d="M801 1479q314 0 497.5 -204t183.5 -553t-183 -553.5t-498 -204.5q-317 0 -500.5 204t-183.5 554q0 349 184.5 553t499.5 204zM801 1250q-193 0 -306.5 -143t-113.5 -385q0 -243 112.5 -386t307.5 -143q192 0 304.5 143.5t112.5 385.5t-112.5 385t-304.5 143zM441 1973
v154h720v-154h-720zM579 1578q-61 0 -101 39.5t-40 98.5t40 98.5t101 39.5q60 0 100 -39.5t40 -98.5t-40 -98.5t-100 -39.5zM1023 1578q-60 0 -100 39.5t-40 98.5t40 98.5t100 39.5q61 0 101 -39.5t40 -98.5t-40 -98.5t-101 -39.5z" />
    <glyph glyph-name="odieresismacron" unicode="&#x22b;" horiz-adv-x="1248" 
d="M410 1243q-58 0 -97 38.5t-39 95.5t39 96t97 39t96.5 -39t38.5 -96t-38.5 -95.5t-96.5 -38.5zM838 1243q-58 0 -96.5 38.5t-38.5 95.5t38.5 96t96.5 39t97 -39t39 -96t-39 -95.5t-97 -38.5zM980 1657h-712v164h712v-164zM624 186q130 0 200.5 94.5t70.5 266.5
q0 171 -71 266t-200 95q-130 0 -201 -95t-71 -266q0 -172 71 -266.5t201 -94.5zM624 -22q-246 0 -386 151.5t-140 417.5q0 264 141 416.5t385 152.5q245 0 385.5 -152t140.5 -417q0 -266 -140.5 -417.5t-385.5 -151.5z" />
    <glyph glyph-name="Otildemacron" unicode="&#x22c;" horiz-adv-x="1599" 
d="M1161 1967h-720v160h720v-160zM950 1578q-45 0 -81.5 12.5t-60 31t-44 36.5t-45 30.5t-51.5 12.5q-83 0 -89 -110h-166q0 123 66.5 195.5t172.5 72.5q45 0 81.5 -12.5t60 -30.5t44 -36.5t45 -31t51.5 -12.5q37 0 61 26.5t28 81.5h166q0 -119 -67 -192.5t-172 -73.5z
M801 1479q314 0 497.5 -204t183.5 -553t-183 -553.5t-498 -204.5q-317 0 -500.5 204t-183.5 554q0 349 184.5 553t499.5 204zM801 1250q-193 0 -306.5 -143t-113.5 -385q0 -243 112.5 -386t307.5 -143q192 0 304.5 143.5t112.5 385.5t-112.5 385t-304.5 143z" />
    <glyph glyph-name="otildemacron" unicode="&#x22d;" horiz-adv-x="1248" 
d="M485 1393q-91 0 -92 -147h-171q0 142 68 226t183 84q43 0 80 -15t63 -37t48 -44t45 -37t44 -15q91 0 92 145h170q0 -142 -67.5 -225.5t-182.5 -83.5q-52 0 -97.5 23.5t-71.5 51t-56 51t-55 23.5zM980 1660h-712v164h712v-164zM624 186q130 0 200.5 94.5t70.5 266.5
q0 171 -71 266t-200 95q-130 0 -201 -95t-71 -266q0 -172 71 -266.5t201 -94.5zM624 -22q-246 0 -386 151.5t-140 417.5q0 264 141 416.5t385 152.5q245 0 385.5 -152t140.5 -417q0 -266 -140.5 -417.5t-385.5 -151.5z" />
    <glyph glyph-name="Odotaccent" unicode="&#x22e;" horiz-adv-x="1599" 
d="M801 1578q-62 0 -103 41.5t-41 102.5q0 62 40.5 103.5t103.5 41.5q62 0 103 -41.5t41 -103.5q0 -61 -41 -102.5t-103 -41.5zM801 1479q314 0 497.5 -204t183.5 -553t-183 -553.5t-498 -204.5q-317 0 -500.5 204t-183.5 554q0 349 184.5 553t499.5 204zM801 1250
q-193 0 -306.5 -143t-113.5 -385q0 -243 112.5 -386t307.5 -143q192 0 304.5 143.5t112.5 385.5t-112.5 385t-304.5 143z" />
    <glyph glyph-name="odotaccent" unicode="&#x22f;" horiz-adv-x="1248" 
d="M624 1281q-64 0 -106.5 43t-42.5 106t42.5 105.5t106.5 42.5t106.5 -43t42.5 -105q0 -63 -42.5 -106t-106.5 -43zM624 186q130 0 200.5 94.5t70.5 266.5q0 171 -71 266t-200 95q-130 0 -201 -95t-71 -266q0 -172 71 -266.5t201 -94.5zM624 -22q-246 0 -386 151.5
t-140 417.5q0 264 141 416.5t385 152.5q245 0 385.5 -152t140.5 -417q0 -266 -140.5 -417.5t-385.5 -151.5z" />
    <glyph glyph-name="Odotaccentmacron" unicode="&#x230;" horiz-adv-x="1599" 
d="M801 1576q-61 0 -102 39.5t-41 98.5t41 98.5t102 39.5t102 -39.5t41 -98.5t-41 -98.5t-102 -39.5zM1161 1973h-720v154h720v-154zM801 1479q314 0 497.5 -204t183.5 -553t-183 -553.5t-498 -204.5q-317 0 -500.5 204t-183.5 554q0 349 184.5 553t499.5 204zM801 1250
q-193 0 -306.5 -143t-113.5 -385q0 -243 112.5 -386t307.5 -143q192 0 304.5 143.5t112.5 385.5t-112.5 385t-304.5 143z" />
    <glyph glyph-name="odotaccentmacron" unicode="&#x231;" horiz-adv-x="1248" 
d="M624 186q130 0 200.5 94.5t70.5 266.5q0 171 -71 266t-200 95q-130 0 -201 -95t-71 -266q0 -172 71 -266.5t201 -94.5zM624 -22q-246 0 -386 151.5t-140 417.5q0 264 141 416.5t385 152.5q245 0 385.5 -152t140.5 -417q0 -266 -140.5 -417.5t-385.5 -151.5zM624 1243
q-60 0 -99.5 39.5t-39.5 98.5q0 60 39.5 99.5t99.5 39.5t99.5 -39.5t39.5 -99.5q0 -59 -39.5 -98.5t-99.5 -39.5zM980 1657h-712v164h712v-164z" />
    <glyph glyph-name="Ymacron" unicode="&#x232;" horiz-adv-x="1412" 
d="M835 0h-258v564l-506 879h283l344 -617h17l343 617h283l-506 -879v-564zM1066 1628h-720v164h720v-164z" />
    <glyph glyph-name="ymacron" unicode="&#x233;" horiz-adv-x="1183" 
d="M272 -398q-77 0 -98 4v202q21 -3 68 -3q79 0 125.5 33.5t70.5 108.5l13 48l-391 1099h272l256 -854h17l255 854h262l-395 -1129q-70 -203 -170.5 -283t-284.5 -80zM948 1305h-712v164h712v-164z" />
    <glyph glyph-name="dotlessj" unicode="&#x237;" horiz-adv-x="557" 
d="M402 1094v-1144q0 -333 -368 -333q-44 0 -60 2v196q4 -1 32 -1q82 0 115.5 32.5t33.5 107.5v1140h247z" />
    <glyph glyph-name="circumflex" unicode="&#x2c6;" horiz-adv-x="1097" 
d="M678 1591l277 -348h-239l-159 215h-17l-159 -215h-239l277 348h259z" />
    <glyph glyph-name="caron" unicode="&#x2c7;" horiz-adv-x="1097" 
d="M678 1243h-259l-277 348h239l159 -215h17l159 215h239z" />
    <glyph glyph-name="breve" unicode="&#x2d8;" horiz-adv-x="1048" 
d="M137 1585h188q2 -84 54.5 -135t144.5 -51t144.5 51t54.5 135h188q0 -152 -104.5 -247t-282.5 -95t-282.5 95t-104.5 247z" />
    <glyph glyph-name="dotaccent" unicode="&#x2d9;" horiz-adv-x="1048" 
d="M524 1281q-64 0 -106.5 43t-42.5 106t42.5 105.5t106.5 42.5t106.5 -43t42.5 -105q0 -63 -42.5 -106t-106.5 -43z" />
    <glyph glyph-name="ring" unicode="&#x2da;" horiz-adv-x="1097" 
d="M549 1243q-102 0 -171.5 67.5t-69.5 168.5t69.5 168t171.5 67t171 -67t69 -168t-69 -168.5t-171 -67.5zM549 1368q48 0 79.5 31.5t31.5 78.5q0 48 -31.5 79.5t-79.5 31.5q-49 0 -80.5 -31.5t-31.5 -79.5q0 -47 31.5 -78.5t80.5 -31.5z" />
    <glyph glyph-name="ogonek" unicode="&#x2db;" horiz-adv-x="1048" 
d="M719 -283v-148q-51 -23 -144 -23q-106 0 -170.5 56.5t-64.5 149.5q0 168 184 300l148 -16q-67 -49 -106 -110t-39 -115q0 -47 29.5 -75t80.5 -28q46 0 82 9z" />
    <glyph glyph-name="tilde" unicode="&#x2dc;" horiz-adv-x="1096" 
d="M414 1414q-91 0 -92 -147h-171q0 142 68 226t183 84q43 0 80 -15t63 -37t48 -44t45 -37t44 -15q91 0 92 145h170q0 -142 -67.5 -225.5t-182.5 -83.5q-52 0 -97.5 23.5t-71.5 51t-56 51t-55 23.5z" />
    <glyph glyph-name="hungarumlaut" unicode="&#x2dd;" horiz-adv-x="1048" 
d="M496 1275l227 347h241l-256 -347h-212zM73 1275l227 347h241l-256 -347h-212z" />
    <glyph glyph-name="gravecmb" unicode="&#x300;" 
d="M146 1275h-242l-284 347h277z" />
    <glyph glyph-name="acutecmb" unicode="&#x301;" 
d="M-140 1275l249 347h277l-284 -347h-242z" />
    <glyph glyph-name="circumflexcmb" unicode="&#x302;" 
d="M129 1591l277 -348h-239l-159 215h-17l-159 -215h-239l277 348h259z" />
    <glyph glyph-name="tildecmb" unicode="&#x303;" 
d="M-131 1393q-91 0 -92 -147h-171q0 142 68 226t183 84q43 0 80 -15t63 -37t48 -44t45 -37t44 -15q91 0 92 145h170q0 -142 -67.5 -225.5t-182.5 -83.5q-52 0 -97.5 23.5t-71.5 51t-56 51t-55 23.5z" />
    <glyph glyph-name="macroncmb" unicode="&#x304;" 
d="M356 1305h-712v164h712v-164z" />
    <glyph glyph-name="brevecmb" unicode="&#x306;" 
d="M-388 1585h188q2 -84 54.5 -135t144.5 -51t144.5 51t54.5 135h188q0 -152 -104.5 -247t-282.5 -95t-282.5 95t-104.5 247z" />
    <glyph glyph-name="dotaccentcmb" unicode="&#x307;" 
d="M0 1281q-64 0 -106.5 43t-42.5 106t42.5 105.5t106.5 42.5t106.5 -43t42.5 -105q0 -63 -42.5 -106t-106.5 -43z" />
    <glyph glyph-name="dieresiscmb" unicode="&#x308;" 
d="M-223 1242q-61 0 -102 40.5t-41 100.5t41 100.5t102 40.5t102 -40.5t41 -100.5t-41 -100.5t-102 -40.5zM222 1242q-61 0 -102 40.5t-41 100.5t41 100.5t102 40.5t102 -40.5t41 -100.5t-41 -100.5t-102 -40.5z" />
    <glyph glyph-name="hookabovecmb" unicode="&#x309;" 
d="M-166 1480v144q65 23 148 23q110 0 177 -54.5t67 -146.5q0 -78 -53 -142t-143 -97l-87 110q49 16 79 45t30 62q0 34 -29 55.5t-76 21.5q-68 0 -113 -21z" />
    <glyph glyph-name="ringcmb" unicode="&#x30a;" 
d="M0 1243q-102 0 -171.5 67.5t-69.5 168.5t69.5 168t171.5 67t171 -67t69 -168t-69 -168.5t-171 -67.5zM0 1368q48 0 79.5 31.5t31.5 78.5q0 48 -31.5 79.5t-79.5 31.5t-80 -31.5t-32 -79.5q0 -47 31.5 -78.5t80.5 -31.5z" />
    <glyph glyph-name="hungarumlautcmb" unicode="&#x30b;" 
d="M73 1275l227 347h241l-256 -347h-212zM-350 1275l227 347h241l-256 -347h-212z" />
    <glyph glyph-name="caroncmb" unicode="&#x30c;" 
d="M129 1243h-259l-277 348h239l159 -215h17l159 215h239z" />
    <glyph glyph-name="dblgravecmb" unicode="&#x30f;" 
d="M-84 1275h-212l-256 347h241zM339 1275h-212l-256 347h241z" />
    <glyph glyph-name="invertedbrevecmb" unicode="&#x311;" 
d="M-387 1243q0 152 104.5 247t282.5 95t282.5 -95t104.5 -247h-188q-2 84 -54.5 135t-144.5 51t-144.5 -51t-54.5 -135h-188z" />
    <glyph glyph-name="horncmb" unicode="&#x31b;" 
d="M0 933v183q36 -30 83 -28q51 2 74 35t23 106v158h205v-211q0 -126 -68.5 -201.5t-181.5 -75.5q-85 0 -135 34z" />
    <glyph glyph-name="dotbelowcmb" unicode="&#x323;" 
d="M0 -413q-63 0 -103.5 38t-40.5 95t40.5 95t103.5 38t103.5 -38t40.5 -95t-40.5 -95t-103.5 -38z" />
    <glyph glyph-name="dieresisbelowcmb" unicode="&#x324;" 
d="M-222 -432q-63 0 -103.5 38t-40.5 95t40.5 94.5t103.5 37.5t103.5 -37.5t40.5 -94.5t-40.5 -95t-103.5 -38zM222 -432q-63 0 -103.5 38t-40.5 95t40.5 94.5t103.5 37.5t103.5 -37.5t40.5 -94.5t-40.5 -95t-103.5 -38z" />
    <glyph glyph-name="ringbelowcmb" unicode="&#x325;" 
d="M0 -571q-102 0 -171.5 67.5t-69.5 168.5t69.5 168t171.5 67t171 -67t69 -168t-69 -168.5t-171 -67.5zM0 -446q48 0 79.5 31.5t31.5 78.5q0 48 -31.5 79.5t-79.5 31.5t-80 -31.5t-32 -79.5q0 -47 31.5 -78.5t80.5 -31.5z" />
    <glyph glyph-name="commabelowcmb" unicode="&#x326;" 
d="M-3 -512h-225l121 364h253z" />
    <glyph glyph-name="cedillacmb" unicode="&#x327;" 
d="M-122 -242v104l58 142h159l-51 -127q98 -4 150.5 -48.5t52.5 -123.5q0 -92 -68 -145.5t-191 -53.5q-89 0 -146 18v124q44 -14 118 -14q114 0 114 64q0 32 -32 46t-105 14h-59z" />
    <glyph glyph-name="ogonekcmb" unicode="&#x328;" 
d="M141 -285v-148q-51 -23 -144 -23q-106 0 -170.5 56.5t-64.5 149.5q0 168 184 300l148 -16q-67 -49 -106 -110t-39 -115q0 -47 29.5 -75t80.5 -28q46 0 82 9z" />
    <glyph glyph-name="circumflexbelowcmb" unicode="&#x32d;" 
d="M124 -148l291 -284h-254l-152 160h-18l-152 -160h-254l291 284h248z" />
    <glyph glyph-name="brevebelowcmb" unicode="&#x32e;" 
d="M-387 -120h190q0 -74 53 -118t144 -44t144 44t53 118h190q0 -138 -104 -225t-283 -87t-283 87t-104 225z" />
    <glyph glyph-name="tildebelowcmb" unicode="&#x330;" 
d="M156 -426q-45 0 -82.5 15t-63.5 36t-49 42.5t-49 36.5t-53 15q-84 0 -88 -129h-166q0 138 65 213t174 75q47 0 86.5 -15t66 -36t49.5 -42.5t47 -36.5t48 -15q84 0 89 127h165q0 -134 -65.5 -210t-173.5 -76z" />
    <glyph glyph-name="macronbelowcmb" unicode="&#x331;" 
d="M360 -382h-720v164h720v-164z" />
    <glyph glyph-name="greekquestionmark" unicode="&#x37e;" horiz-adv-x="674" 
d="M331 -381h-203l85 612h257zM337 729q-70 0 -115 44.5t-45 112.5q0 69 45 113.5t115 44.5q71 0 115.5 -44.5t44.5 -113.5q0 -68 -44.5 -112.5t-115.5 -44.5z" />
    <glyph glyph-name="tonosgreek" unicode="&#x384;" horiz-adv-x="924" 
d="M272 1265l85 364h266l-142 -364h-209z" />
    <glyph glyph-name="dieresistonosgreek" unicode="&#x385;" horiz-adv-x="1411" 
d="M344 1265q-58 0 -97.5 38.5t-39.5 95.5q0 58 39 96t98 38q58 0 97 -38t39 -96q0 -57 -39 -95.5t-97 -38.5zM1067 1265q-58 0 -97.5 38.5t-39.5 95.5q0 58 39 96t98 38t97.5 -38t38.5 -96q0 -57 -39 -95.5t-97 -38.5zM581 1265l30 364h246l-85 -364h-191z" />
    <glyph glyph-name="Alphatonosgreek" unicode="&#x386;" horiz-adv-x="1496" 
d="M1148 0l-122 369h-531l-124 -369h-261l512 1443h290l513 -1443h-277zM753 1168l-198 -595h411l-196 595h-17zM77 1079l85 364h266l-142 -364h-209z" />
    <glyph glyph-name="anoteleia" unicode="&#x387;" horiz-adv-x="689" 
d="M345 769q-76 0 -122 46t-46 119t46 119.5t122 46.5t121.5 -46t45.5 -120q0 -73 -45.5 -119t-121.5 -46z" />
    <glyph glyph-name="Epsilontonosgreek" unicode="&#x388;" horiz-adv-x="1690" 
d="M85 1079l85 364h266l-142 -364h-209zM1548 223v-223h-934v1443h934v-223h-676v-383h639v-210h-639v-404h676z" />
    <glyph glyph-name="Etatonosgreek" unicode="&#x389;" horiz-adv-x="2009" 
d="M85 1079l85 364h266l-142 -364h-209zM1831 0h-257v623h-702v-623h-258v1443h258v-597h702v597h257v-1443z" />
    <glyph glyph-name="Iotatonosgreek" unicode="&#x38a;" horiz-adv-x="1050" 
d="M872 0h-258v1443h258v-1443zM85 1079l85 364h266l-142 -364h-209z" />
    <glyph glyph-name="Omicrontonosgreek" unicode="&#x38c;" horiz-adv-x="1910" 
d="M1112 1479q314 0 497.5 -204t183.5 -553t-183 -553.5t-498 -204.5q-317 0 -500.5 204t-183.5 554q0 349 184.5 553t499.5 204zM1112 1250q-193 0 -306.5 -143t-113.5 -385q0 -243 112.5 -386t307.5 -143q192 0 304.5 143.5t112.5 385.5t-112.5 385t-304.5 143zM85 1079
l85 364h266l-142 -364h-209z" />
    <glyph glyph-name="Upsilontonosgreek" unicode="&#x38e;" horiz-adv-x="1848" 
d="M85 1079l85 364h266l-142 -364h-209zM1271 0h-258v564l-506 879h283l344 -617h17l343 617h283l-506 -879v-564z" />
    <glyph glyph-name="Omegatonosgreek" unicode="&#x38f;" horiz-adv-x="1917" 
d="M423 0v216h293v17q-138 84 -215.5 236t-77.5 337q0 300 190 486.5t495 186.5q201 0 356.5 -84.5t241.5 -237.5t86 -351q0 -185 -77.5 -337t-214.5 -236v-17h292v-216h-558v274q152 91 225 216.5t73 298.5q0 213 -114 337t-310 124t-310 -124t-114 -337
q0 -173 72.5 -298.5t225.5 -216.5v-274h-559zM85 1079l85 364h266l-142 -364h-209z" />
    <glyph glyph-name="iotadieresistonosgreek" unicode="&#x390;" horiz-adv-x="687" 
d="M489 -5q-188 0 -269.5 68.5t-81.5 229.5v801h247v-742q0 -81 36.5 -118.5t114.5 -37.5q47 0 95 5v-194q-53 -12 -142 -12zM-73 1265q-58 0 -97.5 38.5t-39.5 95.5q0 58 39 96t98 38q58 0 97 -38t39 -96q0 -57 -39 -95.5t-97 -38.5zM650 1265q-58 0 -97.5 38.5t-39.5 95.5
q0 58 39 96t98 38t97.5 -38t38.5 -96q0 -57 -39 -95.5t-97 -38.5zM164 1265l30 364h246l-85 -364h-191z" />
    <glyph glyph-name="Alphagreek" unicode="&#x391;" horiz-adv-x="1456" 
d="M1109 0l-122 369h-531l-124 -369h-261l512 1443h290l513 -1443h-277zM714 1168l-198 -595h411l-196 595h-17z" />
    <glyph glyph-name="Betagreek" unicode="&#x392;" horiz-adv-x="1393" 
d="M795 0h-617v1443h603q205 0 322 -96.5t117 -263.5q0 -114 -74 -203t-183 -106v-18q146 -14 237 -109.5t91 -236.5q0 -190 -132.5 -300t-363.5 -110zM436 1238v-402h249q137 0 208.5 51.5t71.5 149.5q0 95 -65 148t-182 53h-282zM436 205h300q143 0 217 57.5t74 167.5
q0 108 -76.5 164t-224.5 56h-290v-445z" />
    <glyph glyph-name="Gammagreek" unicode="&#x393;" horiz-adv-x="1178" 
d="M178 0v1443h900v-223h-642v-1220h-258z" />
    <glyph glyph-name="Deltagreek" unicode="&#x394;" horiz-adv-x="1465" 
d="M110 0v159l477 1284h291l478 -1284v-159h-1246zM385 223h681v17l-330 938h-18l-333 -938v-17z" />
    <glyph glyph-name="Epsilongreek" unicode="&#x395;" horiz-adv-x="1254" 
d="M1112 223v-223h-934v1443h934v-223h-676v-383h639v-210h-639v-404h676z" />
    <glyph glyph-name="Zetagreek" unicode="&#x396;" horiz-adv-x="1373" 
d="M138 0v176l759 1027v17h-738v223h1057v-176l-756 -1027v-17h775v-223h-1097z" />
    <glyph glyph-name="Etagreek" unicode="&#x397;" horiz-adv-x="1573" 
d="M1395 0h-257v623h-702v-623h-258v1443h258v-597h702v597h257v-1443z" />
    <glyph glyph-name="Thetagreek" unicode="&#x398;" horiz-adv-x="1657" 
d="M555 608v219h546v-219h-546zM830 190q204 0 321.5 140t117.5 392t-117.5 391.5t-321.5 139.5t-323 -139.5t-119 -391.5t118 -392t324 -140zM830 -36q-330 0 -518 199.5t-188 558.5q0 360 188 558.5t518 198.5q329 0 516 -198.5t187 -558.5q0 -358 -187.5 -558
t-515.5 -200z" />
    <glyph glyph-name="Iotagreek" unicode="&#x399;" horiz-adv-x="614" 
d="M436 0h-258v1443h258v-1443z" />
    <glyph glyph-name="Kappagreek" unicode="&#x39a;" horiz-adv-x="1415" 
d="M436 0h-258v1443h258v-664h17l569 664h296l-545 -629l588 -814h-315l-456 637l-154 -177v-460z" />
    <glyph glyph-name="Lambdagreek" unicode="&#x39b;" horiz-adv-x="1435" 
d="M80 0l492 1443h291l492 -1443h-276l-358 1158h-18l-361 -1158h-262z" />
    <glyph glyph-name="Mugreek" unicode="&#x39c;" horiz-adv-x="1847" 
d="M418 0h-240v1443h302l434 -1051h18l434 1051h302v-1443h-240v1015h-14l-399 -959h-184l-399 959h-14v-1015z" />
    <glyph glyph-name="Nugreek" unicode="&#x39d;" horiz-adv-x="1554" 
d="M427 0h-249v1443h224l708 -981h17v981h248v-1443h-223l-708 982h-17v-982z" />
    <glyph glyph-name="Xigreek" unicode="&#x39e;" horiz-adv-x="1362" 
d="M142 0v230h1077v-230h-1077zM229 622v217h903v-217h-903zM142 1213v230h1077v-230h-1077z" />
    <glyph glyph-name="Omicrongreek" unicode="&#x39f;" horiz-adv-x="1611" 
d="M807 1479q314 0 497.5 -204t183.5 -553t-183 -553.5t-498 -204.5q-317 0 -500.5 204t-183.5 554q0 349 184.5 553t499.5 204zM807 1250q-193 0 -306.5 -143t-113.5 -385q0 -243 112.5 -386t307.5 -143q192 0 304.5 143.5t112.5 385.5t-112.5 385t-304.5 143z" />
    <glyph glyph-name="Pigreek" unicode="&#x3a0;" horiz-adv-x="1553" 
d="M178 0v1443h1197v-1443h-257v1220h-682v-1220h-258z" />
    <glyph glyph-name="Rhogreek" unicode="&#x3a1;" horiz-adv-x="1351" 
d="M178 1443h582q216 0 350.5 -135t134.5 -353q0 -214 -138.5 -348t-357.5 -134h-313v-473h-258v1443zM436 1227v-540h255q139 0 215.5 70t76.5 198q0 132 -75.5 202t-215.5 70h-256z" />
    <glyph glyph-name="Sigmagreek" unicode="&#x3a3;" horiz-adv-x="1349" 
d="M145 0v169l396 555l-377 520v199h1028v-223h-699v-17l319 -450v-35l-342 -478v-17h748v-223h-1073z" />
    <glyph glyph-name="Taugreek" unicode="&#x3a4;" horiz-adv-x="1332" 
d="M795 0h-258v1220h-444v223h1147v-223h-445v-1220z" />
    <glyph glyph-name="Upsilongreek" unicode="&#x3a5;" horiz-adv-x="1412" 
d="M835 0h-258v564l-506 879h283l344 -617h17l343 617h283l-506 -879v-564z" />
    <glyph glyph-name="Phigreek" unicode="&#x3a6;" horiz-adv-x="1823" 
d="M791 -91v148q-305 14 -491.5 193t-186.5 465t186.5 465t491.5 193v151h241v-151q305 -14 491.5 -193t186.5 -465t-186.5 -465t-491.5 -193v-148h-241zM791 273v885q-195 -12 -308.5 -127.5t-113.5 -315.5t113.5 -315t308.5 -127zM1032 273q195 12 308.5 127t113.5 315
t-113.5 315.5t-308.5 127.5v-885z" />
    <glyph glyph-name="Chigreek" unicode="&#x3a7;" horiz-adv-x="1456" 
d="M89 0l472 727l-468 716h305l329 -530h17l334 530h290l-484 -722l476 -721h-298l-335 518h-17l-340 -518h-281z" />
    <glyph glyph-name="Psigreek" unicode="&#x3a8;" horiz-adv-x="1742" 
d="M747 0v318q-271 4 -431.5 162t-160.5 422v541h248v-541q0 -169 88 -261.5t256 -100.5v903h248v-903q168 8 255.5 100.5t87.5 261.5v541h248v-541q0 -265 -160.5 -423t-430.5 -161v-318h-248z" />
    <glyph glyph-name="Omegagreek" unicode="&#x3a9;" horiz-adv-x="1619" 
d="M125 0v216h293v17q-138 84 -215.5 236t-77.5 337q0 300 190 486.5t495 186.5q201 0 356.5 -84.5t241.5 -237.5t86 -351q0 -185 -77.5 -337t-214.5 -236v-17h292v-216h-558v274q152 91 225 216.5t73 298.5q0 213 -114 337t-310 124t-310 -124t-114 -337
q0 -173 72.5 -298.5t225.5 -216.5v-274h-559z" />
    <glyph glyph-name="Iotadieresisgreek" unicode="&#x3aa;" horiz-adv-x="614" 
d="M436 0h-258v1443h258v-1443zM84 1577q-61 0 -102 40.5t-41 100.5t41 100.5t102 40.5t102 -40.5t41 -100.5t-41 -100.5t-102 -40.5zM529 1577q-61 0 -102 40.5t-41 100.5t41 100.5t102 40.5t102 -40.5t41 -100.5t-41 -100.5t-102 -40.5z" />
    <glyph glyph-name="Upsilondieresisgreek" unicode="&#x3ab;" horiz-adv-x="1412" 
d="M835 0h-258v564l-506 879h283l344 -617h17l343 617h283l-506 -879v-564zM483 1577q-61 0 -102 40.5t-41 100.5t41 100.5t102 40.5t102 -40.5t41 -100.5t-41 -100.5t-102 -40.5zM928 1577q-61 0 -102 40.5t-41 100.5t41 100.5t102 40.5t102 -40.5t41 -100.5t-41 -100.5
t-102 -40.5z" />
    <glyph glyph-name="alphatonosgreek" unicode="&#x3ac;" horiz-adv-x="1346" 
d="M535 -18q-212 0 -334 151.5t-122 414.5q0 260 121.5 412t329.5 152q116 0 198.5 -56t122.5 -163h17v201h244v-778q0 -72 22 -98.5t81 -26.5q26 0 52 7v-193q-45 -15 -126 -15q-224 0 -259 180l-6 20h-18q-38 -98 -123 -153t-200 -55zM587 193q127 0 202 96.5t75 257.5
q0 159 -72 256.5t-189 97.5q-126 0 -197.5 -94.5t-71.5 -259.5q0 -163 68.5 -258.5t184.5 -95.5zM478 1265l85 364h266l-142 -364h-209z" />
    <glyph glyph-name="epsilontonosgreek" unicode="&#x3ad;" horiz-adv-x="1169" 
d="M496 1265l85 364h266l-142 -364h-209zM587 -23q-224 0 -355 85.5t-131 232.5q0 184 189 248v17q-86 35 -127 92t-41 142q0 147 128 234t342 87q220 0 347.5 -88t151.5 -259h-245q-39 144 -251 144q-106 0 -168 -36.5t-62 -100.5q0 -61 57 -94t162 -33h149v-194h-148
q-110 0 -170 -35t-60 -100q0 -66 62.5 -102t173.5 -36q108 0 179.5 43.5t93.5 124.5h252q-25 -165 -172.5 -268.5t-356.5 -103.5z" />
    <glyph glyph-name="etatonosgreek" unicode="&#x3ae;" horiz-adv-x="1356" 
d="M244 0v778q0 69 -23.5 97t-82.5 28q-28 0 -53 -7v194q48 14 124 14q115 0 179 -43t86 -135l4 -18h18q38 97 129 152.5t210 55.5q184 0 283.5 -106.5t99.5 -303.5v-1056h-247v997q0 253 -229 253q-113 0 -182 -72.5t-69 -192.5v-635h-247zM509 1265l85 364h266l-142 -364
h-209z" />
    <glyph glyph-name="iotatonosgreek" unicode="&#x3af;" horiz-adv-x="687" 
d="M489 -5q-188 0 -269.5 68.5t-81.5 229.5v801h247v-742q0 -81 36.5 -118.5t114.5 -37.5q47 0 95 5v-194q-53 -12 -142 -12zM159 1265l85 364h266l-142 -364h-209z" />
    <glyph glyph-name="upsilondieresistonosgreek" unicode="&#x3b0;" horiz-adv-x="1208" 
d="M220 1265q-58 0 -97.5 38.5t-39.5 95.5q0 58 39 96t98 38q58 0 97 -38t39 -96q0 -57 -39 -95.5t-97 -38.5zM943 1265q-58 0 -97.5 38.5t-39.5 95.5q0 58 39 96t98 38t97.5 -38t38.5 -96q0 -57 -39 -95.5t-97 -38.5zM457 1265l30 364h246l-85 -364h-191zM593 -22
q-226 0 -342.5 117.5t-116.5 341.5v657h238v-629q0 -138 54.5 -203.5t169.5 -65.5q122 0 188.5 94.5t66.5 263.5q0 163 -22 283t-79 257h245q47 -95 74.5 -236.5t27.5 -289.5q0 -281 -134 -435.5t-370 -154.5z" />
    <glyph glyph-name="alphagreek" unicode="&#x3b1;" horiz-adv-x="1346" 
d="M535 -18q-212 0 -334 151.5t-122 414.5q0 260 121.5 412t329.5 152q116 0 198.5 -56t122.5 -163h17v201h244v-778q0 -72 22 -98.5t81 -26.5q26 0 52 7v-193q-45 -15 -126 -15q-224 0 -259 180l-6 20h-18q-38 -98 -123 -153t-200 -55zM587 193q127 0 202 96.5t75 257.5
q0 159 -72 256.5t-189 97.5q-126 0 -197.5 -94.5t-71.5 -259.5q0 -163 68.5 -258.5t184.5 -95.5z" />
    <glyph glyph-name="betagreek" unicode="&#x3b2;" horiz-adv-x="1303" 
d="M149 -350v1360q0 257 127.5 393t368.5 136q215 0 338 -104t123 -288q0 -102 -54.5 -184.5t-147.5 -122.5v-18q152 -37 230 -136.5t78 -257.5q0 -200 -125 -323t-330 -123q-118 0 -211.5 50t-131.5 134h-18v-516h-247zM700 193q113 0 185.5 70.5t72.5 181.5
q0 131 -82 198.5t-242 67.5h-81v197h80q115 0 178 55t63 155q0 99 -60.5 156.5t-163.5 57.5q-125 0 -189.5 -76.5t-64.5 -225.5v-501q0 -160 80 -248t224 -88z" />
    <glyph glyph-name="gammagreek" unicode="&#x3b3;" horiz-adv-x="1194" 
d="M438 -344v297l-388 1141h260l267 -870h17q127 188 190 347.5t63 321.5q0 118 -18 201h236q19 -83 19 -200q0 -211 -99.5 -435t-302.5 -493v-310h-244z" />
    <glyph glyph-name="deltagreek" unicode="&#x3b4;" horiz-adv-x="1210" 
d="M597 -22q-238 0 -378.5 140t-140.5 378q0 183 103.5 315.5t276.5 170.5v20q-200 93 -200 262q0 126 106.5 200.5t287.5 74.5q230 0 370 -82v-195q-169 82 -349 82q-76 0 -117.5 -25t-41.5 -72q0 -41 37 -72.5t144 -82.5q228 -121 330 -258t102 -331q0 -233 -145 -379
t-385 -146zM599 172q125 0 198 89.5t73 243.5q0 151 -76 243.5t-199 92.5q-119 0 -192 -92.5t-73 -243.5q0 -153 73 -243t196 -90z" />
    <glyph glyph-name="epsilongreek" unicode="&#x3b5;" horiz-adv-x="1169" 
d="M587 -22q-224 0 -355 85.5t-131 232.5q0 184 189 248v17q-86 35 -127 92t-41 142q0 147 128 234t342 87q220 0 347.5 -88t151.5 -259h-245q-39 144 -251 144q-106 0 -168 -36.5t-62 -100.5q0 -61 57 -94t162 -33h149v-194h-148q-110 0 -170 -35t-60 -100q0 -66 62.5 -102
t173.5 -36q108 0 179.5 43.5t93.5 124.5h252q-25 -165 -172.5 -268.5t-356.5 -103.5z" />
    <glyph glyph-name="zetagreek" unicode="&#x3b6;" horiz-adv-x="988" 
d="M857 -383l-190 70q75 113 75 193q0 62 -40 94.5t-170 75.5q-250 84 -348.5 196.5t-98.5 318.5q0 179 121.5 362t360.5 361v17h-398v212h786v-182q-310 -199 -464 -382t-154 -367q0 -128 62 -193t241 -126q198 -68 267.5 -137t69.5 -197q0 -147 -120 -316z" />
    <glyph glyph-name="etagreek" unicode="&#x3b7;" horiz-adv-x="1356" 
d="M244 0v778q0 69 -23.5 97t-82.5 28q-28 0 -53 -7v194q48 14 124 14q115 0 179 -43t86 -135l4 -18h18q38 97 129 152.5t210 55.5q184 0 283.5 -106.5t99.5 -303.5v-1056h-247v997q0 253 -229 253q-113 0 -182 -72.5t-69 -192.5v-635h-247z" />
    <glyph glyph-name="thetagreek" unicode="&#x3b8;" horiz-adv-x="1266" 
d="M633 -22q-258 0 -395 200t-137 583q0 381 137.5 579.5t394.5 198.5q256 0 393.5 -198t137.5 -582q0 -382 -137 -581.5t-394 -199.5zM633 177q135 0 205.5 116t75.5 370h-563q6 -254 76.5 -370t205.5 -116zM352 868h562q-16 473 -281 473t-281 -473z" />
    <glyph glyph-name="iotagreek" unicode="&#x3b9;" horiz-adv-x="687" 
d="M489 -5q-188 0 -269.5 68.5t-81.5 229.5v801h247v-742q0 -81 36.5 -118.5t114.5 -37.5q47 0 95 5v-194q-53 -12 -142 -12z" />
    <glyph glyph-name="kappagreek" unicode="&#x3ba;" horiz-adv-x="1252" 
d="M149 0v1094h244v-513h17l295 340q90 105 156.5 144t155.5 39q61 0 109 -14v-194q-30 7 -62 7q-52 0 -90.5 -23.5t-98.5 -92.5l-130 -149l419 -638h-267l-310 476l-194 -207v-269h-244z" />
    <glyph glyph-name="lambdagreek" unicode="&#x3bb;" horiz-adv-x="1242" 
d="M32 0l449 1031l-33 90q-53 139 -92.5 178t-130.5 39q-15 0 -56 -6v193q54 14 116 14q77 0 128.5 -16.5t97 -64t81.5 -121t81 -197.5l303 -835q23 -65 55 -89.5t92 -24.5q15 0 52 7v-193q-43 -15 -121 -15q-119 0 -181 47.5t-106 172.5l-180 506h-17l-286 -716h-252z" />
    <glyph glyph-name="mugreek" unicode="&#x3bc;" horiz-adv-x="1373" 
d="M149 -350v1444h247v-648q0 -123 57 -186.5t166 -63.5q120 0 190 70.5t70 189.5v638h248v-778q0 -72 22 -98.5t81 -26.5q19 0 52 7v-193q-50 -15 -119 -15q-117 0 -176 41t-80 139l-3 13h-17q-71 -205 -287 -205q-138 0 -186 96h-18v-424h-247z" />
    <glyph glyph-name="nugreek" unicode="&#x3bd;" horiz-adv-x="1194" 
d="M707 0h-284l-373 1094h260l267 -871h17q128 189 190.5 348.5t62.5 322.5q0 118 -18 200h236q19 -85 19 -198q0 -206 -92.5 -419t-284.5 -477z" />
    <glyph glyph-name="xigreek" unicode="&#x3be;" horiz-adv-x="1022" 
d="M860 -382l-189 70q41 66 57.5 108.5t16.5 84.5q0 64 -41.5 96t-185.5 80q-239 82 -334 168t-95 224q0 118 69.5 199t201.5 117v17q-108 44 -158.5 107t-50.5 157q0 91 57.5 156.5t154.5 86.5v16h-208v212h794v-183l-120 -14q-241 -28 -340 -82t-99 -159q0 -87 76.5 -128
t239.5 -41h168v-205h-178q-172 0 -264 -54t-92 -154q0 -43 10 -69t46 -53t92.5 -50.5t162.5 -59.5q192 -67 261 -135.5t69 -191.5q0 -79 -28 -152.5t-93 -167.5z" />
    <glyph glyph-name="omicrongreek" unicode="&#x3bf;" horiz-adv-x="1227" 
d="M614 -22q-242 0 -382.5 151.5t-140.5 417.5t141.5 417.5t381.5 151.5t381 -151.5t141 -417.5t-140 -417.5t-382 -151.5zM614 186q126 0 196.5 95t70.5 266t-71 266t-196 95q-126 0 -197 -95t-71 -266q0 -172 70.5 -266.5t197.5 -94.5z" />
    <glyph glyph-name="pigreek" unicode="&#x3c0;" horiz-adv-x="1478" 
d="M284 0v882h-201v212h1281v-212h-223v-567q0 -72 23.5 -98t86.5 -26q27 0 55 7v-193q-47 -15 -124 -15q-156 0 -217.5 66.5t-61.5 226.5v599h-381v-882h-238z" />
    <glyph glyph-name="rhogreek" unicode="&#x3c1;" horiz-adv-x="1258" 
d="M120 -350v889q0 272 140 424.5t383 152.5q252 0 388 -151t136 -408q0 -269 -123 -422t-335 -153q-114 0 -198 48t-126 136h-17v-516h-248zM635 193q132 0 204.5 95.5t72.5 271.5q0 169 -71.5 258.5t-201.5 89.5t-202.5 -97t-72.5 -273q0 -157 74.5 -251t196.5 -94z" />
    <glyph glyph-name="sigmafinalgreek" unicode="&#x3c2;" horiz-adv-x="1151" 
d="M862 -381l-189 70q74 114 74 192q0 63 -40.5 95.5t-170.5 75.5q-247 83 -346 202t-99 322q0 248 143 394t377 146q198 0 321 -103t145 -287h-237q-42 182 -230 182q-119 0 -193.5 -85t-74.5 -232q0 -89 25 -143t89.5 -96t189.5 -84q198 -68 267.5 -137t69.5 -197
q0 -148 -121 -315z" />
    <glyph glyph-name="sigmagreek" unicode="&#x3c3;" horiz-adv-x="1366" 
d="M609 -22q-239 0 -378.5 149t-139.5 404q0 256 153 409.5t408 153.5h631v-212h-287v-17q61 -52 95.5 -142t34.5 -194q0 -250 -141 -400.5t-376 -150.5zM612 183q127 0 198.5 95t71.5 261q0 158 -73.5 249.5t-195.5 91.5t-194.5 -92.5t-72.5 -248.5q0 -167 71.5 -261.5
t194.5 -94.5z" />
    <glyph glyph-name="taugreek" unicode="&#x3c4;" horiz-adv-x="1137" 
d="M753 -5q-194 0 -276.5 68.5t-82.5 228.5v590h-333v212h979v-212h-398v-530q0 -82 37.5 -119t122.5 -37q60 0 102 5v-194q-53 -12 -151 -12z" />
    <glyph glyph-name="upsilongreek" unicode="&#x3c5;" horiz-adv-x="1208" 
d="M593 -22q-226 0 -342.5 117.5t-116.5 341.5v657h238v-629q0 -138 54.5 -203.5t169.5 -65.5q122 0 188.5 94.5t66.5 263.5q0 163 -22 283t-79 257h245q47 -95 74.5 -236.5t27.5 -289.5q0 -281 -134 -435.5t-370 -154.5z" />
    <glyph glyph-name="phigreek" unicode="&#x3c6;" horiz-adv-x="1584" 
d="M677 -350v327q-267 11 -428 163.5t-161 406.5q0 255 161 407.5t428 163.5v275h230v-275q267 -11 428.5 -163.5t161.5 -407.5q0 -254 -161.5 -406.5t-428.5 -163.5v-327h-230zM681 176v741q-166 -11 -259 -108t-93 -262t93 -261.5t259 -109.5zM904 176q165 13 258 109.5
t93 261.5t-93 262t-258 108v-741z" />
    <glyph glyph-name="chigreek" unicode="&#x3c7;" horiz-adv-x="1210" 
d="M78 -350l401 713l-219 425q-36 69 -70 92t-93 23q-26 0 -52 -7v194q49 14 118 14q111 0 173 -42t119 -155l162 -315h17l264 500h252l-414 -737l209 -401q32 -64 67 -88.5t95 -24.5q28 0 52 7v-194q-51 -14 -123 -14q-106 0 -166 38t-110 136l-162 313h-18l-251 -477h-251
z" />
    <glyph glyph-name="psigreek" unicode="&#x3c8;" horiz-adv-x="1564" 
d="M658 -350v328q-249 0 -386.5 121t-137.5 340v655h238v-607q0 -152 69 -221.5t217 -69.5v1197h236v-1196q151 0 232 94t81 268q0 302 -101 535h246q45 -91 73.5 -232t28.5 -279q0 -288 -147 -446.5t-413 -158.5v-328h-236z" />
    <glyph glyph-name="omegagreek" unicode="&#x3c9;" horiz-adv-x="1639" 
d="M499 -22q-191 0 -293 137.5t-102 395.5q0 168 46.5 322.5t128.5 260.5h255q-185 -265 -185 -582q0 -316 181 -316q81 0 127 60.5t46 168.5v356h232v-356q0 -107 46.5 -168t126.5 -61q92 0 136.5 77.5t44.5 238.5q0 316 -184 582h255q82 -107 128.5 -261.5t46.5 -321.5
q0 -258 -102.5 -395.5t-293.5 -137.5q-111 0 -187 54.5t-124 168.5h-17q-48 -114 -124.5 -168.5t-187.5 -54.5z" />
    <glyph glyph-name="iotadieresisgreek" unicode="&#x3ca;" horiz-adv-x="687" 
d="M489 -5q-188 0 -269.5 68.5t-81.5 229.5v801h247v-742q0 -81 36.5 -118.5t114.5 -37.5q47 0 95 5v-194q-53 -12 -142 -12zM41 1242q-61 0 -102 40.5t-41 100.5t41 100.5t102 40.5t102 -40.5t41 -100.5t-41 -100.5t-102 -40.5zM486 1242q-61 0 -102 40.5t-41 100.5
t41 100.5t102 40.5t102 -40.5t41 -100.5t-41 -100.5t-102 -40.5z" />
    <glyph glyph-name="upsilondieresisgreek" unicode="&#x3cb;" horiz-adv-x="1208" 
d="M348 1242q-61 0 -102 40.5t-41 100.5t41 100.5t102 40.5t102 -40.5t41 -100.5t-41 -100.5t-102 -40.5zM793 1242q-61 0 -102 40.5t-41 100.5t41 100.5t102 40.5t102 -40.5t41 -100.5t-41 -100.5t-102 -40.5zM593 -22q-226 0 -342.5 117.5t-116.5 341.5v657h238v-629
q0 -138 54.5 -203.5t169.5 -65.5q122 0 188.5 94.5t66.5 263.5q0 163 -22 283t-79 257h245q47 -95 74.5 -236.5t27.5 -289.5q0 -281 -134 -435.5t-370 -154.5z" />
    <glyph glyph-name="omicrontonosgreek" unicode="&#x3cc;" horiz-adv-x="1227" 
d="M614 -22q-242 0 -382.5 151.5t-140.5 417.5t141.5 417.5t381.5 151.5t381 -151.5t141 -417.5t-140 -417.5t-382 -151.5zM614 186q126 0 196.5 95t70.5 266t-71 266t-196 95q-126 0 -197 -95t-71 -266q0 -172 70.5 -266.5t197.5 -94.5zM499 1265l85 364h266l-142 -364
h-209z" />
    <glyph glyph-name="upsilontonosgreek" unicode="&#x3cd;" horiz-adv-x="1208" 
d="M449 1265l85 364h266l-142 -364h-209zM593 -22q-226 0 -342.5 117.5t-116.5 341.5v657h238v-629q0 -138 54.5 -203.5t169.5 -65.5q122 0 188.5 94.5t66.5 263.5q0 163 -22 283t-79 257h245q47 -95 74.5 -236.5t27.5 -289.5q0 -281 -134 -435.5t-370 -154.5z" />
    <glyph glyph-name="omegatonosgreek" unicode="&#x3ce;" horiz-adv-x="1639" 
d="M499 -22q-191 0 -293 137.5t-102 395.5q0 168 46.5 322.5t128.5 260.5h255q-185 -265 -185 -582q0 -316 181 -316q81 0 127 60.5t46 168.5v356h232v-356q0 -107 46.5 -168t126.5 -61q92 0 136.5 77.5t44.5 238.5q0 316 -184 582h255q82 -107 128.5 -261.5t46.5 -321.5
q0 -258 -102.5 -395.5t-293.5 -137.5q-111 0 -187 54.5t-124 168.5h-17q-48 -114 -124.5 -168.5t-187.5 -54.5zM705 1265l85 364h266l-142 -364h-209z" />
    <glyph glyph-name="Iocyrillic" unicode="&#x401;" horiz-adv-x="1274" 
d="M432 1577q-61 0 -102 40.5t-41 100.5t41 100.5t102 40.5t102 -40.5t41 -100.5t-41 -100.5t-102 -40.5zM877 1577q-61 0 -102 40.5t-41 100.5t41 100.5t102 40.5t102 -40.5t41 -100.5t-41 -100.5t-102 -40.5zM1122 223v-223h-934v1443h934v-223h-676v-383h639v-210h-639
v-404h676z" />
    <glyph glyph-name="Djecyrillic" unicode="&#x402;" horiz-adv-x="1771" 
d="M1174 -52q-41 0 -76 4.5t-50 9.5l-14 4v214q40 -14 122 -14q111 0 178 65.5t67 188.5q0 111 -71 184.5t-205 73.5q-71 0 -130.5 -19t-97 -50t-58.5 -57t-34 -51v-501h-258v1220h-444v223h1147v-223h-445v-442h17q133 129 346 129q120 0 215 -38t154.5 -103.5t90.5 -150.5
t31 -182q0 -219 -129.5 -352t-355.5 -133z" />
    <glyph glyph-name="Gjecyrillic" unicode="&#x403;" horiz-adv-x="1201" 
d="M477 1574l288 310h283l-321 -310h-250zM447 0h-259v1443h903v-224h-644v-1219z" />
    <glyph glyph-name="Ecyrillic" unicode="&#x404;" horiz-adv-x="1547" 
d="M1424 451q-26 -217 -196 -352t-423 -135q-311 0 -491 203t-180 554q0 352 180 555t490 203q250 0 423.5 -143t195.5 -365h-253q-27 126 -126.5 202t-239.5 76q-167 0 -274.5 -109.5t-126.5 -299.5h594v-213h-597q14 -199 123.5 -316t281.5 -117q141 0 240 70t125 187h254
z" />
    <glyph glyph-name="Dzecyrillic" unicode="&#x405;" horiz-adv-x="1374" 
d="M122 392h252q12 -97 101 -154.5t226 -57.5q128 0 210.5 58.5t82.5 149.5q0 78 -62.5 127t-201.5 81l-187 43q-196 44 -290.5 143.5t-94.5 260.5q0 197 147.5 316.5t389.5 119.5q227 0 376 -118t158 -304h-247q-13 95 -91 151t-197 56q-125 0 -200.5 -55.5t-75.5 -147.5
q0 -73 59 -118.5t193 -76.5l166 -38q219 -49 317.5 -146t98.5 -262q0 -211 -152.5 -333.5t-414.5 -122.5q-248 0 -400.5 116t-162.5 312z" />
    <glyph glyph-name="Icyrillic" unicode="&#x406;" horiz-adv-x="634" 
d="M446 0h-258v1443h258v-1443z" />
    <glyph glyph-name="Yicyrillic" unicode="&#x407;" horiz-adv-x="634" 
d="M446 0h-258v1443h258v-1443zM94 1577q-61 0 -102 40.5t-41 100.5t41 100.5t102 40.5t102 -40.5t41 -100.5t-41 -100.5t-102 -40.5zM539 1577q-61 0 -102 40.5t-41 100.5t41 100.5t102 40.5t102 -40.5t41 -100.5t-41 -100.5t-102 -40.5z" />
    <glyph glyph-name="Jecyrillic" unicode="&#x408;" horiz-adv-x="1204" 
d="M89 393h252q1 -89 58 -143t149 -54q102 0 156 60.5t54 176.5v1010h258v-1012q0 -222 -123 -344.5t-342 -122.5q-208 0 -335 117t-127 312z" />
    <glyph glyph-name="Ljecyrillic" unicode="&#x409;" horiz-adv-x="2224" 
d="M557 561q-8 -138 -33 -239.5t-71.5 -178t-122 -115.5t-179.5 -39q-57 0 -95 12v233q30 -7 63 -7q55 0 93 25t59.5 75.5t31.5 108.5t15 141l46 866h949v-500h306q220 0 358 -130.5t138 -340.5q0 -211 -135 -341.5t-351 -130.5h-574v1220h-459zM1313 217h248q139 0 215 66
t76 189t-76.5 189.5t-215.5 66.5h-247v-511z" />
    <glyph glyph-name="Njecyrillic" unicode="&#x40a;" horiz-adv-x="2290" 
d="M1372 217h258q135 0 209 56.5t74 159.5q0 99 -74 151.5t-210 52.5h-257v-420zM446 633v-633h-258v1443h258v-590h668v590h258v-590h306q220 0 358 -116.5t138 -303.5q0 -194 -135 -313.5t-351 -119.5h-574v633h-668z" />
    <glyph glyph-name="Tshecyrillic" unicode="&#x40b;" horiz-adv-x="1807" 
d="M1115 678q-57 0 -106 -14t-81 -33t-59 -45.5t-40.5 -45.5t-23.5 -39v-501h-258v1220h-444v223h1147v-223h-445v-441h17q130 128 339 128q120 0 214 -39.5t153.5 -109t90.5 -162.5t31 -203v-393h-258v376q0 138 -69.5 220t-207.5 82z" />
    <glyph glyph-name="Kjecyrillic" unicode="&#x40c;" horiz-adv-x="1435" 
d="M559 1574l288 310h283l-321 -310h-250zM456 823h44l542 620h296l-619 -702l665 -741h-318l-565 618h-45v-618h-258v1443h258v-620z" />
    <glyph glyph-name="Ushortcyrillic" unicode="&#x40e;" horiz-adv-x="1383" 
d="M323 1901h195q1 -75 48.5 -120t120.5 -45q74 0 122 45t49 120h195q0 -144 -100 -229t-266 -85q-165 0 -264.5 85t-99.5 229zM370 -12q-78 0 -109 14v221q41 -9 85 -9q74 0 125.5 27.5t90.5 91.5l-484 1110h273l339 -842h17l328 842h270l-442 -1030q-47 -110 -90.5 -182
t-101 -130.5t-131.5 -85.5t-170 -27z" />
    <glyph glyph-name="Dzhecyrillic" unicode="&#x40f;" horiz-adv-x="1576" 
d="M667 0h-479v1443h258v-1220h684v1220h258v-1443h-479v-285h-242v285z" />
    <glyph glyph-name="Acyrillic" unicode="&#x410;" horiz-adv-x="1476" 
d="M1119 0l-122 369h-531l-124 -369h-261l512 1443h290l513 -1443h-277zM724 1168l-198 -595h411l-196 595h-17z" />
    <glyph glyph-name="Becyrillic" unicode="&#x411;" horiz-adv-x="1359" 
d="M1242 448q0 -200 -135 -324t-351 -124h-568v1443h917v-223h-659v-329h302q219 0 356.5 -123t137.5 -320zM446 217h245q137 0 212 60t75 171q0 113 -75 173t-213 60h-244v-464z" />
    <glyph glyph-name="Vecyrillic" unicode="&#x412;" horiz-adv-x="1413" 
d="M805 0h-617v1443h603q205 0 322 -96.5t117 -263.5q0 -114 -74 -203t-183 -106v-18q146 -14 237 -109.5t91 -236.5q0 -190 -132.5 -300t-363.5 -110zM446 1238v-402h249q137 0 208.5 51.5t71.5 149.5q0 95 -65 148t-182 53h-282zM446 205h300q143 0 217 57.5t74 167.5
q0 108 -76.5 164t-224.5 56h-290v-445z" />
    <glyph glyph-name="Gecyrillic" unicode="&#x413;" horiz-adv-x="1201" 
d="M447 0h-259v1443h903v-224h-644v-1219z" />
    <glyph glyph-name="Decyrillic" unicode="&#x414;" horiz-adv-x="1567" 
d="M528 583q-8 -128 -28.5 -209t-66.5 -135v-16h627v997h-491zM275 0v-285h-235v508h103q73 47 105.5 135.5t41.5 241.5l51 843h976v-1220h180v-508h-234v285h-988z" />
    <glyph glyph-name="Iecyrillic" unicode="&#x415;" horiz-adv-x="1274" 
d="M1122 223v-223h-934v1443h934v-223h-676v-383h639v-210h-639v-404h676z" />
    <glyph glyph-name="Zhecyrillic" unicode="&#x416;" horiz-adv-x="2134" 
d="M938 820v623h254v-623h47l495 623h289l-572 -704l619 -739h-313l-517 620h-48v-620h-254v620h-47l-518 -620h-309l616 734l-575 709h292l495 -623h46z" />
    <glyph glyph-name="Zecyrillic" unicode="&#x417;" horiz-adv-x="1324" 
d="M456 628v212h193q114 0 185 60.5t71 157.5q0 96 -68 152.5t-188 56.5t-193.5 -58.5t-81.5 -159.5h-242q10 198 150.5 314t374.5 116q220 0 359.5 -108.5t139.5 -281.5q0 -120 -73.5 -211.5t-190.5 -117.5v-17q144 -15 233 -108t89 -239q0 -187 -159 -309.5t-397 -122.5
q-241 0 -392.5 119.5t-161.5 316.5h248q8 -99 91 -158t216 -59q131 0 210.5 63.5t79.5 165.5q0 101 -78 158.5t-218 57.5h-197z" />
    <glyph glyph-name="Iicyrillic" unicode="&#x418;" horiz-adv-x="1597" 
d="M1152 0v1026h-17l-697 -1026h-250v1443h257v-1028h17l696 1028h250v-1443h-256z" />
    <glyph glyph-name="Iishortcyrillic" unicode="&#x419;" horiz-adv-x="1597" 
d="M425 1901h195q1 -75 48.5 -120t120.5 -45q74 0 122 45t49 120h195q0 -144 -100 -229t-266 -85q-165 0 -264.5 85t-99.5 229zM1152 0v1026h-17l-697 -1026h-250v1443h257v-1028h17l696 1028h250v-1443h-256z" />
    <glyph glyph-name="Kacyrillic" unicode="&#x41a;" horiz-adv-x="1438" 
d="M446 823h44l542 620h296l-619 -702l665 -741h-318l-565 618h-45v-618h-258v1443h258v-620z" />
    <glyph glyph-name="Elcyrillic" unicode="&#x41b;" horiz-adv-x="1491" 
d="M1303 0h-258v1220h-459l-39 -659q-8 -138 -33 -239.5t-71.5 -178t-122 -115.5t-179.5 -39q-57 0 -95 12v233q30 -7 63 -7q55 0 93 25t59.5 75.5t31.5 108.5t15 141l46 866h949v-1443z" />
    <glyph glyph-name="Emcyrillic" unicode="&#x41c;" horiz-adv-x="1866" 
d="M428 0h-240v1443h302l434 -1051h18l434 1051h302v-1443h-240v1015h-14l-399 -959h-184l-399 959h-14v-1015z" />
    <glyph glyph-name="Encyrillic" unicode="&#x41d;" horiz-adv-x="1593" 
d="M1405 0h-257v623h-702v-623h-258v1443h258v-597h702v597h257v-1443z" />
    <glyph glyph-name="Ocyrillic" unicode="&#x41e;" horiz-adv-x="1631" 
d="M817 1479q314 0 497.5 -204t183.5 -553t-183 -553.5t-498 -204.5q-317 0 -500.5 204t-183.5 554q0 349 184.5 553t499.5 204zM817 1250q-193 0 -306.5 -143t-113.5 -385q0 -243 112.5 -386t307.5 -143q192 0 304.5 143.5t112.5 385.5t-112.5 385t-304.5 143z" />
    <glyph glyph-name="Pecyrillic" unicode="&#x41f;" horiz-adv-x="1576" 
d="M1388 0h-257v1219h-684v-1219h-259v1443h1200v-1443z" />
    <glyph glyph-name="Ercyrillic" unicode="&#x420;" horiz-adv-x="1371" 
d="M188 1443h582q216 0 350.5 -135t134.5 -353q0 -214 -138.5 -348t-357.5 -134h-313v-473h-258v1443zM446 1227v-540h255q139 0 215.5 70t76.5 198q0 132 -75.5 202t-215.5 70h-256z" />
    <glyph glyph-name="Escyrillic" unicode="&#x421;" horiz-adv-x="1544" 
d="M796 -36q-307 0 -485 203.5t-178 553.5q0 352 177.5 555t484.5 203q246 0 417 -144.5t194 -370.5h-254q-27 130 -124 207.5t-233 77.5q-184 0 -291 -141.5t-107 -385.5t107 -386t292 -142q137 0 234 71.5t123 192.5h254q-26 -222 -194 -358t-417 -136z" />
    <glyph glyph-name="Tecyrillic" unicode="&#x422;" horiz-adv-x="1352" 
d="M805 0h-258v1220h-444v223h1147v-223h-445v-1220z" />
    <glyph glyph-name="Ucyrillic" unicode="&#x423;" horiz-adv-x="1383" 
d="M370 -12q-78 0 -109 14v221q41 -9 85 -9q74 0 125.5 27.5t90.5 91.5l-484 1110h273l339 -842h17l328 842h270l-442 -1030q-47 -110 -90.5 -182t-101 -130.5t-131.5 -85.5t-170 -27z" />
    <glyph glyph-name="Efcyrillic" unicode="&#x424;" horiz-adv-x="1804" 
d="M777 344v761q-181 -8 -289 -109t-108 -271q0 -171 107 -272t290 -109zM1423 724q0 171 -107 272.5t-289 108.5v-761q181 8 288.5 109t107.5 271zM774 126q-298 8 -476 167.5t-178 431.5t179 430.5t475 167.5v147h255v-147q298 -8 476 -167t178 -432q0 -181 -83 -315
t-229.5 -205t-341.5 -78v-153h-255v153z" />
    <glyph glyph-name="Xacyrillic" unicode="&#x425;" horiz-adv-x="1476" 
d="M99 0l472 727l-468 716h305l329 -530h17l334 530h290l-484 -722l476 -721h-298l-335 518h-17l-340 -518h-281z" />
    <glyph glyph-name="Tsecyrillic" unicode="&#x426;" horiz-adv-x="1638" 
d="M1568 -285h-234v285h-1146v1443h258v-1220h685v1220h257v-1220h180v-508z" />
    <glyph glyph-name="Checyrillic" unicode="&#x427;" horiz-adv-x="1486" 
d="M1298 0h-258v637h-17q-136 -128 -355 -128q-245 0 -387.5 149t-142.5 385v400h257v-376q0 -148 80.5 -237t229.5 -89q120 0 208 50t127 130v522h258v-1443z" />
    <glyph glyph-name="Shacyrillic" unicode="&#x428;" horiz-adv-x="2051" 
d="M188 0v1443h258v-1220h451v1220h257v-1220h451v1220h258v-1443h-1675z" />
    <glyph glyph-name="Shchacyrillic" unicode="&#x429;" horiz-adv-x="2113" 
d="M2043 -285h-235v285h-1620v1443h258v-1220h451v1220h257v-1220h451v1220h258v-1220h180v-508z" />
    <glyph glyph-name="Hardsigncyrillic" unicode="&#x42a;" horiz-adv-x="1603" 
d="M1008 0h-574v1220h-334v223h591v-500h306q220 0 358.5 -130.5t138.5 -340.5q0 -211 -135 -341.5t-351 -130.5zM691 217h249q138 0 214 66t76 189t-76 189.5t-215 66.5h-248v-511z" />
    <glyph glyph-name="Yericyrillic" unicode="&#x42b;" horiz-adv-x="1872" 
d="M1684 0h-258v1443h258v-1443zM195 0v1443h258v-500h306q220 0 358.5 -130.5t138.5 -340.5q0 -211 -135 -341.5t-351 -130.5h-575zM453 217h249q138 0 214 66t76 189t-76 189.5t-215 66.5h-248v-511z" />
    <glyph glyph-name="Softsigncyrillic" unicode="&#x42c;" horiz-adv-x="1364" 
d="M188 0v1443h258v-500h306q220 0 358.5 -130.5t138.5 -340.5q0 -211 -135 -341.5t-351 -130.5h-575zM446 217h249q138 0 214 66t76 189t-76 189.5t-215 66.5h-248v-511z" />
    <glyph glyph-name="Ereversedcyrillic" unicode="&#x42d;" horiz-adv-x="1547" 
d="M749 -36q-256 0 -428 135t-197 352h253q26 -117 127.5 -187t245.5 -70q169 0 276.5 116t121.5 317h-597v213h596q-19 191 -125.5 300t-270.5 109q-142 0 -244 -76t-129 -202h-254q23 222 198 365t428 143q307 0 485.5 -202.5t178.5 -553.5q0 -352 -178.5 -555.5
t-486.5 -203.5z" />
    <glyph glyph-name="IUcyrillic" unicode="&#x42e;" horiz-adv-x="2150" 
d="M1345 -36q-289 0 -466 176t-202 483h-231v-623h-258v1443h258v-597h233q32 295 208.5 464t457.5 169q310 0 490.5 -203.5t180.5 -553.5q0 -349 -180 -553.5t-491 -204.5zM1344 1250q-188 0 -299 -143t-111 -385q0 -243 110 -386t300 -143q188 0 298.5 143.5t110.5 385.5
t-110.5 385t-298.5 143z" />
    <glyph glyph-name="IAcyrillic" unicode="&#x42f;" horiz-adv-x="1424" 
d="M979 737v491h-267q-133 0 -207.5 -64.5t-74.5 -180.5q0 -117 74 -181.5t208 -64.5h267zM749 531l-363 -531h-290l392 567q-146 42 -234 153t-88 264q0 205 138 332t364 127h567v-1443h-256v531h-230z" />
    <glyph glyph-name="acyrillic" unicode="&#x430;" horiz-adv-x="1208" 
d="M536 177q112 0 187 64.5t75 159.5v87l-247 -16q-204 -13 -204 -148q0 -68 52.5 -107.5t136.5 -39.5zM463 -18q-160 0 -261 90t-101 238t107.5 232t307.5 96l282 17v92q0 81 -53 124t-153 43q-86 0 -142 -29.5t-73 -84.5h-234q15 145 140.5 230.5t320.5 85.5
q210 0 324.5 -97t114.5 -272v-747h-239v150h-17q-46 -79 -131.5 -123.5t-192.5 -44.5z" />
    <glyph glyph-name="becyrillic" unicode="&#x431;" horiz-adv-x="1284" 
d="M642 186q131 0 203.5 90t72.5 254q0 157 -72.5 244t-203.5 87t-203.5 -87t-72.5 -244q0 -164 72 -254t204 -90zM308 855h17q111 206 367 206q217 0 349 -141.5t132 -384.5q0 -259 -141.5 -408t-386.5 -149q-257 0 -395.5 165t-138.5 490q0 414 134.5 616.5t440.5 214.5
l129 5q76 3 147.5 15.5t104 22.5t34.5 12v-206q-8 -5 -25.5 -13t-87 -22.5t-158.5 -17.5l-126 -5q-103 -4 -174.5 -31t-116.5 -80t-69 -122t-36 -167z" />
    <glyph glyph-name="vecyrillic" unicode="&#x432;" horiz-adv-x="1194" 
d="M623 920h-219v-273h198q183 0 183 138q0 63 -41 99t-121 36zM618 484h-214v-310h235q93 0 141.5 40t48.5 115q0 155 -211 155zM159 0v1094h520q165 0 257.5 -74.5t92.5 -202.5q0 -84 -54.5 -150.5t-135.5 -80.5v-18q107 -11 172.5 -81t65.5 -171q0 -144 -104.5 -230
t-285.5 -86h-528z" />
    <glyph glyph-name="gecyrillic" unicode="&#x433;" horiz-adv-x="986" 
d="M896 896h-489v-896h-248v1094h737v-198z" />
    <glyph glyph-name="decyrillic" unicode="&#x434;" horiz-adv-x="1325" 
d="M860 198v699h-362l-28 -388q-15 -198 -82 -293v-18h472zM264 -285h-228v483h86q107 64 125 325l38 571h823v-896h167v-483h-228v285h-783v-285z" />
    <glyph glyph-name="iecyrillic" unicode="&#x435;" horiz-adv-x="1236" 
d="M624 919q-111 0 -183 -73t-80 -193h515q-4 122 -72 194t-180 72zM878 301h235q-35 -150 -164.5 -236.5t-321.5 -86.5q-241 0 -378.5 150.5t-137.5 414.5t138 418.5t376 154.5q234 0 366.5 -146.5t132.5 -405.5v-80h-764v-13q5 -137 78.5 -216.5t195.5 -79.5
q188 0 244 126z" />
    <glyph glyph-name="zhecyrillic" unicode="&#x436;" horiz-adv-x="1739" 
d="M60 0l432 587l-412 507h282l331 -442h54v442h242v-442h54l331 442h281l-411 -504l434 -590h-294l-338 474h-57v-474h-242v474h-56l-338 -474h-293z" />
    <glyph glyph-name="zecyrillic" unicode="&#x437;" horiz-adv-x="1142" 
d="M572 -22q-191 0 -320.5 88t-144.5 258h242q18 -71 75.5 -107.5t147.5 -36.5q99 0 155 40.5t56 109.5q0 145 -210 145h-157v177h152q178 0 178 132q0 60 -45 97t-133 37q-86 0 -140.5 -36t-64.5 -99h-237q16 154 132 243.5t309 89.5q201 0 311 -81.5t110 -224.5
q0 -82 -46.5 -142t-121.5 -79v-18q103 -25 156.5 -89t53.5 -156q0 -158 -123.5 -253t-334.5 -95z" />
    <glyph glyph-name="iicyrillic" unicode="&#x438;" horiz-adv-x="1307" 
d="M404 0h-245v1094h245v-724h17l482 724h245v-1094h-245v729h-17z" />
    <glyph glyph-name="iishortcyrillic" unicode="&#x439;" horiz-adv-x="1307" 
d="M269 1594h196q1 -83 47.5 -138t123.5 -55t123.5 55t48.5 138h195q0 -150 -101.5 -246t-265.5 -96t-265.5 96t-101.5 246zM404 0h-245v1094h245v-724h17l482 724h245v-1094h-245v729h-17z" />
    <glyph glyph-name="kacyrillic" unicode="&#x43a;" horiz-adv-x="1190" 
d="M407 656h48l367 438h286l-448 -505l470 -589h-302l-371 470h-50v-470h-248v1094h248v-438z" />
    <glyph glyph-name="elcyrillic" unicode="&#x43b;" horiz-adv-x="1237" 
d="M483 509q-7 -99 -21 -176t-40.5 -143t-65.5 -109.5t-96 -67.5t-132 -24q-49 0 -83 12v220q26 -7 60 -7q75 0 109.5 80t43.5 229l36 571h784v-1094h-247v896h-321z" />
    <glyph glyph-name="emcyrillic" unicode="&#x43c;" horiz-adv-x="1611" 
d="M396 0h-237v1094h316l324 -753h18l325 753h310v-1094h-238v744h-18l-302 -693h-178l-301 693h-19v-744z" />
    <glyph glyph-name="encyrillic" unicode="&#x43d;" horiz-adv-x="1294" 
d="M159 0v1094h248v-432h480v432h248v-1094h-248v464h-480v-464h-248z" />
    <glyph glyph-name="ocyrillic" unicode="&#x43e;" horiz-adv-x="1274" 
d="M637 186q130 0 200.5 94.5t70.5 266.5q0 171 -71 266t-200 95q-130 0 -201 -95t-71 -266q0 -172 71 -266.5t201 -94.5zM637 -22q-246 0 -386 151.5t-140 417.5q0 264 141 416.5t385 152.5q245 0 385.5 -152t140.5 -417q0 -266 -140.5 -417.5t-385.5 -151.5z" />
    <glyph glyph-name="pecyrillic" unicode="&#x43f;" horiz-adv-x="1284" 
d="M877 0v896h-470v-896h-248v1094h966v-1094h-248z" />
    <glyph glyph-name="ercyrillic" unicode="&#x440;" horiz-adv-x="1317" 
d="M757 1112q208 0 329.5 -151t121.5 -414q0 -262 -120.5 -413.5t-327.5 -151.5q-117 0 -204.5 48.5t-129.5 135.5h-17v-516h-248v1444h239v-181h17q47 93 137.5 146t202.5 53zM679 193q129 0 201.5 94t72.5 260t-72.5 260t-200.5 94q-127 0 -201 -95t-75 -259
q1 -164 74.5 -259t200.5 -95z" />
    <glyph glyph-name="escyrillic" unicode="&#x441;" horiz-adv-x="1207" 
d="M1110 726h-236q-18 83 -80 132.5t-161 49.5q-128 0 -199.5 -94t-71.5 -264q0 -172 72 -268t199 -96q97 0 159.5 45t81.5 130h236q-21 -175 -146.5 -279t-329.5 -104q-247 0 -385 151t-138 421q0 267 138 416.5t384 149.5q206 0 331.5 -106.5t145.5 -283.5z" />
    <glyph glyph-name="tecyrillic" unicode="&#x442;" horiz-adv-x="1070" 
d="M996 1094v-198h-337v-896h-248v896h-337v198h922z" />
    <glyph glyph-name="ucyrillic" unicode="&#x443;" horiz-adv-x="1203" 
d="M282 -398q-77 0 -98 4v202q21 -3 68 -3q79 0 125.5 33.5t70.5 108.5l13 48l-391 1099h272l256 -854h17l255 854h262l-395 -1129q-70 -203 -170.5 -283t-284.5 -80z" />
    <glyph glyph-name="efcyrillic" unicode="&#x444;" horiz-adv-x="1624" 
d="M692 185v724q-151 -4 -240 -100.5t-89 -261.5q0 -166 88.5 -262t240.5 -100zM1261 547q0 166 -88.5 262t-240.5 100v-724q151 4 240 100.5t89 261.5zM691 -15q-266 6 -423 156.5t-157 405.5q0 254 158 405.5t422 156.5v343h243v-343q265 -6 422 -156.5t157 -405.5
q0 -254 -158 -405.5t-421 -156.5v-335h-243v335z" />
    <glyph glyph-name="hacyrillic" unicode="&#x445;" horiz-adv-x="1169" 
d="M588 377h-17l-224 -377h-267l354 543l-357 551h287l218 -376h17l216 376h273l-353 -541l357 -553h-280z" />
    <glyph glyph-name="tsecyrillic" unicode="&#x446;" horiz-adv-x="1336" 
d="M1286 -285h-228v285h-899v1094h248v-896h463v896h248v-896h168v-483z" />
    <glyph glyph-name="checyrillic" unicode="&#x447;" horiz-adv-x="1233" 
d="M1074 0h-248v474h-17q-109 -113 -290 -113q-175 0 -277.5 108.5t-102.5 291.5v333h248v-305q0 -99 51.5 -155.5t142.5 -56.5q95 0 155 37t90 81v399h248v-1094z" />
    <glyph glyph-name="shacyrillic" unicode="&#x448;" horiz-adv-x="1760" 
d="M159 0v1094h248v-896h349v896h248v-896h350v896h247v-1094h-1442z" />
    <glyph glyph-name="shchacyrillic" unicode="&#x449;" horiz-adv-x="1816" 
d="M1765 -285h-228v285h-1378v1094h248v-896h349v896h248v-896h350v896h247v-896h164v-483z" />
    <glyph glyph-name="hardsigncyrillic" unicode="&#x44a;" horiz-adv-x="1321" 
d="M815 0h-458v896h-287v198h535v-328h210q191 0 304.5 -104t113.5 -279t-113.5 -279t-304.5 -104zM786 569h-181v-371h181q91 0 146 51t55 135t-55 134.5t-146 50.5z" />
    <glyph glyph-name="yericyrillic" unicode="&#x44b;" horiz-adv-x="1568" 
d="M1161 0v1094h247v-1094h-247zM595 569h-181v-371h181q91 0 146 51t55 135t-55 134.5t-146 50.5zM166 0v1094h248v-328h210q191 0 304.5 -104t113.5 -279t-113.5 -279t-304.5 -104h-458z" />
    <glyph glyph-name="softsigncyrillic" unicode="&#x44c;" horiz-adv-x="1130" 
d="M588 569h-181v-371h181q91 0 146 51t55 135t-55 134.5t-146 50.5zM159 0v1094h248v-328h210q191 0 304.5 -104t113.5 -279t-113.5 -279t-304.5 -104h-458z" />
    <glyph glyph-name="ereversedcyrillic" unicode="&#x44d;" horiz-adv-x="1220" 
d="M583 -22q-206 0 -333 104t-148 276h237q19 -82 83.5 -126.5t161.5 -44.5q115 0 189 77.5t84 208.5h-441v177h438q-13 119 -87 188.5t-183 69.5q-98 0 -161.5 -48.5t-83.5 -126.5h-236q21 169 149 276t333 107q240 0 382.5 -153t142.5 -413q0 -263 -143 -417.5
t-384 -154.5z" />
    <glyph glyph-name="iucyrillic" unicode="&#x44e;" horiz-adv-x="1726" 
d="M1096 -22q-222 0 -358 128.5t-157 357.5h-174v-464h-248v1094h248v-432h178q29 215 164 334.5t347 119.5q241 0 380 -151.5t139 -417.5q0 -267 -138.5 -418t-380.5 -151zM1095 186q127 0 196 94t69 267q0 172 -69.5 266.5t-195.5 94.5t-195.5 -94.5t-69.5 -266.5
t69.5 -266.5t195.5 -94.5z" />
    <glyph glyph-name="iacyrillic" unicode="&#x44f;" horiz-adv-x="1163" 
d="M572 554h188v343h-188q-90 0 -143.5 -47.5t-53.5 -129.5q0 -73 54 -119.5t143 -46.5zM760 0v366h-143l-256 -366h-284l293 409q-112 32 -176 115.5t-64 196.5q0 172 115.5 272.5t307.5 100.5h451v-1094h-244z" />
    <glyph glyph-name="iocyrillic" unicode="&#x451;" horiz-adv-x="1236" 
d="M624 919q-111 0 -183 -73t-80 -193h515q-4 122 -72 194t-180 72zM878 301h235q-35 -150 -164.5 -236.5t-321.5 -86.5q-241 0 -378.5 150.5t-137.5 414.5t138 418.5t376 154.5q234 0 366.5 -146.5t132.5 -405.5v-80h-764v-13q5 -137 78.5 -216.5t195.5 -79.5
q188 0 244 126zM402 1242q-61 0 -102 40.5t-41 100.5t41 100.5t102 40.5t102 -40.5t41 -100.5t-41 -100.5t-102 -40.5zM847 1242q-61 0 -102 40.5t-41 100.5t41 100.5t102 40.5t102 -40.5t41 -100.5t-41 -100.5t-102 -40.5z" />
    <glyph glyph-name="djecyrillic" unicode="&#x452;" horiz-adv-x="1327" 
d="M1170 -52q0 -331 -368 -331q-45 0 -61 2v196q4 -1 33 -1q81 0 114.5 32.5t33.5 107.5v693q0 124 -60 187.5t-175 63.5q-122 0 -195.5 -72.5t-73.5 -190.5v-635h-248v1270h-142v142h142v150h244v-150h253v-142h-253v-353h18q39 92 131.5 144.5t215.5 52.5q185 0 288 -107
t103 -301v-758z" />
    <glyph glyph-name="gjecyrillic" unicode="&#x453;" horiz-adv-x="986" 
d="M368 1275l249 347h277l-284 -347h-242zM903 896h-489v-896h-248v1094h737v-198z" />
    <glyph glyph-name="ecyrillic" unicode="&#x454;" horiz-adv-x="1210" 
d="M1113 358q-21 -172 -147 -276t-330 -104q-242 0 -383.5 154t-141.5 418q0 260 141 413t382 153q203 0 330 -107t148 -276h-236q-19 78 -81.5 126.5t-158.5 48.5q-109 0 -182 -68.5t-87 -187.5h432v-177h-435q7 -133 81.5 -210.5t190.5 -77.5q95 0 158 44.5t82 126.5h237z
" />
    <glyph glyph-name="dzecyrillic" unicode="&#x455;" horiz-adv-x="1149" 
d="M137 781q0 148 122 241.5t316 93.5q195 0 311.5 -82.5t129.5 -231.5h-233q-14 59 -67.5 92.5t-139.5 33.5t-142 -37t-56 -96q0 -46 39.5 -76t122.5 -49l193 -44q158 -36 232 -107t74 -191q0 -157 -130 -253.5t-336 -96.5q-205 0 -327.5 84t-136.5 233h245
q18 -62 75.5 -95.5t149.5 -33.5q94 0 153 37.5t59 98.5q0 91 -151 124l-194 45q-158 36 -233.5 111.5t-75.5 198.5z" />
    <glyph glyph-name="icyrillic" unicode="&#x456;" horiz-adv-x="584" 
d="M165 0v1094h247v-1094h-247zM288 1272q-67 0 -110 38.5t-43 98.5t43 98.5t110 38.5q68 0 110.5 -38.5t42.5 -98.5t-42.5 -98.5t-110.5 -38.5z" />
    <glyph glyph-name="yicyrillic" unicode="&#x457;" horiz-adv-x="586" 
d="M168 0v1094h247v-1094h-247zM68 1242q-61 0 -102 40.5t-41 100.5t41 100.5t102 40.5t102 -40.5t41 -100.5t-41 -100.5t-102 -40.5zM513 1242q-61 0 -102 40.5t-41 100.5t41 100.5t102 40.5t102 -40.5t41 -100.5t-41 -100.5t-102 -40.5z" />
    <glyph glyph-name="jecyrillic" unicode="&#x458;" horiz-adv-x="585" 
d="M412 1094v-1144q0 -333 -368 -333q-46 0 -60 2v196q3 -1 32 -1q82 0 115.5 32.5t33.5 107.5v1140h247zM288 1272q-67 0 -110 38.5t-43 98.5t43 98.5t110 38.5q68 0 110.5 -38.5t42.5 -98.5t-42.5 -98.5t-110.5 -38.5z" />
    <glyph glyph-name="ljecyrillic" unicode="&#x459;" horiz-adv-x="1808" 
d="M490 509q-8 -125 -29 -215.5t-61.5 -161.5t-106.5 -107t-159 -36q-48 0 -82 12v220q26 -7 60 -7q75 0 109.5 80t43.5 229l36 571h784v-328h210q191 0 304.5 -104t113.5 -279t-113.5 -279t-304.5 -104h-458v896h-320zM1266 569h-181v-371h181q91 0 146 51t55 135
t-55 134.5t-146 50.5z" />
    <glyph glyph-name="njecyrillic" unicode="&#x45a;" horiz-adv-x="1841" 
d="M1314 498h-196v-303h196q85 0 136.5 42t51.5 109q0 68 -51.5 110t-136.5 42zM870 0v494h-463v-494h-248v1094h248v-405h463v405h248v-401h217q188 0 299.5 -93.5t111.5 -253.5q0 -159 -111.5 -252.5t-299.5 -93.5h-465z" />
    <glyph glyph-name="tshecyrillic" unicode="&#x45b;" horiz-adv-x="1327" 
d="M414 917h18q39 92 131.5 144.5t215.5 52.5q185 0 288 -107t103 -301v-706h-248v647q0 124 -60 187.5t-175 63.5q-122 0 -195.5 -72.5t-73.5 -190.5v-635h-248v1270h-142v142h142v150h244v-150h253v-142h-253v-353z" />
    <glyph glyph-name="kjecyrillic" unicode="&#x45c;" horiz-adv-x="1190" 
d="M457 1275l249 347h277l-284 -347h-242zM407 656h48l367 438h286l-448 -505l470 -589h-302l-371 470h-50v-470h-248v1094h248v-438z" />
    <glyph glyph-name="ushortcyrillic" unicode="&#x45e;" horiz-adv-x="1203" 
d="M240 1594h196q1 -83 47.5 -138t123.5 -55t123.5 55t48.5 138h195q0 -150 -101.5 -246t-265.5 -96t-265.5 96t-101.5 246zM282 -398q-77 0 -98 4v202q21 -3 68 -3q79 0 125.5 33.5t70.5 108.5l13 48l-391 1099h272l256 -854h17l255 854h262l-395 -1129
q-70 -203 -170.5 -283t-284.5 -80z" />
    <glyph glyph-name="dzhecyrillic" unicode="&#x45f;" horiz-adv-x="1284" 
d="M1125 0h-369v-285h-228v285h-369v1094h248v-896h470v896h248v-1094z" />
    <glyph glyph-name="Geupturncyrillic" unicode="&#x490;" horiz-adv-x="1201" 
d="M447 1219v-1219h-259v1443h662v285h241v-509h-644z" />
    <glyph glyph-name="geupturncyrillic" unicode="&#x491;" horiz-adv-x="986" 
d="M896 896h-489v-896h-248v1094h509v285h228v-483z" />
    <glyph glyph-name="baht" unicode="&#xe3f;" horiz-adv-x="1383" 
d="M704 649v-444q260 11 260 225q0 205 -260 219zM410 205h156v445h-156v-445zM410 1238v-402h156v402h-156zM704 1236v-395q100 14 152 64t52 132q0 86 -53 137.5t-151 61.5zM900 774v-18q146 -14 236.5 -109.5t90.5 -236.5q0 -190 -132 -300t-363 -110h-28v-136h-138v136
h-410v1443h410v150h138v-150h13q206 0 323 -96.5t117 -263.5q0 -114 -74 -203t-183 -106z" />
    <glyph glyph-name="Aringbelow" unicode="&#x1e00;" horiz-adv-x="1456" 
d="M1109 0l-122 369h-531l-124 -369h-261l512 1443h290l513 -1443h-277zM714 1168l-198 -595h411l-196 595h-17zM721 -571q-102 0 -171.5 67.5t-69.5 168.5t69.5 168t171.5 67t171 -67t69 -168t-69 -168.5t-171 -67.5zM721 -446q48 0 79.5 31.5t31.5 78.5q0 48 -31.5 79.5
t-79.5 31.5q-49 0 -80.5 -31.5t-31.5 -79.5q0 -47 31.5 -78.5t80.5 -31.5z" />
    <glyph glyph-name="aringbelow" unicode="&#x1e01;" horiz-adv-x="1179" 
d="M526 177q112 0 187 64.5t75 159.5v87l-247 -16q-204 -13 -204 -148q0 -68 52.5 -107.5t136.5 -39.5zM453 -18q-160 0 -261 90t-101 238t107.5 232t307.5 96l282 17v92q0 81 -53 124t-153 43q-86 0 -142 -29.5t-73 -84.5h-234q15 145 140.5 230.5t320.5 85.5
q210 0 324.5 -97t114.5 -272v-747h-239v150h-17q-46 -79 -131.5 -123.5t-192.5 -44.5zM575 -571q-102 0 -171.5 67.5t-69.5 168.5t69.5 168t171.5 67t171 -67t69 -168t-69 -168.5t-171 -67.5zM575 -446q48 0 79.5 31.5t31.5 78.5q0 48 -31.5 79.5t-79.5 31.5
q-49 0 -80.5 -31.5t-31.5 -79.5q0 -47 31.5 -78.5t80.5 -31.5z" />
    <glyph glyph-name="Bdotaccent" unicode="&#x1e02;" horiz-adv-x="1393" 
d="M628 1578q-62 0 -103 41.5t-41 102.5q0 62 40.5 103.5t103.5 41.5q62 0 103 -41.5t41 -103.5q0 -61 -41 -102.5t-103 -41.5zM795 0h-617v1443h603q205 0 322 -96.5t117 -263.5q0 -114 -74 -203t-183 -106v-18q146 -14 237 -109.5t91 -236.5q0 -190 -132.5 -300
t-363.5 -110zM436 1238v-402h249q137 0 208.5 51.5t71.5 149.5q0 95 -65 148t-182 53h-282zM436 205h300q143 0 217 57.5t74 167.5q0 108 -76.5 164t-224.5 56h-290v-445z" />
    <glyph glyph-name="bdotaccent" unicode="&#x1e03;" horiz-adv-x="1306" 
d="M286 1652q-62 0 -103 41.5t-41 102.5q0 62 40.5 103.5t103.5 41.5q62 0 103 -41.5t41 -103.5q0 -61 -41 -102.5t-103 -41.5zM760 -18q-115 0 -205 50.5t-137 140.5h-17v-173h-239v1517h248v-597h17q43 89 132 140.5t201 51.5q208 0 328.5 -151.5t120.5 -413.5
q0 -261 -121 -413t-328 -152zM682 901q-127 0 -201.5 -95.5t-74.5 -258.5q0 -164 74.5 -259t201.5 -95t199.5 94.5t72.5 259.5t-72.5 259.5t-199.5 94.5z" />
    <glyph glyph-name="Bdotbelow" unicode="&#x1e04;" horiz-adv-x="1393" 
d="M629 -413q-63 0 -103.5 38t-40.5 95t40.5 95t103.5 38t103.5 -38t40.5 -95t-40.5 -95t-103.5 -38zM795 0h-617v1443h603q205 0 322 -96.5t117 -263.5q0 -114 -74 -203t-183 -106v-18q146 -14 237 -109.5t91 -236.5q0 -190 -132.5 -300t-363.5 -110zM436 1238v-402h249
q137 0 208.5 51.5t71.5 149.5q0 95 -65 148t-182 53h-282zM436 205h300q143 0 217 57.5t74 167.5q0 108 -76.5 164t-224.5 56h-290v-445z" />
    <glyph glyph-name="bdotbelow" unicode="&#x1e05;" horiz-adv-x="1306" 
d="M657 -413q-63 0 -103.5 38t-40.5 95t40.5 95t103.5 38t103.5 -38t40.5 -95t-40.5 -95t-103.5 -38zM760 -18q-115 0 -205 50.5t-137 140.5h-17v-173h-239v1517h248v-597h17q43 89 132 140.5t201 51.5q208 0 328.5 -151.5t120.5 -413.5q0 -261 -121 -413t-328 -152z
M682 901q-127 0 -201.5 -95.5t-74.5 -258.5q0 -164 74.5 -259t201.5 -95t199.5 94.5t72.5 259.5t-72.5 259.5t-199.5 94.5z" />
    <glyph glyph-name="Blinebelow" unicode="&#x1e06;" horiz-adv-x="1393" 
d="M795 0h-617v1443h603q205 0 322 -96.5t117 -263.5q0 -114 -74 -203t-183 -106v-18q146 -14 237 -109.5t91 -236.5q0 -190 -132.5 -300t-363.5 -110zM436 1238v-402h249q137 0 208.5 51.5t71.5 149.5q0 95 -65 148t-182 53h-282zM436 205h300q143 0 217 57.5t74 167.5
q0 108 -76.5 164t-224.5 56h-290v-445zM989 -382h-720v164h720v-164z" />
    <glyph glyph-name="blinebelow" unicode="&#x1e07;" horiz-adv-x="1306" 
d="M1017 -382h-720v164h720v-164zM760 -18q-115 0 -205 50.5t-137 140.5h-17v-173h-239v1517h248v-597h17q43 89 132 140.5t201 51.5q208 0 328.5 -151.5t120.5 -413.5q0 -261 -121 -413t-328 -152zM682 901q-127 0 -201.5 -95.5t-74.5 -258.5q0 -164 74.5 -259t201.5 -95
t199.5 94.5t72.5 259.5t-72.5 259.5t-199.5 94.5z" />
    <glyph glyph-name="Ccedillaacute" unicode="&#x1e08;" horiz-adv-x="1499" 
d="M1222 1897l-321 -310h-250l288 310h283zM1137 458h254q-23 -203 -167.5 -335.5t-363.5 -154.5l-37 -91q98 -4 150.5 -48.5t52.5 -123.5q0 -92 -68 -145.5t-191 -53.5q-89 0 -146 18v124q44 -14 118 -14q114 0 114 64q0 32 -32 46t-105 14h-59v104l43 106
q-272 26 -427.5 226.5t-155.5 526.5q0 352 177.5 555t484.5 203q246 0 417 -144.5t194 -370.5h-254q-27 130 -124 207.5t-233 77.5q-184 0 -291 -141.5t-107 -385.5t107 -386t292 -142q137 0 234 71.5t123 192.5z" />
    <glyph glyph-name="ccedillaacute" unicode="&#x1e09;" horiz-adv-x="1182" 
d="M1005 1622l-284 -347h-242l249 347h277zM1097 726h-236q-18 83 -80 132.5t-161 49.5q-128 0 -199.5 -94t-71.5 -264q0 -172 72 -268t199 -96q97 0 159.5 45t81.5 130h236q-18 -155 -120 -256t-269 -122l-43 -106q98 -4 150.5 -48.5t52.5 -123.5q0 -92 -68 -145.5
t-191 -53.5q-89 0 -146 18v124q44 -14 118 -14q114 0 114 64q0 32 -32 46t-105 14h-59v104l49 120q-214 22 -332 170.5t-118 397.5q0 267 138 416.5t384 149.5q206 0 331.5 -106.5t145.5 -283.5z" />
    <glyph glyph-name="Ddotaccent" unicode="&#x1e0a;" horiz-adv-x="1514" 
d="M623 1578q-62 0 -103 41.5t-41 102.5q0 62 40.5 103.5t103.5 41.5q62 0 103 -41.5t41 -103.5q0 -61 -41 -102.5t-103 -41.5zM178 1443h541q322 0 500.5 -187.5t178.5 -527.5q0 -347 -177.5 -537.5t-501.5 -190.5h-541v1443zM436 1220v-997h249q216 0 333 130t117 371
q0 236 -118.5 366t-331.5 130h-249z" />
    <glyph glyph-name="ddotaccent" unicode="&#x1e0b;" horiz-adv-x="1306" 
d="M1021 1652q-62 0 -103 41.5t-41 102.5q0 62 40.5 103.5t103.5 41.5q62 0 103 -41.5t41 -103.5q0 -61 -41 -102.5t-103 -41.5zM548 -18q-208 0 -329 152.5t-121 413.5q0 259 121.5 411.5t328.5 152.5q112 0 200 -51t132 -141h17v597h248v-1517h-240v173h-17
q-47 -90 -136.5 -140.5t-203.5 -50.5zM625 901q-127 0 -200 -94.5t-73 -259.5q0 -166 72.5 -260t200.5 -94t201.5 94.5t73.5 259.5q0 164 -74 259t-201 95z" />
    <glyph glyph-name="Ddotbelow" unicode="&#x1e0c;" horiz-adv-x="1514" 
d="M623 -413q-63 0 -103.5 38t-40.5 95t40.5 95t103.5 38t103.5 -38t40.5 -95t-40.5 -95t-103.5 -38zM178 1443h541q322 0 500.5 -187.5t178.5 -527.5q0 -347 -177.5 -537.5t-501.5 -190.5h-541v1443zM436 1220v-997h249q216 0 333 130t117 371q0 236 -118.5 366t-331.5 130
h-249z" />
    <glyph glyph-name="ddotbelow" unicode="&#x1e0d;" horiz-adv-x="1306" 
d="M688 -413q-63 0 -103.5 38t-40.5 95t40.5 95t103.5 38t103.5 -38t40.5 -95t-40.5 -95t-103.5 -38zM548 -18q-208 0 -329 152.5t-121 413.5q0 259 121.5 411.5t328.5 152.5q112 0 200 -51t132 -141h17v597h248v-1517h-240v173h-17q-47 -90 -136.5 -140.5t-203.5 -50.5z
M625 901q-127 0 -200 -94.5t-73 -259.5q0 -166 72.5 -260t200.5 -94t201.5 94.5t73.5 259.5q0 164 -74 259t-201 95z" />
    <glyph glyph-name="Dlinebelow" unicode="&#x1e0e;" horiz-adv-x="1514" 
d="M983 -382h-720v164h720v-164zM178 1443h541q322 0 500.5 -187.5t178.5 -527.5q0 -347 -177.5 -537.5t-501.5 -190.5h-541v1443zM436 1220v-997h249q216 0 333 130t117 371q0 236 -118.5 366t-331.5 130h-249z" />
    <glyph glyph-name="dlinebelow" unicode="&#x1e0f;" horiz-adv-x="1306" 
d="M1048 -382h-720v164h720v-164zM548 -18q-208 0 -329 152.5t-121 413.5q0 259 121.5 411.5t328.5 152.5q112 0 200 -51t132 -141h17v597h248v-1517h-240v173h-17q-47 -90 -136.5 -140.5t-203.5 -50.5zM625 901q-127 0 -200 -94.5t-73 -259.5q0 -166 72.5 -260t200.5 -94
t201.5 94.5t73.5 259.5q0 164 -74 259t-201 95z" />
    <glyph glyph-name="Dcommaaccent" unicode="&#x1e10;" horiz-adv-x="1514" 
d="M620 -512h-225l121 364h253zM178 1443h541q322 0 500.5 -187.5t178.5 -527.5q0 -347 -177.5 -537.5t-501.5 -190.5h-541v1443zM436 1220v-997h249q216 0 333 130t117 371q0 236 -118.5 366t-331.5 130h-249z" />
    <glyph glyph-name="dcommaaccent" unicode="&#x1e11;" horiz-adv-x="1306" 
d="M685 -512h-225l121 364h253zM548 -18q-208 0 -329 152.5t-121 413.5q0 259 121.5 411.5t328.5 152.5q112 0 200 -51t132 -141h17v597h248v-1517h-240v173h-17q-47 -90 -136.5 -140.5t-203.5 -50.5zM625 901q-127 0 -200 -94.5t-73 -259.5q0 -166 72.5 -260t200.5 -94
t201.5 94.5t73.5 259.5q0 164 -74 259t-201 95z" />
    <glyph glyph-name="Dcircumflexbelow" unicode="&#x1e12;" horiz-adv-x="1514" 
d="M178 1443h541q322 0 500.5 -187.5t178.5 -527.5q0 -347 -177.5 -537.5t-501.5 -190.5h-541v1443zM436 1220v-997h249q216 0 333 130t117 371q0 236 -118.5 366t-331.5 130h-249zM747 -148l291 -284h-254l-152 160h-18l-152 -160h-254l291 284h248z" />
    <glyph glyph-name="dcircumflexbelow" unicode="&#x1e13;" horiz-adv-x="1306" 
d="M548 -18q-208 0 -329 152.5t-121 413.5q0 259 121.5 411.5t328.5 152.5q112 0 200 -51t132 -141h17v597h248v-1517h-240v173h-17q-47 -90 -136.5 -140.5t-203.5 -50.5zM625 901q-127 0 -200 -94.5t-73 -259.5q0 -166 72.5 -260t200.5 -94t201.5 94.5t73.5 259.5
q0 164 -74 259t-201 95zM812 -148l291 -284h-254l-152 160h-18l-152 -160h-254l291 284h248z" />
    <glyph glyph-name="Emacrongrave" unicode="&#x1e14;" horiz-adv-x="1254" 
d="M1005 1614h-720v161h720v-161zM761 1900h-232l-209 249h260zM1112 223v-223h-934v1443h934v-223h-676v-383h639v-210h-639v-404h676z" />
    <glyph glyph-name="emacrongrave" unicode="&#x1e15;" horiz-adv-x="1208" 
d="M611 919q-111 0 -183 -73t-80 -193h515q-4 122 -72 194t-180 72zM865 301h235q-35 -150 -164.5 -236.5t-321.5 -86.5q-241 0 -378.5 150.5t-137.5 414.5t138 418.5t376 154.5q234 0 366.5 -146.5t132.5 -405.5v-80h-764v-13q5 -137 78.5 -216.5t195.5 -79.5
q188 0 244 126zM744 1607h-229l-242 301h264zM968 1290h-712v164h712v-164z" />
    <glyph glyph-name="Emacronacute" unicode="&#x1e16;" horiz-adv-x="1254" 
d="M1005 1613h-720v161h720v-161zM529 1899l181 249h260l-209 -249h-232zM1112 223v-223h-934v1443h934v-223h-676v-383h639v-210h-639v-404h676z" />
    <glyph glyph-name="emacronacute" unicode="&#x1e17;" horiz-adv-x="1208" 
d="M611 919q-111 0 -183 -73t-80 -193h515q-4 122 -72 194t-180 72zM865 301h235q-35 -150 -164.5 -236.5t-321.5 -86.5q-241 0 -378.5 150.5t-137.5 414.5t138 418.5t376 154.5q234 0 366.5 -146.5t132.5 -405.5v-80h-764v-13q5 -137 78.5 -216.5t195.5 -79.5
q188 0 244 126zM480 1607l207 301h264l-242 -301h-229zM968 1290h-712v164h712v-164z" />
    <glyph glyph-name="Ecircumflexbelow" unicode="&#x1e18;" horiz-adv-x="1254" 
d="M1112 223v-223h-934v1443h934v-223h-676v-383h639v-210h-639v-404h676zM769 -148l291 -284h-254l-152 160h-18l-152 -160h-254l291 284h248z" />
    <glyph glyph-name="ecircumflexbelow" unicode="&#x1e19;" horiz-adv-x="1208" 
d="M611 919q-111 0 -183 -73t-80 -193h515q-4 122 -72 194t-180 72zM865 301h235q-35 -150 -164.5 -236.5t-321.5 -86.5q-241 0 -378.5 150.5t-137.5 414.5t138 418.5t376 154.5q234 0 366.5 -146.5t132.5 -405.5v-80h-764v-13q5 -137 78.5 -216.5t195.5 -79.5
q188 0 244 126zM739 -148l291 -284h-254l-152 160h-18l-152 -160h-254l291 284h248z" />
    <glyph glyph-name="Etildebelow" unicode="&#x1e1a;" horiz-adv-x="1254" 
d="M801 -426q-45 0 -82.5 15t-63.5 36t-49 42.5t-49 36.5t-53 15q-84 0 -88 -129h-166q0 138 65 213t174 75q47 0 86.5 -15t66 -36t49.5 -42.5t47 -36.5t48 -15q84 0 89 127h165q0 -134 -65.5 -210t-173.5 -76zM1112 223v-223h-934v1443h934v-223h-676v-383h639v-210h-639
v-404h676z" />
    <glyph glyph-name="etildebelow" unicode="&#x1e1b;" horiz-adv-x="1208" 
d="M771 -426q-45 0 -82.5 15t-63.5 36t-49 42.5t-49 36.5t-53 15q-84 0 -88 -129h-166q0 138 65 213t174 75q47 0 86.5 -15t66 -36t49.5 -42.5t47 -36.5t48 -15q84 0 89 127h165q0 -134 -65.5 -210t-173.5 -76zM611 919q-111 0 -183 -73t-80 -193h515q-4 122 -72 194
t-180 72zM865 301h235q-35 -150 -164.5 -236.5t-321.5 -86.5q-241 0 -378.5 150.5t-137.5 414.5t138 418.5t376 154.5q234 0 366.5 -146.5t132.5 -405.5v-80h-764v-13q5 -137 78.5 -216.5t195.5 -79.5q188 0 244 126z" />
    <glyph glyph-name="Ecedillabreve" unicode="&#x1e1c;" horiz-adv-x="1254" 
d="M844 1900h188q0 -145 -104.5 -233.5t-282.5 -88.5t-282.5 88.5t-104.5 233.5h188q2 -77 55.5 -122t143.5 -45t143.5 45t55.5 122zM1112 1220h-676v-383h639v-210h-639v-404h676v-223h-374l-49 -123q98 -4 150.5 -48.5t52.5 -123.5q0 -92 -68 -145.5t-191 -53.5
q-89 0 -146 18v124q44 -14 118 -14q114 0 114 64q0 32 -32 46t-105 14h-59v104l56 138h-401v1443h934v-223z" />
    <glyph glyph-name="ecedillabreve" unicode="&#x1e1d;" horiz-adv-x="1208" 
d="M810 1585h188q0 -152 -104.5 -247t-282.5 -95t-282.5 95t-104.5 247h188q2 -84 54.5 -135t144.5 -51t144.5 51t54.5 135zM348 653h515q-4 122 -72 194t-180 72q-111 0 -183 -73t-80 -193zM1111 484h-764v-13q5 -137 78.5 -216.5t195.5 -79.5q188 0 244 126h235
q-31 -132 -135.5 -215.5t-262.5 -102.5l-43 -106q98 -4 150.5 -48.5t52.5 -123.5q0 -92 -68 -145.5t-191 -53.5q-89 0 -146 18v124q44 -14 118 -14q114 0 114 64q0 32 -32 46t-105 14h-59v104l49 120q-210 23 -327 170.5t-117 390.5q0 264 138 418.5t376 154.5
q234 0 366.5 -146.5t132.5 -405.5v-80z" />
    <glyph glyph-name="Fdotaccent" unicode="&#x1e1e;" horiz-adv-x="1205" 
d="M638 1578q-62 0 -103 41.5t-41 102.5q0 62 40.5 103.5t103.5 41.5q62 0 103 -41.5t41 -103.5q0 -61 -41 -102.5t-103 -41.5zM436 0h-258v1443h920v-223h-662v-420h605v-215h-605v-585z" />
    <glyph glyph-name="fdotaccent" unicode="&#x1e1f;" horiz-adv-x="791" 
d="M450 1628q-62 0 -103 41.5t-41 102.5q0 62 40.5 103.5t103.5 41.5q62 0 103 -41.5t41 -103.5q0 -61 -41 -102.5t-103 -41.5zM231 0v889h-178v198h178v109q0 164 86.5 238t268.5 74q62 0 131 -11v-185q-35 8 -95 8q-148 0 -148 -140v-93h237v-198h-233v-889h-247z" />
    <glyph glyph-name="Gmacron" unicode="&#x1e20;" horiz-adv-x="1547" 
d="M1426 578q0 -281 -171 -447.5t-460 -166.5q-314 0 -496 203.5t-182 554.5q0 346 183 551.5t491 205.5q250 0 419 -132t204 -353h-257q-39 123 -133.5 189t-232.5 66q-189 0 -299.5 -141t-110.5 -384q0 -246 112.5 -388t305.5 -142q165 0 268 92t106 241l1 30h-347v202
h599v-181zM1151 1629h-720v164h720v-164z" />
    <glyph glyph-name="gmacron" unicode="&#x1e21;" horiz-adv-x="1295" 
d="M981 1305h-712v164h712v-164zM899 559q0 157 -74 249.5t-203 92.5q-128 0 -199.5 -92t-71.5 -250t71 -249.5t200 -91.5t203 92t74 249zM622 -416q-209 0 -339.5 85t-145.5 227h249q12 -57 75.5 -90t164.5 -33q127 0 198 57t71 160v207h-17q-47 -88 -133.5 -134.5
t-200.5 -46.5q-206 0 -327 147.5t-121 395.5q0 252 122 402.5t330 150.5q112 0 203 -52t136 -141h17v175h239v-1098q0 -190 -141 -301t-380 -111z" />
    <glyph glyph-name="Hdotaccent" unicode="&#x1e22;" horiz-adv-x="1573" 
d="M1395 0h-257v623h-702v-623h-258v1443h258v-597h702v597h257v-1443zM787 1578q-62 0 -103 41.5t-41 102.5q0 62 40.5 103.5t103.5 41.5q62 0 103 -41.5t41 -103.5q0 -61 -41 -102.5t-103 -41.5z" />
    <glyph glyph-name="hdotaccent" unicode="&#x1e23;" horiz-adv-x="1297" 
d="M162 0v1517h244v-600h18q39 92 130.5 144.5t213.5 52.5q184 0 285.5 -106.5t101.5 -301.5v-706h-247v647q0 124 -59 187.5t-173 63.5q-122 0 -194 -72t-72 -191v-635h-248zM284 1652q-62 0 -103 41.5t-41 102.5q0 62 40.5 103.5t103.5 41.5q62 0 103 -41.5t41 -103.5
q0 -61 -41 -102.5t-103 -41.5z" />
    <glyph glyph-name="Hdotbelow" unicode="&#x1e24;" horiz-adv-x="1573" 
d="M1395 0h-257v623h-702v-623h-258v1443h258v-597h702v597h257v-1443zM787 -413q-63 0 -103.5 38t-40.5 95t40.5 95t103.5 38t103.5 -38t40.5 -95t-40.5 -95t-103.5 -38z" />
    <glyph glyph-name="hdotbelow" unicode="&#x1e25;" horiz-adv-x="1297" 
d="M162 0v1517h244v-600h18q39 92 130.5 144.5t213.5 52.5q184 0 285.5 -106.5t101.5 -301.5v-706h-247v647q0 124 -59 187.5t-173 63.5q-122 0 -194 -72t-72 -191v-635h-248zM662 -413q-63 0 -103.5 38t-40.5 95t40.5 95t103.5 38t103.5 -38t40.5 -95t-40.5 -95t-103.5 -38
z" />
    <glyph glyph-name="Hdieresis" unicode="&#x1e26;" horiz-adv-x="1573" 
d="M1395 0h-257v623h-702v-623h-258v1443h258v-597h702v597h257v-1443zM564 1577q-61 0 -102 40.5t-41 100.5t41 100.5t102 40.5t102 -40.5t41 -100.5t-41 -100.5t-102 -40.5zM1009 1577q-61 0 -102 40.5t-41 100.5t41 100.5t102 40.5t102 -40.5t41 -100.5t-41 -100.5
t-102 -40.5z" />
    <glyph glyph-name="hdieresis" unicode="&#x1e27;" horiz-adv-x="1297" 
d="M162 0v1517h244v-600h18q39 92 130.5 144.5t213.5 52.5q184 0 285.5 -106.5t101.5 -301.5v-706h-247v647q0 124 -59 187.5t-173 63.5q-122 0 -194 -72t-72 -191v-635h-248zM61 1651q-61 0 -102 40.5t-41 100.5t41 100.5t102 40.5t102 -40.5t41 -100.5t-41 -100.5
t-102 -40.5zM506 1651q-61 0 -102 40.5t-41 100.5t41 100.5t102 40.5t102 -40.5t41 -100.5t-41 -100.5t-102 -40.5z" />
    <glyph glyph-name="Hcedilla" unicode="&#x1e28;" horiz-adv-x="1573" 
d="M178 1443h258v-597h702v597h257v-1443h-257v623h-702v-619l-51 -127q97 -4 150 -48.5t53 -123.5q0 -92 -68 -145.5t-190 -53.5q-90 0 -147 18v124q44 -14 118 -14q114 0 114 64q0 32 -32 46t-104 14h-60v104l57 138h-98v1443z" />
    <glyph glyph-name="hcedilla" unicode="&#x1e29;" horiz-adv-x="1297" 
d="M162 1517h244v-600h18q38 92 129.5 144.5t214.5 52.5q185 0 286 -107t101 -301v-706h-247v647q0 123 -59 187t-173 64q-122 0 -194 -72.5t-72 -190.5v-631l-54 -131q96 -1 150.5 -47t54.5 -125q0 -92 -67.5 -145.5t-190.5 -53.5q-86 0 -147 18v125q40 -14 118 -14
q114 0 114 63q0 32 -31.5 46t-105.5 14h-59v104l59 142h-89v1517z" />
    <glyph glyph-name="Hbrevebelow" unicode="&#x1e2a;" horiz-adv-x="1573" 
d="M400 -112h190q0 -74 53 -118t144 -44t144 44t53 118h190q0 -138 -104 -225t-283 -87t-283 87t-104 225zM1395 0h-257v623h-702v-623h-258v1443h258v-597h702v597h257v-1443z" />
    <glyph glyph-name="hbrevebelow" unicode="&#x1e2b;" horiz-adv-x="1297" 
d="M275 -112h190q0 -74 53 -118t144 -44t144 44t53 118h190q0 -138 -104 -225t-283 -87t-283 87t-104 225zM162 0v1517h244v-600h18q39 92 130.5 144.5t213.5 52.5q184 0 285.5 -106.5t101.5 -301.5v-706h-247v647q0 124 -59 187.5t-173 63.5q-122 0 -194 -72t-72 -191v-635
h-248z" />
    <glyph glyph-name="Itildebelow" unicode="&#x1e2c;" horiz-adv-x="614" 
d="M436 0h-258v1443h258v-1443zM463 -426q-45 0 -82.5 15t-63.5 36t-49 42.5t-49 36.5t-53 15q-84 0 -88 -129h-166q0 138 65 213t174 75q47 0 86.5 -15t66 -36t49.5 -42.5t47 -36.5t48 -15q84 0 89 127h165q0 -134 -65.5 -210t-173.5 -76z" />
    <glyph glyph-name="itildebelow" unicode="&#x1e2d;" horiz-adv-x="557" 
d="M155 0v1094h247v-1094h-247zM278 1272q-67 0 -110 38.5t-43 98.5t43 98.5t110 38.5q68 0 110.5 -38.5t42.5 -98.5t-42.5 -98.5t-110.5 -38.5zM434 -426q-45 0 -82.5 15t-63.5 36t-49 42.5t-49 36.5t-53 15q-84 0 -88 -129h-166q0 138 65 213t174 75q47 0 86.5 -15t66 -36
t49.5 -42.5t47 -36.5t48 -15q84 0 89 127h165q0 -134 -65.5 -210t-173.5 -76z" />
    <glyph glyph-name="Idieresisacute" unicode="&#x1e2e;" horiz-adv-x="614" 
d="M436 0h-258v1443h258v-1443zM199 1914l189 235h268l-241 -235h-216zM84 1577q-61 0 -102 40.5t-41 100.5t41 100.5t102 40.5t102 -40.5t41 -100.5t-41 -100.5t-102 -40.5zM529 1577q-61 0 -102 40.5t-41 100.5t41 100.5t102 40.5t102 -40.5t41 -100.5t-41 -100.5
t-102 -40.5z" />
    </font>
</defs>
</svg>
